<svg xmlns="http://www.w3.org/2000/svg" width="54" height="54" viewBox="0 0 54 54">
  <g id="Group_15797" data-name="Group 15797" transform="translate(-829 -1358)">
    <g id="Group_13693" data-name="Group 13693" transform="translate(-6223 -1832)">
      <circle id="Ellipse_490" data-name="Ellipse 490" cx="27" cy="27" r="27" transform="translate(7052 3190)" fill="#f3f6ff"/>
    </g>
    <g id="poker-chips" transform="translate(839.054 1368.054)">
      <path id="Path_67196" data-name="Path 67196" d="M118.655,246.783a2.088,2.088,0,1,0,0-.993H118V244.6a2.088,2.088,0,1,0-.993,0v1.19h-.659a2.088,2.088,0,1,0,0,.993H117v.958l-1.521,2.535a.5.5,0,0,0,.426.752h3.184a.5.5,0,0,0,.426-.752L118,247.741v-.958Zm2.028-1.592a1.1,1.1,0,1,1-1.1,1.1,1.1,1.1,0,0,1,1.1-1.1Zm-4.279-2.619a1.1,1.1,0,1,1,1.1,1.1A1.1,1.1,0,0,1,116.4,242.572Zm-2.088,4.81a1.1,1.1,0,1,1,1.1-1.1A1.1,1.1,0,0,1,114.315,247.382Zm2.469,2.653.715-1.192.715,1.192Z" transform="translate(-104.798 -224.565)" fill="#404cdc"/>
      <path id="Path_67197" data-name="Path 67197" d="M21.191,0A12.587,12.587,0,0,0,13.5,2.593a12.8,12.8,0,0,0-4.47,6.439A12.7,12.7,0,1,0,24.86,24.864a12.8,12.8,0,0,0,6.418-4.443,12.584,12.584,0,0,0,2.614-7.72A12.716,12.716,0,0,0,21.191,0ZM29.9,4.884a11.713,11.713,0,0,1,2.419,4.174A3.746,3.746,0,0,1,29.9,4.884ZM21.191.993a11.712,11.712,0,0,1,2.411.25,3.728,3.728,0,0,1-2.411.879,3.726,3.726,0,0,1-2.415-.882A11.824,11.824,0,0,1,21.191.993Zm-8.718,3.9a3.728,3.728,0,0,1-.446,2.517,3.861,3.861,0,0,1-1.109,1.209q-.378.053-.749.128a11.8,11.8,0,0,1,2.3-3.854ZM12.7,9.483a11.71,11.71,0,0,1,2.411.25,3.746,3.746,0,0,1-4.823,0A11.717,11.717,0,0,1,12.7,9.483Zm-8.717,3.9A3.728,3.728,0,0,1,3.537,15.9a3.726,3.726,0,0,1-1.962,1.647A11.713,11.713,0,0,1,3.984,13.384ZM3.984,29a11.712,11.712,0,0,1-2.409-4.16,3.727,3.727,0,0,1,1.962,1.647A3.729,3.729,0,0,1,3.984,29ZM12.7,32.9a11.713,11.713,0,0,1-2.42-.252,3.746,3.746,0,0,1,4.823,0,11.716,11.716,0,0,1-2.4.248Zm8.708-3.891a3.746,3.746,0,0,1,2.419-4.174A11.714,11.714,0,0,1,21.41,29.008Zm2.725-5.291a4.742,4.742,0,0,0-3.54,6.114,11.712,11.712,0,0,1-4.369,2.526,4.742,4.742,0,0,0-7.064-.005A11.713,11.713,0,0,1,4.8,29.824a4.718,4.718,0,0,0-.4-3.835A4.715,4.715,0,0,0,1.269,23.72a11.726,11.726,0,0,1,0-5.058A4.715,4.715,0,0,0,4.4,16.394a4.718,4.718,0,0,0,.4-3.835A11.713,11.713,0,0,1,9.17,10.028a4.742,4.742,0,0,0,7.064,0,11.712,11.712,0,0,1,4.361,2.523,4.742,4.742,0,0,0,3.54,6.114,11.729,11.729,0,0,1,0,5.053Zm-.472-8.936a12.8,12.8,0,0,0-4.551-4.551l2.08-2.08L25.742,12.7Zm.166,2.767a3.746,3.746,0,0,1-2.419-4.174,11.714,11.714,0,0,1,2.419,4.174Zm6.662,2.268q-.281.366-.589.708a3.746,3.746,0,0,1,2.424-4.183,11.642,11.642,0,0,1-1.835,3.475ZM29.485,17.5a4.718,4.718,0,0,0-.4,3.847,11.808,11.808,0,0,1-3.936,2.378,12.71,12.71,0,0,0,.254-2.531c0-.38-.018-.756-.051-1.128A8.456,8.456,0,1,0,15.212,6.722a.5.5,0,1,0,.7.7,7.463,7.463,0,1,1,9.3,11.566,12.6,12.6,0,0,0-1.06-3.294L26.8,13.052a.5.5,0,0,0,0-.7L21.542,7.1a.5.5,0,0,0-.7,0L18.2,9.741A12.625,12.625,0,0,0,12.7,8.49l-.216,0a4.785,4.785,0,0,0,.4-.589,4.718,4.718,0,0,0,.4-3.84q.39-.358.812-.68a11.637,11.637,0,0,1,3.554-1.85,4.715,4.715,0,0,0,3.536,1.582,4.718,4.718,0,0,0,3.532-1.578,11.712,11.712,0,0,1,4.361,2.523,4.742,4.742,0,0,0,3.541,6.114,11.81,11.81,0,0,1,0,5.052A4.715,4.715,0,0,0,29.485,17.5Z" fill="#404cdc"/>
      <path id="Path_67198" data-name="Path 67198" d="M72.585,192.387a8.456,8.456,0,1,0,8.456,8.456A8.375,8.375,0,0,0,79.3,195.72a.5.5,0,0,0-.789.6,7.389,7.389,0,0,1,1.535,4.52,7.463,7.463,0,1,1-7.463-7.463,7.39,7.39,0,0,1,4.52,1.535.5.5,0,1,0,.6-.789,8.375,8.375,0,0,0-5.123-1.739Z" transform="translate(-59.884 -179.652)" fill="#404cdc"/>
    </g>
  </g>
</svg>
