<svg xmlns="http://www.w3.org/2000/svg" width="54" height="54" viewBox="0 0 54 54">
  <g id="Group_14332" data-name="Group 14332" transform="translate(-1278 -5691)">
    <g id="Group_13691" data-name="Group 13691" transform="translate(964 3439)">
      <g id="Group_12398" data-name="Group 12398" transform="translate(0 16.199)">
        <g id="Group_7958" data-name="Group 7958" transform="translate(314 2236)">
          <circle id="Ellipse_97" data-name="Ellipse 97" cx="27" cy="27" r="27" transform="translate(0 -0.199)" fill="#f3f6ff"/>
        </g>
      </g>
    </g>
    <path id="Path_66891" data-name="Path 66891" d="M1294.657,5713.186l.33-1.585,4.193-.858h3.137l1.882,1.057.4,1.552v9.046l-3,1.321-2.807.2-2.608-.627-1.519-.693.33-6.075Z" fill="#95dde6"/>
    <path id="Path_66892" data-name="Path 66892" d="M1311.688,5716.4l-1.133.7.332,1.7,1.484.547-.859.938a13,13,0,0,1,1.387,1.465c.1.254,1.485-.43,1.485-.43a3.654,3.654,0,0,1,.391.938c-.02.2,1.543.469,1.543.469l.664-1.231,1.681.254,1.328-1.094-.449-1.309,1.406-.547-.137-2.247h-1v-1.426l-1.152-1.465-.781.488-1.017-.781-1.211-.43-1.367.43v.664a6.264,6.264,0,0,0-.938-.371c-.1.02-1.328,1.211-1.328,1.211l-.234,1.016Z" fill="#95dde6"/>
    <g id="migrating" transform="translate(1286.842 5700.105)">
      <path id="Path_66882" data-name="Path 66882" d="M55.077,52.154h1.077A2.154,2.154,0,0,0,54,50v1.077A1.077,1.077,0,0,1,55.077,52.154Z" transform="translate(-23.992 -22.621)" fill="#404cdc"/>
      <path id="Path_66883" data-name="Path 66883" d="M21,27h1.077v1.077H21Z" transform="translate(-8.766 -12.009)" fill="#404cdc"/>
      <path id="Path_66884" data-name="Path 66884" d="M21,33h1.077v1.077H21Z" transform="translate(-8.766 -14.777)" fill="#404cdc"/>
      <path id="Path_66885" data-name="Path 66885" d="M21,39h1.077v1.077H21Z" transform="translate(-8.766 -17.545)" fill="#404cdc"/>
      <path id="Path_66886" data-name="Path 66886" d="M34.316,18.762V16.607a.539.539,0,0,0-.408-.522l-.7-.174.369-.615a.539.539,0,0,0-.081-.658l-1.523-1.523a.539.539,0,0,0-.658-.081L30.7,13.4l-.174-.7a.539.539,0,0,0-.522-.408H27.853a.539.539,0,0,0-.522.408l-.174.7-.405-.243c.01-.108.024-.215.024-.323A3.236,3.236,0,0,0,23.867,9.62a1.9,1.9,0,0,0,.215-.823,4.574,4.574,0,0,0-7.719-3.325A5.925,5.925,0,1,0,5.344,9.605H5.232a3.232,3.232,0,1,0,0,6.463H7.386v3.485A5.9,5.9,0,0,0,6,25.236a4.309,4.309,0,0,0,.31,8.606h23.7a4.309,4.309,0,1,0,0-8.618H29.53a7.453,7.453,0,0,0,.868-2.332.527.527,0,0,0,.132-.23l.174-.7.615.369a.539.539,0,0,0,.658-.081L33.5,20.731a.539.539,0,0,0,.081-.658l-.369-.615.7-.174a.539.539,0,0,0,.408-.522ZM3.077,12.837a2.154,2.154,0,0,1,2.154-2.154H6.314a.539.539,0,0,0,.431-.862A4.844,4.844,0,1,1,15.46,6.81a.539.539,0,0,0,1.006.255A3.5,3.5,0,0,1,23.006,8.8a1.651,1.651,0,0,1-.251.631,3.833,3.833,0,0,0-.256.534.539.539,0,0,0,.507.721h.539A2.154,2.154,0,0,1,25.7,12.837a2.124,2.124,0,0,1-.073.535l-.778.778A7.453,7.453,0,0,0,19,15.073a7.328,7.328,0,0,0-.841.619V13.914h1.616a.539.539,0,0,0,.539-.539V8.528H19.235v4.309H18.158V12.3c0-1.378-2.42-2.057-4.847-2.144V6.912a.539.539,0,0,0-.539-.539H11.618a2.154,2.154,0,1,0,0,1.077h.615v2.7c-2.427.087-4.847.766-4.847,2.144v2.693H5.232A2.154,2.154,0,0,1,3.077,12.837ZM12.772,23.07c-2.828,0-4.309-.8-4.309-1.077V20.121a10.238,10.238,0,0,0,4.309.795,10.238,10.238,0,0,0,4.309-.795v1.872C17.081,22.27,15.6,23.07,12.772,23.07Zm0-11.849c2.828,0,4.309.8,4.309,1.077s-1.481,1.077-4.309,1.077-4.309-.8-4.309-1.077S9.944,11.221,12.772,11.221ZM8.463,13.658a10.238,10.238,0,0,0,4.309.795,10.238,10.238,0,0,0,4.309-.795V15.53c0,.277-1.481,1.077-4.309,1.077s-4.309-.8-4.309-1.077Zm2.154-6.746A1.077,1.077,0,1,1,9.54,5.835,1.077,1.077,0,0,1,10.618,6.912ZM8.463,16.889a10.238,10.238,0,0,0,4.309.795,10.238,10.238,0,0,0,4.309-.795v1.872c0,.277-1.481,1.077-4.309,1.077s-4.309-.8-4.309-1.077ZM30.008,26.3a3.232,3.232,0,1,1,0,6.463H6.309a3.232,3.232,0,1,1,0-6.463h.452a.539.539,0,0,0,.493-.754,4.822,4.822,0,0,1,.132-4.154v.6c0,.714.653,1.239,1.616,1.592v7.026H7.386v1.077H9.54a.539.539,0,0,0,.539-.539V23.887a12.973,12.973,0,0,0,2.154.25v5.4a.539.539,0,0,0,.539.539H17.7A2.154,2.154,0,1,0,17.7,29H13.311V24.137c2.427-.087,4.847-.766,4.847-2.144V20.916h2.154v4.847a.539.539,0,0,0,.539.539h2.693V25.225H21.39V20.377a.539.539,0,0,0-.539-.539H18.158V17.2a6.385,6.385,0,0,1,1.414-1.211,6.5,6.5,0,0,1,4.64-.877.527.527,0,0,0,.066.188l.369.615-.7.174a.539.539,0,0,0-.408.522v2.154a.539.539,0,0,0,.408.522l.7.174-.369.615a.539.539,0,0,0,.081.658l1.523,1.523a.539.539,0,0,0,.658.081l.615-.369.174.7a.539.539,0,0,0,.522.408h1.4a6.437,6.437,0,0,1-1.161,2.361.539.539,0,0,0,.423.871ZM18.7,29.534a1.077,1.077,0,1,1,1.077,1.077A1.077,1.077,0,0,1,18.7,29.534ZM33.239,18.341l-.993.248a.539.539,0,0,0-.331.8l.527.878-.926.929-.878-.527a.539.539,0,0,0-.8.331l-.251.993H28.274L28.025,21a.539.539,0,0,0-.8-.331l-.878.527-.929-.926.527-.878a.539.539,0,0,0-.331-.8l-.993-.251V17.028l.993-.248a.539.539,0,0,0,.331-.8l-.527-.878.929-.929.878.527a.539.539,0,0,0,.8-.331l.248-.993h1.313l.248.993a.539.539,0,0,0,.8.331l.878-.527.929.929-.527.878a.539.539,0,0,0,.331.8l.993.248Z" fill="#404cdc"/>
      <path id="Path_66887" data-name="Path 66887" d="M50.154,28a2.154,2.154,0,1,0,2.154,2.154A2.154,2.154,0,0,0,50.154,28Zm0,3.232a1.077,1.077,0,1,1,1.077-1.077A1.077,1.077,0,0,1,50.154,31.232Z" transform="translate(-21.224 -12.47)" fill="#404cdc"/>
      <path id="Path_66888" data-name="Path 66888" d="M34,11h1.077v1.077H34Z" transform="translate(-14.765 -4.626)" fill="#404cdc"/>
      <path id="Path_66889" data-name="Path 66889" d="M44,46h1.077v1.077H44Z" transform="translate(-19.379 -20.775)" fill="#404cdc"/>
      <path id="Path_66890" data-name="Path 66890" d="M8,56H9.077v1.077H8Z" transform="translate(-2.768 -25.389)" fill="#404cdc"/>
    </g>
  </g>
</svg>
