<svg xmlns="http://www.w3.org/2000/svg" width="54" height="54" viewBox="0 0 54 54">
  <g id="Group_15793" data-name="Group 15793" transform="translate(-1290 -1152)">
    <g id="Group_12405" data-name="Group 12405" transform="translate(976 -1100)">
      <g id="Group_12398" data-name="Group 12398" transform="translate(0 16.199)">
        <g id="Group_7958" data-name="Group 7958" transform="translate(314 2236)">
          <circle id="Ellipse_97" data-name="Ellipse 97" cx="27" cy="27" r="27" transform="translate(0 -0.199)" fill="#f3f6ff"/>
        </g>
      </g>
    </g>
    <path id="Path_67173" data-name="Path 67173" d="M-7296.1,6075.27l.944-2.833,1.2-1.374,2.4.515.558.858,1.631-.858h2.232l.987,2.146-.215,1.116a16.04,16.04,0,0,1-.944,1.374c-.129.086-3.691,2.875-3.691,2.875l-3.734-2.618Z" transform="translate(8608 -4895)" fill="#95dde6"/>
    <g id="care" transform="translate(1299.284 1124.887)">
      <g id="Group_14343" data-name="Group 14343" transform="translate(0 56.417)">
        <g id="Group_14342" data-name="Group 14342">
          <path id="Path_67154" data-name="Path 67154" d="M21.145,291.881H18.46a.692.692,0,1,0,0,1.384h2.685a.751.751,0,1,1,0,1.5H13.917a3.636,3.636,0,0,1-2.8-1.314l-1.728-2.078a5.014,5.014,0,0,0-3.721-1.809V285.48H8.212a4.8,4.8,0,0,1,3.35,1.353l3.731,3.6a.68.68,0,0,1-.932.99l-2.929-2.685a.692.692,0,0,0-.935,1.02l2.929,2.685a2.064,2.064,0,0,0,2.828-3.006l-3.731-3.6A6.177,6.177,0,0,0,8.212,284.1H5.53a1.718,1.718,0,0,0-1.581-1.05H.692a.692.692,0,0,0-.692.692v5.06a.692.692,0,1,0,1.384,0V284.43H3.949a.332.332,0,0,1,.331.331v5.546a.332.332,0,0,1-.331.331H3.23a.692.692,0,1,0,0,1.384h.719a1.718,1.718,0,0,0,1.591-1.075,3.636,3.636,0,0,1,2.782,1.314l1.728,2.078a5.016,5.016,0,0,0,3.867,1.813h7.228a2.135,2.135,0,1,0,0-4.271Z" transform="translate(0 -283.046)" fill="#404cdc"/>
        </g>
      </g>
      <g id="Group_14345" data-name="Group 14345" transform="translate(12.151 39.568)">
        <g id="Group_14344" data-name="Group 14344" transform="translate(0 0)">
          <path id="Path_67155" data-name="Path 67155" d="M198.178,45.96a.692.692,0,0,0-.692.692V51.29h-2.565a.332.332,0,0,1-.331-.331V45.413a.332.332,0,0,1,.331-.331h.668a.692.692,0,1,0,0-1.384h-.668a1.718,1.718,0,0,0-1.591,1.075,3.636,3.636,0,0,1-2.782-1.314l-1.728-2.078a5.016,5.016,0,0,0-3.867-1.813h-7.228a2.135,2.135,0,1,0,0,4.271h2.955a.692.692,0,0,0,0-1.384h-2.955a.751.751,0,1,1,0-1.5h7.228a3.636,3.636,0,0,1,2.8,1.314l1.728,2.078a5.014,5.014,0,0,0,3.721,1.809V50.24h-2.548a4.8,4.8,0,0,1-3.35-1.353l-3.731-3.6a.68.68,0,0,1,.932-.99l2.929,2.685a.692.692,0,1,0,.935-1.02l-2.929-2.685a2.064,2.064,0,0,0-2.828,3.006l3.731,3.6a6.177,6.177,0,0,0,4.311,1.741h2.682a1.718,1.718,0,0,0,1.581,1.05h3.257a.692.692,0,0,0,.692-.692v-5.33A.692.692,0,0,0,198.178,45.96Z" transform="translate(-175.59 -39.568)" fill="#404cdc"/>
        </g>
      </g>
      <g id="Group_14347" data-name="Group 14347" transform="translate(21.011 62.694)">
        <g id="Group_14346" data-name="Group 14346" transform="translate(0 0)">
          <path id="Path_67156" data-name="Path 67156" d="M304.947,374.159a.7.7,0,1,0-.362.922l.015-.007A.693.693,0,0,0,304.947,374.159Z" transform="translate(-303.617 -373.752)" fill="#404cdc"/>
        </g>
      </g>
      <g id="Group_14349" data-name="Group 14349" transform="translate(22.809 61.657)">
        <g id="Group_14348" data-name="Group 14348" transform="translate(0 0)">
          <path id="Path_67157" data-name="Path 67157" d="M330.855,359.038a.694.694,0,1,0-.151.971l.009-.006A.689.689,0,0,0,330.855,359.038Z" transform="translate(-329.603 -358.757)" fill="#404cdc"/>
        </g>
      </g>
      <g id="Group_14351" data-name="Group 14351" transform="translate(19.032 63.33)">
        <g id="Group_14350" data-name="Group 14350" transform="translate(0 0)">
          <path id="Path_67158" data-name="Path 67158" d="M276.391,383.489a.7.7,0,1,0-.553.824l.02,0A.691.691,0,0,0,276.391,383.489Z" transform="translate(-275.016 -382.94)" fill="#404cdc"/>
        </g>
      </g>
      <g id="Group_14353" data-name="Group 14353" transform="translate(24.347 60.254)">
        <g id="Group_14352" data-name="Group 14352" transform="translate(0 0)">
          <path id="Path_67159" data-name="Path 67159" d="M352.979,338.665a.692.692,0,0,0-.977.05l-.015.017a.692.692,0,1,0,.992-.067Zm-.386.583-.077-.07.083.075Z" transform="translate(-351.819 -338.487)" fill="#404cdc"/>
        </g>
      </g>
      <g id="Group_14355" data-name="Group 14355" transform="translate(26.374 56.652)">
        <g id="Group_14354" data-name="Group 14354" transform="translate(0 0)">
          <path id="Path_67160" data-name="Path 67160" d="M382,286.472a.695.695,0,1,0,.459.87l0-.009A.69.69,0,0,0,382,286.472Z" transform="translate(-381.109 -286.443)" fill="#404cdc"/>
        </g>
      </g>
      <g id="Group_14357" data-name="Group 14357" transform="translate(26.78 52.534)">
        <g id="Group_14356" data-name="Group 14356" transform="translate(0 0)">
          <path id="Path_67161" data-name="Path 67161" d="M388.354,227.515l-.005-.026a.7.7,0,1,0,.005.026Z" transform="translate(-386.979 -226.939)" fill="#404cdc"/>
        </g>
      </g>
      <g id="Group_14359" data-name="Group 14359" transform="translate(26.766 54.609)">
        <g id="Group_14358" data-name="Group 14358">
          <path id="Path_67162" data-name="Path 67162" d="M387.537,256.926a.693.693,0,0,0-.75.628c0,.007,0,.02,0,.027a.692.692,0,0,0,.65.731h.041a.7.7,0,0,0,.061-1.388Z" transform="translate(-386.783 -256.923)" fill="#404cdc"/>
        </g>
      </g>
      <g id="Group_14361" data-name="Group 14361" transform="translate(25.553 58.561)">
        <g id="Group_14360" data-name="Group 14360" transform="translate(0 0)">
          <path id="Path_67163" data-name="Path 67163" d="M370.3,314.114a.692.692,0,0,0-.943.261l-.01.017a.693.693,0,0,0,.608,1.026.686.686,0,0,0,.605-.36l-.6-.342.6.341A.692.692,0,0,0,370.3,314.114Z" transform="translate(-369.259 -314.024)" fill="#404cdc"/>
        </g>
      </g>
      <g id="Group_14363" data-name="Group 14363" transform="translate(12.726 45.09)">
        <g id="Group_14362" data-name="Group 14362">
          <path id="Path_67164" data-name="Path 67164" d="M185.212,119.752a.692.692,0,0,0-.928-.309l-.006,0a.692.692,0,1,0,.934.306Z" transform="translate(-183.898 -119.37)" fill="#404cdc"/>
        </g>
      </g>
      <g id="Group_14365" data-name="Group 14365" transform="translate(14.67 44.367)">
        <g id="Group_14364" data-name="Group 14364" transform="translate(0 0)">
          <path id="Path_67165" data-name="Path 67165" d="M213.36,109.447a.692.692,0,0,0-.836-.509l-.016,0a.692.692,0,1,0,.852.505Z" transform="translate(-211.987 -108.918)" fill="#404cdc"/>
        </g>
      </g>
      <g id="Group_14367" data-name="Group 14367" transform="translate(10.975 46.213)">
        <g id="Group_14366" data-name="Group 14366" transform="translate(0 0)">
          <path id="Path_67166" data-name="Path 67166" d="M159.835,135.852a.693.693,0,0,0-.973-.105l.429.543-.431-.541a.692.692,0,0,0,.862,1.083l.009-.007A.691.691,0,0,0,159.835,135.852Z" transform="translate(-158.599 -135.595)" fill="#404cdc"/>
        </g>
      </g>
      <g id="Group_14369" data-name="Group 14369" transform="translate(7.646 51.37)">
        <g id="Group_14368" data-name="Group 14368" transform="translate(0 0)">
          <path id="Path_67167" data-name="Path 67167" d="M111.362,210.131a.692.692,0,0,0-.85.485l-.007.026a.692.692,0,1,0,.856-.511Z" transform="translate(-110.487 -210.106)" fill="#404cdc"/>
        </g>
      </g>
      <g id="Group_14371" data-name="Group 14371" transform="translate(7.349 53.426)">
        <g id="Group_14370" data-name="Group 14370" transform="translate(0 0)">
          <path id="Path_67168" data-name="Path 67168" d="M106.923,239.825a.692.692,0,0,0-.731.651c0,.009,0,.018,0,.027a.691.691,0,0,0,.671.711h.021a.7.7,0,0,0,.04-1.389Z" transform="translate(-106.191 -239.824)" fill="#404cdc"/>
        </g>
      </g>
      <g id="Group_14373" data-name="Group 14373" transform="translate(8.376 49.424)">
        <g id="Group_14372" data-name="Group 14372" transform="translate(0 0)">
          <path id="Path_67169" data-name="Path 67169" d="M122.053,182.069a.692.692,0,0,0-.934.291l-.011.022a.692.692,0,1,0,.945-.314Z" transform="translate(-121.037 -181.989)" fill="#404cdc"/>
        </g>
      </g>
      <g id="Group_14375" data-name="Group 14375" transform="translate(9.504 47.679)">
        <g id="Group_14374" data-name="Group 14374" transform="translate(0 0)">
          <path id="Path_67170" data-name="Path 67170" d="M138.477,156.933a.692.692,0,0,0-.974.09l-.014.018a.692.692,0,1,0,.989-.108Z" transform="translate(-137.339 -156.773)" fill="#404cdc"/>
        </g>
      </g>
      <g id="Group_14377" data-name="Group 14377" transform="translate(7.49 55.5)">
        <g id="Group_14376" data-name="Group 14376">
          <path id="Path_67171" data-name="Path 67171" d="M109.6,270.361a.692.692,0,0,0-1.362.244v.007a.688.688,0,0,0,.678.567.693.693,0,0,0,.683-.818Z" transform="translate(-108.23 -269.791)" fill="#404cdc"/>
        </g>
      </g>
      <g id="Group_14379" data-name="Group 14379" transform="translate(12.219 50.817)">
        <g id="Group_14378" data-name="Group 14378" transform="translate(0 0)">
          <path id="Path_67172" data-name="Path 67172" d="M184.439,202.125a3.2,3.2,0,0,0-2.33,1,3.214,3.214,0,1,0-4.386,4.684l.014.011,3.943,3.122a.692.692,0,0,0,.861,0l4.11-3.274a.687.687,0,0,0,.057-.051,3.213,3.213,0,0,0-2.269-5.488Zm1.317,4.483-3.648,2.906-3.505-2.775a1.829,1.829,0,1,1,2.867-2.1.692.692,0,0,0,1.278,0,1.829,1.829,0,1,1,3.007,1.969Z" transform="translate(-176.566 -202.125)" fill="#404cdc"/>
        </g>
      </g>
      <g id="Group_14381" data-name="Group 14381" transform="translate(0.002 64.012)">
        <g id="Group_14380" data-name="Group 14380" transform="translate(0 0)">
          <circle id="Ellipse_1994" data-name="Ellipse 1994" cx="0.69" cy="0.69" r="0.69" fill="#404cdc"/>
        </g>
      </g>
      <g id="Group_14383" data-name="Group 14383" transform="translate(34.05 43.7)">
        <g id="Group_14382" data-name="Group 14382" transform="translate(0 0)">
          <circle id="Ellipse_1995" data-name="Ellipse 1995" cx="0.69" cy="0.69" r="0.69" fill="#404cdc"/>
        </g>
      </g>
    </g>
  </g>
</svg>
