<svg xmlns="http://www.w3.org/2000/svg" width="54" height="54" viewBox="0 0 54 54">
  <g id="Group_15790" data-name="Group 15790" transform="translate(-370 -1152)">
    <g id="Group_14241" data-name="Group 14241" transform="translate(12 -4333)">
      <circle id="Ellipse_97" data-name="Ellipse 97" cx="27" cy="27" r="27" transform="translate(358 5485)" fill="#f3f6ff"/>
    </g>
    <circle id="Ellipse_1991" data-name="Ellipse 1991" cx="1.5" cy="1.5" r="1.5" transform="translate(382 1182)" fill="#95dde6"/>
    <circle id="Ellipse_1992" data-name="Ellipse 1992" cx="1.5" cy="1.5" r="1.5" transform="translate(409 1182)" fill="#95dde6"/>
    <g id="hotel" transform="translate(381.236 1161.236)">
      <g id="Group_14333" data-name="Group 14333" transform="translate(0 0)">
        <path id="Path_67096" data-name="Path 67096" d="M77.234,19.1a.462.462,0,0,0,.462-.462V6.522H97.921v7.189a.462.462,0,1,0,.924,0V6.06a.462.462,0,0,0-.462-.462H95.734v-1.4a.462.462,0,0,0-.462-.462h-1.4V.462a.462.462,0,1,0-.924,0v1.4H91.629V.462a.462.462,0,1,0-.924,0v1.4H89.39V.462a.462.462,0,1,0-.924,0v1.4H87.15V.462a.462.462,0,1,0-.924,0v1.4H84.911V.462a.462.462,0,0,0-.924,0v1.4H82.672V.462a.462.462,0,1,0-.924,0v3.27h-1.4a.462.462,0,0,0-.462.462V5.6H77.234a.462.462,0,0,0-.462.462V18.635A.462.462,0,0,0,77.234,19.1ZM82.672,2.79H92.945v.942H82.672ZM80.806,4.656H94.811V5.6H80.806Z" transform="translate(-72.045 0)" fill="#404cdc"/>
        <path id="Path_67097" data-name="Path 67097" d="M107.539,125.876H109.4a.462.462,0,0,0,.462-.462v-3.732a.462.462,0,0,0-.462-.462h-1.866a.462.462,0,0,0-.462.462v3.732A.462.462,0,0,0,107.539,125.876Zm.462-3.732h.942v2.808H108Z" transform="translate(-100.484 -113.756)" fill="#404cdc"/>
        <path id="Path_67098" data-name="Path 67098" d="M173,121.682a.462.462,0,0,0-.462-.462h-1.866a.462.462,0,0,0-.462.462v3.732a.462.462,0,0,0,.462.462h1.866a.462.462,0,0,0,.462-.462Zm-.924,3.27h-.942v-2.808h.942Z" transform="translate(-159.731 -113.756)" fill="#404cdc"/>
        <path id="Path_67099" data-name="Path 67099" d="M236.137,121.682a.462.462,0,0,0-.462-.462h-1.866a.462.462,0,0,0-.462.462v3.732a.462.462,0,0,0,.462.462h1.866a.462.462,0,0,0,.462-.462Zm-.924,3.27h-.942v-2.808h.942Z" transform="translate(-218.978 -113.756)" fill="#404cdc"/>
        <path id="Path_67100" data-name="Path 67100" d="M296.945,125.876h1.866a.462.462,0,0,0,.462-.462v-3.732a.462.462,0,0,0-.462-.462h-1.866a.462.462,0,0,0-.462.462v3.732A.462.462,0,0,0,296.945,125.876Zm.462-3.732h.942v2.808h-.942Z" transform="translate(-278.227 -113.756)" fill="#404cdc"/>
        <path id="Path_67101" data-name="Path 67101" d="M362.408,121.682a.462.462,0,0,0-.462-.462H360.08a.462.462,0,0,0-.462.462v3.732a.462.462,0,0,0,.462.462h1.866a.462.462,0,0,0,.462-.462Zm-.924,3.27h-.942v-2.808h.942Z" transform="translate(-337.474 -113.756)" fill="#404cdc"/>
        <path id="Path_67102" data-name="Path 67102" d="M107.077,219.358a.462.462,0,0,0,.462.462H109.4a.462.462,0,0,0,.462-.462v-3.732a.462.462,0,0,0-.462-.462h-1.866a.462.462,0,0,0-.462.462Zm.924-3.27h.942V218.9H108Z" transform="translate(-100.484 -201.915)" fill="#404cdc"/>
        <path id="Path_67103" data-name="Path 67103" d="M173,215.627a.462.462,0,0,0-.462-.462h-1.866a.462.462,0,0,0-.462.462v3.732a.462.462,0,0,0,.462.462h1.866a.462.462,0,0,0,.462-.462Zm-.924,3.27h-.942v-2.809h.942Z" transform="translate(-159.731 -201.916)" fill="#404cdc"/>
        <path id="Path_67104" data-name="Path 67104" d="M236.137,215.627a.462.462,0,0,0-.462-.462h-1.866a.462.462,0,0,0-.462.462v3.732a.462.462,0,0,0,.462.462h1.866a.462.462,0,0,0,.462-.462Zm-.924,3.27h-.942v-2.809h.942Z" transform="translate(-218.978 -201.916)" fill="#404cdc"/>
        <path id="Path_67105" data-name="Path 67105" d="M296.483,219.358a.462.462,0,0,0,.462.462h1.866a.462.462,0,0,0,.462-.462v-3.732a.462.462,0,0,0-.462-.462h-1.866a.462.462,0,0,0-.462.462Zm.924-3.27h.942V218.9h-.942Z" transform="translate(-278.227 -201.915)" fill="#404cdc"/>
        <path id="Path_67106" data-name="Path 67106" d="M362.408,215.627a.462.462,0,0,0-.462-.462H360.08a.462.462,0,0,0-.462.462v3.732a.462.462,0,0,0,.462.462h1.866a.462.462,0,0,0,.462-.462Zm-.924,3.27h-.942v-2.809h.942Z" transform="translate(-337.474 -201.916)" fill="#404cdc"/>
        <path id="Path_67107" data-name="Path 67107" d="M107.077,313.3a.462.462,0,0,0,.462.462H109.4a.462.462,0,0,0,.462-.462v-3.732a.462.462,0,0,0-.462-.462h-1.866a.462.462,0,0,0-.462.462Zm.924-3.27h.942v2.809H108Z" transform="translate(-100.484 -290.076)" fill="#404cdc"/>
        <path id="Path_67108" data-name="Path 67108" d="M173,313.3v-3.732a.462.462,0,0,0-.462-.462h-1.866a.462.462,0,0,0-.462.462V313.3a.462.462,0,0,0,.462.462h1.866A.462.462,0,0,0,173,313.3Zm-.924-.462h-.942v-2.809h.942Z" transform="translate(-159.731 -290.076)" fill="#404cdc"/>
        <path id="Path_67109" data-name="Path 67109" d="M235.675,309.11h-1.866a.462.462,0,0,0-.462.462V313.3a.462.462,0,0,0,.462.462h1.866a.462.462,0,0,0,.462-.462v-3.732A.462.462,0,0,0,235.675,309.11Zm-.462,3.732h-.942v-2.809h.942Z" transform="translate(-218.978 -290.076)" fill="#404cdc"/>
        <path id="Path_67110" data-name="Path 67110" d="M296.483,313.3a.462.462,0,0,0,.462.462h1.866a.462.462,0,0,0,.462-.462v-3.732a.462.462,0,0,0-.462-.462h-1.866a.462.462,0,0,0-.462.462Zm.924-3.27h.942v2.809h-.942Z" transform="translate(-278.227 -290.076)" fill="#404cdc"/>
        <path id="Path_67111" data-name="Path 67111" d="M362.408,309.572a.462.462,0,0,0-.462-.462H360.08a.462.462,0,0,0-.462.462V313.3a.462.462,0,0,0,.462.462h1.866a.462.462,0,0,0,.462-.462Zm-.924,3.27h-.942v-2.809h.942Z" transform="translate(-337.474 -290.076)" fill="#404cdc"/>
        <path id="Path_67112" data-name="Path 67112" d="M319.673,408.721h4.354a.462.462,0,0,0,.462-.462v-3.732a.462.462,0,0,0-.462-.462h-4.354a.462.462,0,0,0-.462.462v3.732A.462.462,0,0,0,319.673,408.721Zm.462-3.732h3.431V407.8h-3.431Z" transform="translate(-299.555 -379.184)" fill="#404cdc"/>
        <path id="Path_67113" data-name="Path 67113" d="M107.077,408.259a.462.462,0,0,0,.462.462h4.354a.462.462,0,0,0,.462-.462v-3.732a.462.462,0,0,0-.462-.462h-4.354a.462.462,0,0,0-.462.462Zm.924-3.27h3.43V407.8H108Z" transform="translate(-100.484 -379.184)" fill="#404cdc"/>
        <path id="Path_67114" data-name="Path 67114" d="M31.065,265.347h-.1v-1.4a.462.462,0,0,0-.462-.462h-.471v-4.73a1.955,1.955,0,1,0-.924,0v4.73H28.64a.462.462,0,0,0-.462.462v1.4H26.8V250.609a.462.462,0,0,0-.924,0v14.739H18.714v-5.261a.462.462,0,0,0-.462-.462H13.276a.462.462,0,0,0-.462.462v5.261H5.651v-9.812a.462.462,0,0,0-.924,0v9.812H3.35v-1.4a.462.462,0,0,0-.462-.462H2.417v-4.73a1.955,1.955,0,1,0-.924,0v4.73H1.022a.462.462,0,0,0-.462.462v1.4h-.1a.462.462,0,1,0,0,.924h30.6a.462.462,0,1,0,0-.924Zm-2.524-8.5a1.031,1.031,0,1,1,1.031,1.031A1.032,1.032,0,0,1,28.542,256.852Zm-27.618,0a1.031,1.031,0,1,1,1.031,1.031A1.032,1.032,0,0,1,.924,256.852Zm.56,8.5V264.4h.942v.942Zm12.254-4.8H15.3v4.8H13.737Zm2.488,4.8v-4.8H17.79v4.8Zm12.876,0V264.4h.942v.942Z" transform="translate(0 -234.744)" fill="#404cdc"/>
      </g>
    </g>
  </g>
</svg>
