<svg xmlns="http://www.w3.org/2000/svg" width="54" height="54" viewBox="0 0 54 54">
  <g id="Group_15795" data-name="Group 15795" transform="translate(-370 -1358)">
    <g id="Group_13696" data-name="Group 13696" transform="translate(56 -894)">
      <g id="Group_12398" data-name="Group 12398" transform="translate(0 16.199)">
        <g id="Group_7958" data-name="Group 7958" transform="translate(314 2236)">
          <circle id="Ellipse_97" data-name="Ellipse 97" cx="27" cy="27" r="27" transform="translate(0 -0.199)" fill="#f3f6ff"/>
        </g>
      </g>
    </g>
    <circle id="Ellipse_1996" data-name="Ellipse 1996" cx="2.5" cy="2.5" r="2.5" transform="translate(405 1389)" fill="#95dde6"/>
    <circle id="Ellipse_1997" data-name="Ellipse 1997" cx="2" cy="2" r="2" transform="translate(395 1396)" fill="#95dde6"/>
    <circle id="Ellipse_1998" data-name="Ellipse 1998" cx="2" cy="2" r="2" transform="translate(382 1396)" fill="#95dde6"/>
    <circle id="Ellipse_1999" data-name="Ellipse 1999" cx="1.5" cy="1.5" r="1.5" transform="translate(393 1378)" fill="#95dde6"/>
    <circle id="Ellipse_2000" data-name="Ellipse 2000" cx="1.5" cy="1.5" r="1.5" transform="translate(401 1376)" fill="#95dde6"/>
    <circle id="Ellipse_2001" data-name="Ellipse 2001" cx="2" cy="2" r="2" transform="translate(408 1375)" fill="#95dde6"/>
    <circle id="Ellipse_2002" data-name="Ellipse 2002" cx="2" cy="2" r="2" transform="translate(396 1370)" fill="#95dde6"/>
    <g id="travel" transform="translate(381.703 1369.703)">
      <path id="Path_67190" data-name="Path 67190" d="M.493,16.778h7.9a.494.494,0,0,0,.493-.493V14.311a.494.494,0,0,0-.493-.493H6.909v-1.48a.494.494,0,0,0-.493-.493H4.935V6.909h8.389A.493.493,0,0,0,13.7,6.1L11.5,3.454,13.7.809A.493.493,0,0,0,13.324,0H4.441a.494.494,0,0,0-.493.493v11.35H2.467a.494.494,0,0,0-.493.493v1.48H.493A.494.494,0,0,0,0,14.311v1.974A.494.494,0,0,0,.493,16.778ZM4.935.987H12.27L10.477,3.138a.493.493,0,0,0,0,.632L12.27,5.922H4.935ZM2.961,12.83H5.922v.987H2.961ZM.987,14.8H7.9v.987H.987Zm0,0" transform="translate(0 0)" fill="#404cdc"/>
      <path id="Path_67191" data-name="Path 67191" d="M340.607,272A5.025,5.025,0,0,0,336,277.075v.126a5.9,5.9,0,0,0,1.053,3.371l3.476,5.021a.493.493,0,0,0,.811,0l3.476-5.021a5.894,5.894,0,0,0,1.053-3.37v-.278a4.953,4.953,0,0,0-1.561-3.6,4.884,4.884,0,0,0-3.7-1.324Zm4.275,5.2a4.915,4.915,0,0,1-.877,2.809l-3.07,4.435-3.07-4.435a4.915,4.915,0,0,1-.877-2.809v-.126a4.036,4.036,0,0,1,3.684-4.091c.089-.006.178-.009.266-.009a3.947,3.947,0,0,1,3.945,3.948Zm0,0" transform="translate(-315.275 -255.21)" fill="#404cdc"/>
      <path id="Path_67192" data-name="Path 67192" d="M370.961,304a2.961,2.961,0,1,0,2.961,2.961A2.964,2.964,0,0,0,370.961,304Zm0,4.935a1.974,1.974,0,1,1,1.974-1.974A1.976,1.976,0,0,1,370.961,308.935Zm0,0" transform="translate(-345.3 -285.248)" fill="#404cdc"/>
      <path id="Path_67193" data-name="Path 67193" d="M20.726,29.115a1.482,1.482,0,0,0-1.48-1.48h-1.53a2.467,2.467,0,0,0-4.835,0H8.389V23.686H15.3a.494.494,0,0,0,.493-.493v-7.4h5.428a.494.494,0,0,0,.493-.493V11.843h6.415a.494.494,0,0,0,.493-.493V9.819a2.467,2.467,0,1,0-.987,0v1.037H21.713V9.8a1.974,1.974,0,1,0-.987,0v1.057H17.271V4.885a2.467,2.467,0,1,0-.987,0V11.35a.494.494,0,0,0,.493.493h3.948V14.8h-7.9V11.773a1.974,1.974,0,1,0-.987,0V15.3a.494.494,0,0,0,.493.493H14.8V22.7H7.9a.494.494,0,0,0-.493.493v4.441H4.885A2.475,2.475,0,0,0,2.961,25.71V21.219a.494.494,0,0,1,.493-.493,1.482,1.482,0,0,0,1.48-1.48v-1.48H3.948v1.48a.494.494,0,0,1-.493.493,1.482,1.482,0,0,0-1.48,1.48V25.71a2.467,2.467,0,1,0,2.911,2.911H7.4V30.6h.987V28.621H12.88a2.467,2.467,0,0,0,4.835,0h1.53a.494.494,0,0,1,.493.493,1.482,1.482,0,0,0,1.48,1.48h2.467v-.987H21.219a.494.494,0,0,1-.493-.493ZM26.647,7.4a1.48,1.48,0,1,1,1.48,1.48A1.482,1.482,0,0,1,26.647,7.4ZM20.232,7.9a.987.987,0,1,1,.987.987A.988.988,0,0,1,20.232,7.9ZM15.3,2.467a1.48,1.48,0,1,1,1.48,1.48A1.482,1.482,0,0,1,15.3,2.467Zm-3.948,7.4a.987.987,0,1,1,.987.987A.988.988,0,0,1,11.35,9.869ZM2.467,29.608a1.48,1.48,0,1,1,1.48-1.48A1.482,1.482,0,0,1,2.467,29.608Zm12.83,0a1.48,1.48,0,1,1,1.48-1.48A1.482,1.482,0,0,1,15.3,29.608Zm0,0" fill="#404cdc"/>
    </g>
  </g>
</svg>
