<svg xmlns="http://www.w3.org/2000/svg" width="54" height="54" viewBox="0 0 54 54">
  <g id="Group_15792" data-name="Group 15792" transform="translate(-829 -1152)">
    <g id="Group_12408" data-name="Group 12408" transform="translate(-6223 -2038)">
      <circle id="Ellipse_490" data-name="Ellipse 490" cx="27" cy="27" r="27" transform="translate(7052 3190)" fill="#f3f6ff"/>
    </g>
    <path id="Path_67132" data-name="Path 67132" d="M7,0a6.213,6.213,0,0,1,6.357,6.5c0,.406-.048.2-.726.309-1.159.259-4.51-1.1-5.97,0a3.644,3.644,0,0,0-1.116,3.627c.313,1.11-.5,1.674-1.116,2.567C1.472,12.221,0,10.09,0,6.5A6.764,6.764,0,0,1,7,0Z" transform="translate(845 1164)" fill="#95dde6"/>
    <g id="cocktail" transform="translate(768.076 1163.041)">
      <g id="Group_14337" data-name="Group 14337" transform="translate(87.891 22.921)">
        <g id="Group_14336" data-name="Group 14336" transform="translate(0)">
          <path id="Path_67129" data-name="Path 67129" d="M256.162,346a.662.662,0,1,0,.662.662A.663.663,0,0,0,256.162,346Z" transform="translate(-255.5 -346)" fill="#404cdc"/>
        </g>
      </g>
      <g id="Group_14339" data-name="Group 14339" transform="translate(82.591 17.621)">
        <g id="Group_14338" data-name="Group 14338" transform="translate(0)">
          <path id="Path_67130" data-name="Path 67130" d="M179.218,270.719a4.646,4.646,0,0,1-2.393-4.057.662.662,0,1,0-1.325,0,5.972,5.972,0,0,0,3.075,5.215.662.662,0,0,0,.643-1.158Z" transform="translate(-175.5 -266)" fill="#404cdc"/>
        </g>
      </g>
      <g id="Group_14341" data-name="Group 14341" transform="translate(76)">
        <g id="Group_14340" data-name="Group 14340" transform="translate(0)">
          <path id="Path_67131" data-name="Path 67131" d="M99.186,0H92.562a.662.662,0,0,0-.654.554L90.9,6.625H90.55a7.134,7.134,0,0,0-2.058-4.472A7.271,7.271,0,0,0,83.336,0h-.049a7.193,7.193,0,0,0-5.174,2.189A7.343,7.343,0,0,0,76,7.275s0,0,0,0,0,0,0,.007,0,0,0,.005c0,.02,0,.041,0,.061a7.239,7.239,0,0,0,2.134,5.153h0a7.328,7.328,0,0,0,2.386,1.59c-.1.359-.19.71-.263,1.063a15.019,15.019,0,0,0-.315,3c0,.042,0,.085,0,.127a8.62,8.62,0,0,0,6.625,8.382v5.927H81.929a.662.662,0,1,0,0,1.325H95.178a.662.662,0,0,0,0-1.325H90.541V26.664a8.627,8.627,0,0,0,6.625-8.38v-.05a19.219,19.219,0,0,0-.237-2.853.647.647,0,0,0-.06-.362,14.293,14.293,0,0,0-.441-1.833l-1.942-6.1a.662.662,0,0,0-.631-.461h-1.61l.879-5.3h6.063a.662.662,0,0,0,0-1.325ZM89.219,6.625H84.977l3.016-3.037A5.811,5.811,0,0,1,89.219,6.625ZM83.983,1.365a5.934,5.934,0,0,1,3.078,1.28l-3.078,3.1ZM83.747,7.95h6.934l-1.11,6.691H81.744c.06-.221.125-.444.2-.673l0-.012ZM82.658,1.359V5.787L79.544,2.673A5.854,5.854,0,0,1,82.658,1.359Zm-4.04,2.262,3,3H77.37A6.008,6.008,0,0,1,78.618,3.621ZM77.354,7.95h4.425a.662.662,0,0,0-.12.095l-3.029,3.03A5.9,5.9,0,0,1,77.354,7.95Zm2.212,4.062,2.256-2.256L80.9,12.819A6,6,0,0,1,79.566,12.011Zm9.65,20.582H87.891V26.9h1.325Zm6.625-14.358v.048h0a7.287,7.287,0,0,1-14.574,0c0-.035,0-.07,0-.111a13.9,13.9,0,0,1,.188-2.207h14.22A17.611,17.611,0,0,1,95.841,18.236ZM93.369,7.95l1.8,5.637c.1.318.2.675.279,1.053H90.914l1.11-6.691Z" transform="translate(-76)" fill="#404cdc"/>
        </g>
      </g>
    </g>
  </g>
</svg>
