<svg xmlns="http://www.w3.org/2000/svg" width="50.616" height="50.43" viewBox="0 0 50.616 50.43">
  <g id="Group_15793" data-name="Group 15793" transform="translate(-1061.691 -1152.518)">
    <ellipse id="Ellipse_1724" data-name="Ellipse 1724" cx="25.308" cy="25.215" rx="25.308" ry="25.215" transform="translate(1061.691 1152.518)" fill="#f3f6ff"/>
    <path id="Path_67153" data-name="Path 67153" d="M-7522.312,6074.354v-6.538l-1.387-.429-1.057-1.486.264-5.811,1.491-1.486h5.179l1.255.891.561,1.255v4.985l-.858,1.453-1.156.627-.4.562v1.057l.958.627-1.156.727,1.156,1.123-1.156.858.2,1.585-1.089.858-.693.627-1.09-.429Z" transform="translate(8608 -4895)" fill="#95dde6"/>
    <g id="key" transform="translate(1045.666 1163.039)">
      <path id="Path_67133" data-name="Path 67133" d="M197.321,7.447V2.792A2.8,2.8,0,0,0,194.529,0h-3.723a2.8,2.8,0,0,0-2.792,2.792V7.447A2.8,2.8,0,0,0,190.34,10.2v6.09a.465.465,0,0,0,.136.329l1.862,1.862a.465.465,0,0,0,.658,0l1.862-1.862a.465.465,0,0,0,.136-.329v-1.2l.795-.794a.465.465,0,0,0,0-.658l-.6-.6.6-.6a.465.465,0,0,0,0-.658l-.795-.794V10.2a2.8,2.8,0,0,0,2.327-2.753ZM194.2,13.361l.6.6-.6.6a.465.465,0,0,0-.136.329v1.2l-.931.931V11.17H192.2v5.858l-.931-.931V10.239h2.792v.931a.465.465,0,0,0,.136.329l.6.6-.6.6a.465.465,0,0,0,0,.658Zm.329-4.052h-3.723a1.864,1.864,0,0,1-1.862-1.862V2.792A1.864,1.864,0,0,1,190.805.931h3.723a1.864,1.864,0,0,1,1.862,1.862V7.447A1.864,1.864,0,0,1,194.529,9.308Z" transform="translate(-150.692)" fill="#404cdc"/>
      <path id="Path_67134" data-name="Path 67134" d="M224.2,32h-2.792a1.4,1.4,0,0,0-1.4,1.4v.931a.465.465,0,0,0,.465.465h4.654a.465.465,0,0,0,.465-.465V33.4A1.4,1.4,0,0,0,224.2,32Zm.465,1.862h-3.723V33.4a.466.466,0,0,1,.465-.465H224.2a.466.466,0,0,1,.465.465Z" transform="translate(-180.83 -30.138)" fill="#404cdc"/>
      <path id="Path_67135" data-name="Path 67135" d="M225.133,96h-4.654a.465.465,0,0,0-.465.465V97.4a1.4,1.4,0,0,0,1.4,1.4H224.2a1.4,1.4,0,0,0,1.4-1.4v-.931A.465.465,0,0,0,225.133,96Zm-.465,1.4a.466.466,0,0,1-.465.465h-2.792a.466.466,0,0,1-.465-.465v-.465h3.723Z" transform="translate(-180.83 -90.415)" fill="#404cdc"/>
      <path id="Path_67136" data-name="Path 67136" d="M51.144,329.4a1.533,1.533,0,0,0-1.167.538,1.535,1.535,0,0,0-2.332,0,1.53,1.53,0,0,0-2-.285,1.4,1.4,0,0,0-.795-.251H42.292a3.6,3.6,0,0,0-2.849-1.4H38.61a3.59,3.59,0,0,0-2.445.96.463.463,0,0,0-.162-.029H32.746a.465.465,0,0,0-.465-.465h-3.8a.465.465,0,0,0-.465.465v7.447a.465.465,0,0,0,.465.465H36a.465.465,0,0,0,.465-.465v-.394l5.985.855a.469.469,0,0,0,.124,0l6.548-.819a2.3,2.3,0,0,0,1.706-1.106l.935-1.554a.481.481,0,0,0,.029-.057l.758-1.768a1.534,1.534,0,0,0-1.41-2.139Zm-19.329,6.516H28.944V329.4h2.871Zm3.723,0H32.746v-6.05h2.792Zm12.354-4.37c.006-.014.013-.029.019-.047l.344-.8a.6.6,0,0,1,1.11.476l-.637,1.485H47.415Zm-1.649.647v-1.4a1.388,1.388,0,0,0-.055-.388.6.6,0,0,1,.792.188.588.588,0,0,1,.064.554c0,.012-.008.023-.012.035l-.631,1.472h-.623A.465.465,0,0,0,46.243,332.189Zm5.455-1.021-.746,1.739-.919,1.527a1.379,1.379,0,0,1-1.022.662l-6.487.811-6.054-.865v-5.034a2.665,2.665,0,0,1,2.141-1.078h.833a2.671,2.671,0,0,1,2.224,1.19.465.465,0,0,0,.387.207h2.792a.466.466,0,0,1,.391.215.461.461,0,0,1,.075.25v.931h-5.2v.931h3.961l-.121.282a.465.465,0,0,0,.428.649H49.04a.465.465,0,0,0,.428-.282l1.122-2.611a.6.6,0,0,1,1.109.476Z" transform="translate(0 -308.918)" fill="#404cdc"/>
      <path id="Path_67137" data-name="Path 67137" d="M380.013,256h.931v.931h-.931Z" transform="translate(-331.522 -241.107)" fill="#404cdc"/>
      <path id="Path_67138" data-name="Path 67138" d="M356.013,280h.931v.931h-.931Z" transform="translate(-308.918 -263.711)" fill="#404cdc"/>
      <path id="Path_67139" data-name="Path 67139" d="M404.013,280h.931v.931h-.931Z" transform="translate(-354.126 -263.711)" fill="#404cdc"/>
      <path id="Path_67140" data-name="Path 67140" d="M380.013,304h.931v.931h-.931Z" transform="translate(-331.522 -286.314)" fill="#404cdc"/>
      <path id="Path_67141" data-name="Path 67141" d="M116.013,40h.931v.931h-.931Z" transform="translate(-82.88 -37.673)" fill="#404cdc"/>
      <path id="Path_67142" data-name="Path 67142" d="M92.013,64h.931v.931h-.931Z" transform="translate(-60.277 -60.277)" fill="#404cdc"/>
      <path id="Path_67143" data-name="Path 67143" d="M140.013,64h.931v.931h-.931Z" transform="translate(-105.484 -60.277)" fill="#404cdc"/>
      <path id="Path_67144" data-name="Path 67144" d="M116.013,88h.931v.931h-.931Z" transform="translate(-82.88 -82.88)" fill="#404cdc"/>
      <path id="Path_67145" data-name="Path 67145" d="M396.013,72h.931v.931h-.931Z" transform="translate(-346.591 -67.811)" fill="#404cdc"/>
      <path id="Path_67146" data-name="Path 67146" d="M380.013,88h.931v.931h-.931Z" transform="translate(-331.522 -82.88)" fill="#404cdc"/>
      <path id="Path_67147" data-name="Path 67147" d="M412.013,88h.931v.931h-.931Z" transform="translate(-361.66 -82.88)" fill="#404cdc"/>
      <path id="Path_67148" data-name="Path 67148" d="M396.013,104h.931v.931h-.931Z" transform="translate(-346.591 -97.95)" fill="#404cdc"/>
      <path id="Path_67149" data-name="Path 67149" d="M148.013,216h.931v.931h-.931Z" transform="translate(-113.019 -203.434)" fill="#404cdc"/>
      <path id="Path_67150" data-name="Path 67150" d="M132.013,232h.931v.931h-.931Z" transform="translate(-97.95 -218.503)" fill="#404cdc"/>
      <path id="Path_67151" data-name="Path 67151" d="M164.013,232h.931v.931h-.931Z" transform="translate(-128.088 -218.503)" fill="#404cdc"/>
      <path id="Path_67152" data-name="Path 67152" d="M148.013,248h.931v.931h-.931Z" transform="translate(-113.019 -233.572)" fill="#404cdc"/>
    </g>
  </g>
</svg>
