<svg xmlns="http://www.w3.org/2000/svg" width="54" height="54" viewBox="0 0 54 54">
  <g id="Group_15799" data-name="Group 15799" transform="translate(-1520 -1358)">
    <g id="Group_13692" data-name="Group 13692" transform="translate(1206 -894)">
      <g id="Group_12398" data-name="Group 12398" transform="translate(0 16.199)">
        <g id="Group_7958" data-name="Group 7958" transform="translate(314 2236)">
          <circle id="Ellipse_97" data-name="Ellipse 97" cx="27" cy="27" r="27" transform="translate(0 -0.199)" fill="#f3f6ff"/>
        </g>
      </g>
    </g>
    <path id="Path_67215" data-name="Path 67215" d="M-7061,6284.708l6.55,8.983,1,1.06,1.451-.39.391-1.116-2.846-16.293Z" transform="translate(8608 -4895)" fill="#95dde6"/>
    <path id="Path_67216" data-name="Path 67216" d="M-7065.888,6280l-9.876-7.289.391-1.674h1.06l15.958,2.232-6.975,7.143h-.558Z" transform="translate(8608 -4895)" fill="#95dde6"/>
    <g id="air-freight" transform="translate(1531.534 1371.03)">
      <path id="Path_67211" data-name="Path 67211" d="M238.452,254.374a.565.565,0,1,0,.8,0A.565.565,0,0,0,238.452,254.374Zm0,0" transform="translate(-224.821 -239.37)" fill="#404cdc"/>
      <path id="Path_67212" data-name="Path 67212" d="M22.617,2.154A64.5,64.5,0,0,0,17.944,6.7L15.882,6.36l.946-.946a1.7,1.7,0,0,0-2.4-2.4L11.758,5.689,2.412,4.167A1.907,1.907,0,0,0,.988,7.593L10.3,14.338,8.558,16.082a14.18,14.18,0,0,0-1.873,2.446L2.341,17.251A1.827,1.827,0,0,0,.787,20.5L4.347,22.97c-.62,1.368-1,2.357-1.014,2.4a.565.565,0,0,0,.729.729c.046-.017,1.035-.394,2.4-1.014L8.93,28.648a1.827,1.827,0,0,0,3.254-1.555L10.907,22.75a14.19,14.19,0,0,0,2.446-1.873L15.1,19.133l6.745,9.314a1.907,1.907,0,0,0,3.426-1.425l-1.522-9.345L26.418,15a1.7,1.7,0,0,0-2.4-2.4l-.946.946-.336-2.062A64.52,64.52,0,0,0,27.278,6.82l0,0c1.743-2.259,2.151-4.54,1.014-5.677S24.877.41,22.617,2.154ZM15.23,3.816a.565.565,0,0,1,.8.8L14.507,6.136l-1.375-.224ZM1.65,6.678a.777.777,0,0,1,.58-1.4l14.728,2.4-5.848,5.848ZM1.334,18.511a.7.7,0,0,1,.689-.176L6.085,19.53c-.415.728-.835,1.531-1.253,2.4l-3.4-2.355a.7.7,0,0,1-.1-1.065Zm9.591,9.59A.7.7,0,0,1,9.859,28L7.5,24.6c.871-.419,1.675-.838,2.4-1.253L11.1,27.412a.7.7,0,0,1-.175.689Zm13.9-14.7a.565.565,0,1,1,.8.8l-2.1,2.1L23.3,14.927Zm-.668,13.8a.777.777,0,0,1-1.4.581l-6.851-9.46,5.848-5.848Zm-11.6-7.126a14.232,14.232,0,0,1-2.705,2,41.873,41.873,0,0,1-4.957,2.47A41.337,41.337,0,0,1,7.415,19.5a13.99,13.99,0,0,1,1.941-2.614C23.161,3.11,22.343,3.82,23.181,3.15a2.935,2.935,0,0,1,2.317.786,2.935,2.935,0,0,1,.786,2.317c-.672.84.03.03-13.731,13.824Zm14.7-15.309a3.73,3.73,0,0,0-2.585-2.585c.818-.415,2.2-.879,2.83-.245.5.5.377,1.6-.245,2.83Zm0,0" transform="translate(0 0)" fill="#404cdc"/>
      <path id="Path_67213" data-name="Path 67213" d="M268.342,197.806l-1.6,1.6a.565.565,0,1,0,.8.8l1.6-1.6a.565.565,0,0,0-.8-.8Zm0,0" transform="translate(-251.514 -185.998)" fill="#404cdc"/>
      <path id="Path_67214" data-name="Path 67214" d="M324.9,141.236l-1.6,1.6a.565.565,0,0,0,.8.8l1.6-1.6a.565.565,0,0,0-.8-.8Zm0,0" transform="translate(-304.879 -132.625)" fill="#404cdc"/>
    </g>
  </g>
</svg>
