<svg xmlns="http://www.w3.org/2000/svg" width="54" height="54" viewBox="0 0 54 54">
  <g id="Group_15794" data-name="Group 15794" transform="translate(-1520 -1152)">
    <g id="Group_12404" data-name="Group 12404" transform="translate(1206 -1100)">
      <g id="Group_12398" data-name="Group 12398" transform="translate(0 16.199)">
        <g id="Group_7958" data-name="Group 7958" transform="translate(314 2236)">
          <circle id="Ellipse_97" data-name="Ellipse 97" cx="27" cy="27" r="27" transform="translate(0 -0.199)" fill="#f3f6ff"/>
        </g>
      </g>
    </g>
    <path id="Path_67189" data-name="Path 67189" d="M-7073.735,6064.772l-.528.924v15.947l.528,1.783.562.528-.892.693.33,1.354,1.156.33.958-.792v-1.222l-.132-.528,4.688.165,4.722-.165-.231-4.061,1.189-.924.264-.892-1.453-1.156.231-6.636h1.717l.2-2.344.627-1.188.33-.727v-.892l-2.575-.924-9.575.33Z" transform="translate(8608 -4895)" fill="#95dde6"/>
    <g id="suitcase" transform="translate(1533.206 1162.206)">
      <g id="Group_14385" data-name="Group 14385" transform="translate(0 6.411)">
        <g id="Group_14384" data-name="Group 14384">
          <path id="Path_67174" data-name="Path 67174" d="M13.315,110.933H2.466A2.469,2.469,0,0,0,0,113.4v15.781a2.469,2.469,0,0,0,2.466,2.466H8.877v-.986H2.466a1.481,1.481,0,0,1-1.479-1.479V113.4a1.481,1.481,0,0,1,1.479-1.479H13.315a1.481,1.481,0,0,1,1.479,1.479v.493h.986V113.4A2.469,2.469,0,0,0,13.315,110.933Z" transform="translate(0 -110.933)" fill="#404cdc"/>
        </g>
      </g>
      <g id="Group_14387" data-name="Group 14387" transform="translate(3.452)">
        <g id="Group_14386" data-name="Group 14386">
          <path id="Path_67175" data-name="Path 67175" d="M67.13,0H61.212a1.479,1.479,0,1,0,0,2.959H67.13A1.479,1.479,0,1,0,67.13,0Zm0,1.973H61.212a.493.493,0,0,1,0-.986H67.13a.493.493,0,0,1,0,.986Z" transform="translate(-59.733)" fill="#404cdc"/>
        </g>
      </g>
      <g id="Group_14389" data-name="Group 14389" transform="translate(5.425 2.466)">
        <g id="Group_14388" data-name="Group 14388">
          <rect id="Rectangle_3992" data-name="Rectangle 3992" width="0.986" height="4.438" fill="#404cdc"/>
        </g>
      </g>
      <g id="Group_14391" data-name="Group 14391" transform="translate(9.37 2.466)">
        <g id="Group_14390" data-name="Group 14390">
          <rect id="Rectangle_3993" data-name="Rectangle 3993" width="0.986" height="4.438" fill="#404cdc"/>
        </g>
      </g>
      <g id="Group_14393" data-name="Group 14393" transform="translate(2.959 14.794)">
        <g id="Group_14392" data-name="Group 14392">
          <rect id="Rectangle_3994" data-name="Rectangle 3994" width="0.986" height="8.877" fill="#404cdc"/>
        </g>
      </g>
      <g id="Group_14395" data-name="Group 14395" transform="translate(8.877 9.37)">
        <g id="Group_14394" data-name="Group 14394">
          <rect id="Rectangle_3995" data-name="Rectangle 3995" width="0.986" height="3.945" fill="#404cdc"/>
        </g>
      </g>
      <g id="Group_14397" data-name="Group 14397" transform="translate(0.493 26.137)">
        <g id="Group_14396" data-name="Group 14396">
          <path id="Path_67176" data-name="Path 67176" d="M10.259,452.267a1.726,1.726,0,1,0,1.726,1.726A1.728,1.728,0,0,0,10.259,452.267Zm0,2.466a.74.74,0,1,1,.74-.74A.741.741,0,0,1,10.259,454.733Z" transform="translate(-8.533 -452.267)" fill="#404cdc"/>
        </g>
      </g>
      <g id="Group_14399" data-name="Group 14399" transform="translate(5.918 9.37)">
        <g id="Group_14398" data-name="Group 14398">
          <rect id="Rectangle_3996" data-name="Rectangle 3996" width="0.986" height="14.301" fill="#404cdc"/>
        </g>
      </g>
      <g id="Group_14401" data-name="Group 14401" transform="translate(0 10.849)">
        <g id="Group_14400" data-name="Group 14400">
          <path id="Path_67177" data-name="Path 67177" d="M5.39,190.5,4.4,188.035a.493.493,0,0,0-.269-.272.487.487,0,0,0-.383,0L.3,189.245a.492.492,0,0,0-.3.453v2.959a.493.493,0,0,0,.493.493.487.487,0,0,0,.2-.043l4.438-1.973A.493.493,0,0,0,5.39,190.5Zm-4.4,1.4v-1.875l2.689-1.152.622,1.555Z" transform="translate(0 -187.725)" fill="#404cdc"/>
        </g>
      </g>
      <g id="Group_14403" data-name="Group 14403" transform="translate(2.959 9.37)">
        <g id="Group_14402" data-name="Group 14402">
          <rect id="Rectangle_3997" data-name="Rectangle 3997" width="0.986" height="2.466" fill="#404cdc"/>
        </g>
      </g>
      <g id="Group_14405" data-name="Group 14405" transform="translate(11.836 9.37)">
        <g id="Group_14404" data-name="Group 14404">
          <rect id="Rectangle_3998" data-name="Rectangle 3998" width="0.986" height="3.945" fill="#404cdc"/>
        </g>
      </g>
      <g id="Group_14407" data-name="Group 14407" transform="translate(11.836 26.137)">
        <g id="Group_14406" data-name="Group 14406">
          <path id="Path_67178" data-name="Path 67178" d="M206.526,452.267a1.726,1.726,0,1,0,1.726,1.726A1.728,1.728,0,0,0,206.526,452.267Zm0,2.466a.74.74,0,1,1,.74-.74A.741.741,0,0,1,206.526,454.733Z" transform="translate(-204.8 -452.267)" fill="#404cdc"/>
        </g>
      </g>
      <g id="Group_14409" data-name="Group 14409" transform="translate(7.397 12.329)">
        <g id="Group_14408" data-name="Group 14408">
          <path id="Path_67179" data-name="Path 67179" d="M147.726,213.333h-17.26A2.469,2.469,0,0,0,128,215.8v9.863a2.469,2.469,0,0,0,2.466,2.466h17.26a2.469,2.469,0,0,0,2.466-2.466V215.8A2.469,2.469,0,0,0,147.726,213.333Zm1.479,12.329a1.481,1.481,0,0,1-1.479,1.479h-17.26a1.481,1.481,0,0,1-1.479-1.479V215.8a1.481,1.481,0,0,1,1.479-1.479h17.26a1.481,1.481,0,0,1,1.479,1.479v9.863Z" transform="translate(-128 -213.333)" fill="#404cdc"/>
        </g>
      </g>
      <g id="Group_14411" data-name="Group 14411" transform="translate(15.781 10.356)">
        <g id="Group_14410" data-name="Group 14410">
          <path id="Path_67180" data-name="Path 67180" d="M278,179.2H273.56a.493.493,0,0,0-.493.493v1.973h.986v-1.479h3.452v1.479h.986v-1.973A.493.493,0,0,0,278,179.2Z" transform="translate(-273.067 -179.2)" fill="#404cdc"/>
        </g>
      </g>
      <g id="Group_14413" data-name="Group 14413" transform="translate(13.808 8.384)">
        <g id="Group_14412" data-name="Group 14412">
          <path id="Path_67181" data-name="Path 67181" d="M245.837,145.067H241.4a2.469,2.469,0,0,0-2.466,2.466v1.973h.986v-1.973a1.481,1.481,0,0,1,1.479-1.479h4.438a1.481,1.481,0,0,1,1.479,1.479v1.973h.986v-1.973A2.469,2.469,0,0,0,245.837,145.067Z" transform="translate(-238.933 -145.067)" fill="#404cdc"/>
        </g>
      </g>
      <g id="Group_14415" data-name="Group 14415" transform="translate(14.794 14.313)">
        <g id="Group_14414" data-name="Group 14414">
          <path id="Path_67182" data-name="Path 67182" d="M261.82,251.322l-2.466-3.452a.511.511,0,0,0-.8,0l-2.466,3.452a.493.493,0,0,0,.4.78h4.931a.493.493,0,0,0,.4-.78Zm-4.374-.207,1.508-2.11,1.507,2.11Z" transform="translate(-255.994 -247.675)" fill="#404cdc"/>
        </g>
      </g>
      <g id="Group_14417" data-name="Group 14417" transform="translate(21.748 19.221)">
        <g id="Group_14416" data-name="Group 14416">
          <path id="Path_67183" data-name="Path 67183" d="M380,332.769a2.748,2.748,0,0,0-3.575,1.426,2.267,2.267,0,0,0,.31,1.973,3.285,3.285,0,0,0,1.736,1.288,3.471,3.471,0,0,0,1.074.173,2.526,2.526,0,0,0,2.5-1.6A2.748,2.748,0,0,0,380,332.769Zm1.109,2.955a1.781,1.781,0,0,1-2.332.794,2.3,2.3,0,0,1-1.218-.892,1.3,1.3,0,0,1-.2-1.125h0a1.537,1.537,0,0,1,1.549-.921,2.522,2.522,0,0,1,.782.127A1.782,1.782,0,0,1,381.112,335.724Z" transform="translate(-376.324 -332.596)" fill="#404cdc"/>
        </g>
      </g>
      <g id="Group_14419" data-name="Group 14419" transform="translate(7.89 26.137)">
        <g id="Group_14418" data-name="Group 14418">
          <path id="Path_67184" data-name="Path 67184" d="M138.259,452.267a1.726,1.726,0,1,0,1.726,1.726A1.728,1.728,0,0,0,138.259,452.267Zm0,2.466a.74.74,0,1,1,.74-.74A.741.741,0,0,1,138.259,454.733Z" transform="translate(-136.533 -452.267)" fill="#404cdc"/>
        </g>
      </g>
      <g id="Group_14421" data-name="Group 14421" transform="translate(25.644 26.137)">
        <g id="Group_14420" data-name="Group 14420">
          <path id="Path_67185" data-name="Path 67185" d="M445.459,452.267a1.726,1.726,0,1,0,1.726,1.726A1.728,1.728,0,0,0,445.459,452.267Zm0,2.466a.74.74,0,1,1,.74-.74A.741.741,0,0,1,445.459,454.733Z" transform="translate(-443.733 -452.267)" fill="#404cdc"/>
        </g>
      </g>
      <g id="Group_14423" data-name="Group 14423" transform="translate(11.836 22.685)">
        <g id="Group_14422" data-name="Group 14422">
          <rect id="Rectangle_3999" data-name="Rectangle 3999" width="0.986" height="3.945" fill="#404cdc"/>
        </g>
      </g>
      <g id="Group_14425" data-name="Group 14425" transform="translate(9.863 12.329)">
        <g id="Group_14424" data-name="Group 14424">
          <path id="Path_67186" data-name="Path 67186" d="M173.133,213.333H171.16a.493.493,0,0,0-.493.493v5.918h.986v-5.425h.986v6.411h.986v-6.9A.493.493,0,0,0,173.133,213.333Z" transform="translate(-170.667 -213.333)" fill="#404cdc"/>
        </g>
      </g>
      <g id="Group_14427" data-name="Group 14427" transform="translate(9.863 21.205)">
        <g id="Group_14426" data-name="Group 14426">
          <rect id="Rectangle_4000" data-name="Rectangle 4000" width="0.986" height="5.425" fill="#404cdc"/>
        </g>
      </g>
      <g id="Group_14429" data-name="Group 14429" transform="translate(26.137 23.178)">
        <g id="Group_14428" data-name="Group 14428">
          <rect id="Rectangle_4001" data-name="Rectangle 4001" width="0.986" height="3.452" fill="#404cdc"/>
        </g>
      </g>
      <g id="Group_14431" data-name="Group 14431" transform="translate(24.164 12.329)">
        <g id="Group_14430" data-name="Group 14430">
          <path id="Path_67187" data-name="Path 67187" d="M420.6,213.333h-1.973a.493.493,0,0,0-.493.493v6.9h.986v-6.411h.986v7.4h.986v-7.89A.493.493,0,0,0,420.6,213.333Z" transform="translate(-418.134 -213.333)" fill="#404cdc"/>
        </g>
      </g>
      <g id="Group_14433" data-name="Group 14433" transform="translate(24.164 23.671)">
        <g id="Group_14432" data-name="Group 14432">
          <rect id="Rectangle_4002" data-name="Rectangle 4002" width="0.986" height="2.959" fill="#404cdc"/>
        </g>
      </g>
      <g id="Group_14435" data-name="Group 14435" transform="translate(7.636 16.834)">
        <g id="Group_14434" data-name="Group 14434">
          <path id="Path_67188" data-name="Path 67188" d="M138.558,294.738l-5.918-3.452-.5.853,5.518,3.219-.542,1.082-4.475-2.685-.507.846,4.931,2.959a.5.5,0,0,0,.254.071.494.494,0,0,0,.441-.273l.986-1.973A.494.494,0,0,0,138.558,294.738Z" transform="translate(-132.138 -291.286)" fill="#404cdc"/>
        </g>
      </g>
    </g>
  </g>
</svg>
