<svg xmlns="http://www.w3.org/2000/svg" width="54" height="54" viewBox="0 0 54 54">
  <g id="Group_15791" data-name="Group 15791" transform="translate(-600 -1152)">
    <g id="Group_12407" data-name="Group 12407" transform="translate(37 -1084)">
      <g id="Group_9787" data-name="Group 9787" transform="translate(563 2236)">
        <g id="Group_7959" data-name="Group 7959" transform="translate(0 0)">
          <circle id="Ellipse_98" data-name="Ellipse 98" cx="27" cy="27" r="27" transform="translate(0 0)" fill="#f3f6ff"/>
        </g>
      </g>
    </g>
    <circle id="Ellipse_1993" data-name="Ellipse 1993" cx="5" cy="5" r="5" transform="translate(613 1165)" fill="#95dde6"/>
    <g id="resort" transform="translate(612.306 1164.543)">
      <g id="Group_14335" data-name="Group 14335" transform="translate(0)">
        <g id="Group_14334" data-name="Group 14334">
          <path id="Path_67115" data-name="Path 67115" d="M.46,286.564a1.075,1.075,0,0,1,1.074,1.074.46.46,0,1,0,.921,0,1.075,1.075,0,0,1,1.074-1.074.46.46,0,0,0,0-.921,1.991,1.991,0,0,0-1.534.721,1.992,1.992,0,0,0-1.534-.721.46.46,0,0,0,0,.921Z" transform="translate(0 -269.38)" fill="#404cdc"/>
          <path id="Path_67116" data-name="Path 67116" d="M5.677,97.759A5.64,5.64,0,0,0,9.691,96.1a.46.46,0,0,0-.651-.651A4.756,4.756,0,0,1,.921,92.082a.46.46,0,0,0-.921,0A5.683,5.683,0,0,0,5.677,97.759Z" transform="translate(0 -86.405)" fill="#404cdc"/>
          <path id="Path_67117" data-name="Path 67117" d="M47.105,417.247a.46.46,0,0,0-.46-.46H43.576a.46.46,0,1,0,0,.921h3.069A.46.46,0,0,0,47.105,417.247Z" transform="translate(-40.661 -393.057)" fill="#404cdc"/>
          <path id="Path_67118" data-name="Path 67118" d="M4.08,4.636a.46.46,0,0,0,.572-.311,4.758,4.758,0,0,1,9.122,0,.46.46,0,0,0,.883-.262A5.72,5.72,0,0,0,12.64,1.15a5.678,5.678,0,0,0-6.854,0A5.72,5.72,0,0,0,3.769,4.064.46.46,0,0,0,4.08,4.636Z" transform="translate(-3.536)" fill="#404cdc"/>
          <path id="Path_67119" data-name="Path 67119" d="M83.637,495.832H76.272a.46.46,0,1,0,0,.921h7.364a.46.46,0,1,0,0-.921Z" transform="translate(-71.496 -467.602)" fill="#404cdc"/>
          <path id="Path_67120" data-name="Path 67120" d="M43.116,46.338a3.222,3.222,0,1,0,3.222-3.222A3.226,3.226,0,0,0,43.116,46.338Zm5.523,0a2.3,2.3,0,1,1-2.3-2.3A2.3,2.3,0,0,1,48.639,46.338Z" transform="translate(-40.661 -40.661)" fill="#404cdc"/>
          <path id="Path_67121" data-name="Path 67121" d="M334.608,172.463a.46.46,0,1,0,0,.921h3.069a.46.46,0,1,0,0-.921Z" transform="translate(-315.123 -162.644)" fill="#404cdc"/>
          <path id="Path_67122" data-name="Path 67122" d="M248.376,172.463a.46.46,0,0,0,0,.921h3.069a.46.46,0,0,0,0-.921Z" transform="translate(-233.801 -162.644)" fill="#404cdc"/>
          <path id="Path_67123" data-name="Path 67123" d="M377.723,70.985h2.455a.46.46,0,1,0,0-.921h-2.455a.46.46,0,0,0,0,.921Z" transform="translate(-355.783 -66.075)" fill="#404cdc"/>
          <path id="Path_67124" data-name="Path 67124" d="M143.31,417.707a.46.46,0,1,0,0-.921h-13.5a.46.46,0,1,0,0,.921Z" transform="translate(-121.984 -393.057)" fill="#404cdc"/>
          <path id="Path_67125" data-name="Path 67125" d="M26.849,9.881a.46.46,0,0,0,.46-.46V8.9h.153a1.688,1.688,0,1,0,0-3.375H27.31V3.375h.153a1.688,1.688,0,1,0,0-3.375H18.871a1.688,1.688,0,1,0,0,3.375h.153V5.523H11.507a1.688,1.688,0,0,0,0,3.375h.153v3.375H6.6a1.688,1.688,0,1,0,0,3.375h.153v3.375H6.6a2.92,2.92,0,0,0-2.879,2.455H.46a.46.46,0,0,0,0,.921H11.507a.46.46,0,1,0,0-.921H4.656A2,2,0,0,1,6.6,19.945h6.94a2.908,2.908,0,0,0,.755,1.534h-.944a.46.46,0,1,0,0,.921H26.236a2.918,2.918,0,0,0,2.915-2.915V13.553a3.12,3.12,0,0,0-6.139-.785,3.121,3.121,0,0,0-4.705,1.841,3.12,3.12,0,0,0-4.8,2.626v1.79H7.671V15.649h5.2a.46.46,0,1,0,0-.921H6.6a.767.767,0,1,1,0-1.534h11.66a.46.46,0,0,0,0-.921H12.581V8.9H22.722a.46.46,0,1,0,0-.921H11.507a.767.767,0,1,1,0-1.534H27.463a.767.767,0,0,1,0,1.534H24.395a.46.46,0,1,0,0,.921h1.995V9.42A.46.46,0,0,0,26.849,9.881ZM14.422,17.235a2.2,2.2,0,0,1,3.891-1.4.46.46,0,0,0,.814-.294v-.142a2.2,2.2,0,0,1,3.891-1.4.46.46,0,0,0,.814-.294v-.142a2.2,2.2,0,0,1,4.4,0v1.472a3.118,3.118,0,0,0-5.219,1.426,3.121,3.121,0,0,0-4.7,1.841,3.128,3.128,0,0,0-2.354-.422.46.46,0,1,0,.2.9,2.2,2.2,0,0,1,2.164.744.46.46,0,0,0,.814-.294v-.142a2.2,2.2,0,0,1,3.891-1.4.46.46,0,0,0,.814-.294v-.142a2.2,2.2,0,0,1,4.4,0v2.25a2,2,0,0,1-1.995,1.995H16.417a2,2,0,0,1-1.995-1.995v-2.25Zm4.449-14.78a.767.767,0,1,1,0-1.534h8.592a.767.767,0,1,1,0,1.534Zm7.518,3.069H19.945V3.375h6.444Z" transform="translate(0)" fill="#404cdc"/>
          <path id="Path_67126" data-name="Path 67126" d="M175.646,456.308h-13.5a.46.46,0,1,0,0,.921h13.5a.46.46,0,1,0,0-.921Z" transform="translate(-152.479 -430.328)" fill="#404cdc"/>
          <path id="Path_67127" data-name="Path 67127" d="M151.365,291.032a.46.46,0,1,0,0,.921h3.069a.46.46,0,1,0,0-.921Z" transform="translate(-142.313 -274.462)" fill="#404cdc"/>
          <path id="Path_67128" data-name="Path 67128" d="M434.687,456.308h-3.069a.46.46,0,1,0,0,.921h3.069a.46.46,0,1,0,0-.921Z" transform="translate(-406.61 -430.328)" fill="#404cdc"/>
        </g>
      </g>
    </g>
  </g>
</svg>
