<svg id="Icons" xmlns="http://www.w3.org/2000/svg" viewBox="0 0 439.22 421.41"><defs><style>.cls-1{fill:#fff;}</style></defs><path class="cls-1" d="M229.72,69.31a4.85,4.85,0,0,1-4.86,4.86H113.33a24,24,0,0,0-24,24V175.6a3.61,3.61,0,0,0-1.47,2.92v6.28a4.88,4.88,0,0,1-6,.6v-6.88a3.68,3.68,0,0,0-2.21-3.36v-77a33.74,33.74,0,0,1,33.7-33.68h50.18V21.81a4.87,4.87,0,0,1,9.73,0V64.45h51.62a4.85,4.85,0,0,1,4.86,4.86Z" transform="translate(-6.16 -4.29)"/><path class="cls-1" d="M124.83,343.26H106.24a16.9,16.9,0,0,1-16.88-16.88V282.06a4.87,4.87,0,0,0-9.73,0v44.32A26.64,26.64,0,0,0,106.24,353h18.59a17.3,17.3,0,0,1,17.28,17.27V408.2a4.87,4.87,0,0,0,9.73,0V370.26A27,27,0,0,0,124.83,343.26Z" transform="translate(-6.16 -4.29)"/><path class="cls-1" d="M251.87,220.15v-1.4a4.11,4.11,0,0,1,0,1.4Z" transform="translate(-6.16 -4.29)"/><path class="cls-1" d="M386.32,107.17v18.14a4.86,4.86,0,0,1-9.72,0V107.17a15.5,15.5,0,0,0-15.48-15.49H320.66v3.43a29.33,29.33,0,0,1-29.28,29.29H202.59A20.65,20.65,0,0,0,181.93,145v69.56H239.2v9.72H181.93v85.6a21.5,21.5,0,0,0,21.48,21.48H374.29a4.87,4.87,0,0,1,0,9.73H320.63v67.06a4.86,4.86,0,0,1-9.72,0V341.13H244.09v35.56a4.87,4.87,0,0,1-9.73,0V341.13H203.44a31.24,31.24,0,0,1-31.23-31.21v-85.6h-36a4.52,4.52,0,0,1-1.32-.18,4.86,4.86,0,0,1,0-9.36,4.52,4.52,0,0,1,1.32-.18h36V145a30.38,30.38,0,0,1,30.36-30.36h88.77a19.58,19.58,0,0,0,19.57-19.56V45.56a4.86,4.86,0,1,1,9.72,0V82h40.45A25.28,25.28,0,0,1,386.32,107.17Z" transform="translate(-6.16 -4.29)"/><circle class="cls-1" cx="162.21" cy="17.52" r="17.52"/><circle class="cls-1" cx="309.64" cy="41.26" r="17.52"/><circle class="cls-1" cx="218.7" cy="65.01" r="17.52"/><circle class="cls-1" cx="146.97" cy="408.19" r="17.52" transform="translate(-276.77 521.56) rotate(-85.93)"/><circle class="cls-1" cx="309.64" cy="403.9" r="17.52"/><circle class="cls-1" cx="233.07" cy="372.42" r="17.52"/><circle class="cls-1" cx="368.16" cy="331.96" r="17.52"/><circle class="cls-1" cx="375.3" cy="121.01" r="17.52"/><path class="cls-1" d="M76.22,179.64H70.8v-.19h4.28A3.68,3.68,0,0,1,76.22,179.64Z" transform="translate(-6.16 -4.29)"/><path class="cls-1" d="M59.22,151.71H57.39c-.69,0-1.38,0-2.06.11l-1.16.09a10.44,10.44,0,0,0-1.37.15l-1.94.26c-1.09.18-2.16.38-3.22.62l-1.6.38-1.56.43c-.26.07-.53.15-.78.24-.47.13-1,.29-1.39.44-.62.21-1.24.43-1.85.66l-1.34.53c-.42.17-.82.34-1.23.53h0a52.81,52.81,0,0,0-14,9c-.49.44-1,.89-1.44,1.34s-.9.88-1.33,1.33a38.14,38.14,0,0,0-2.69,3l-.12.14c-.34.41-.66.82-1,1.23h0c-.28.36-.55.72-.82,1.09l-1,1.46c-.34.49-.6.9-.88,1.35a6.76,6.76,0,0,0-.38.61c-.28.44-.55.87-.8,1.32s-.59,1-.88,1.55a53,53,0,0,0-3.82,9.06c-.4,1.26-.76,2.52-1,3.82-.15.61-.28,1.23-.41,1.84v.22c-.07.33-.12.66-.18,1s-.12.66-.17,1l-.14,1a10.15,10.15,0,0,1-.14,1.09c-.08.74-.15,1.47-.2,2.21s-.09,1.49-.11,2.24v32.56a51.21,51.21,0,0,0,.47,5.66,7.32,7.32,0,0,0,.16,1.13c.13.77.26,1.54.42,2.31.09.43.18.87.28,1.29.15.64.3,1.27.48,1.89.1.36.19.72.3,1.08s.21.71.33,1.06h0a54.23,54.23,0,0,0,3.81,9.07c.3.56.62,1.12,1,1.66.21.38.44.76.67,1.14a1.63,1.63,0,0,1,.11.17c.28.44.56.88.85,1.32s.62.92,1,1.37c.58.8,1.17,1.58,1.78,2.35a14.79,14.79,0,0,0,1,1.14c.35.37.64.75,1,1.12s.63.7,1,1,.71.74,1.07,1.1c.6.6,1.23,1.19,1.86,1.77l.28.25a52.93,52.93,0,0,0,14.08,9.07,6.58,6.58,0,0,0,.66.29l1,.42.32.13,1.08.4,1.23.43c1,.34,1.94.64,3,.92l1,.26c.64.16,1.29.32,1.94.46l1.63.32,1.35.22c.58.09,1.17.17,1.76.23l.84.1,1.33.12h.34l1,.06c1,0,2,.07,2.85.07H90.91V264A3.63,3.63,0,0,1,88,260.39V248h-6v12.35A3.65,3.65,0,0,1,78.82,264a2.35,2.35,0,0,1-.53,0H74.54a3.67,3.67,0,0,1-2.82-1.33,3.71,3.71,0,0,1-.54-.9,3.82,3.82,0,0,1-.28-1.42V248H56.45a3.65,3.65,0,0,1-3.66-3.64h0v-2.77a4.86,4.86,0,0,1,.54,0h8.75v-.19H52.8v-.74A3.65,3.65,0,0,1,56.44,237h8.07V201.91H56.45a3.66,3.66,0,0,1-3.66-3.66h0v-3.89a3.65,3.65,0,0,1,3.66-3.46H70.76V178.55a3.64,3.64,0,0,1,3.65-3.65h3.75a3.7,3.7,0,0,1,1.44.29,3.66,3.66,0,0,1,2.21,3.36v6.87a4.86,4.86,0,0,0,6-.59v-6.28a3.61,3.61,0,0,1,1.47-2.92,3.69,3.69,0,0,1,1.44-.65V151.71Z" transform="translate(-6.16 -4.29)"/><rect class="cls-1" x="75.68" y="197.62" width="8.96" height="9.58"/><rect class="cls-1" x="75.68" y="219.75" width="8.96" height="12.95"/><path class="cls-1" d="M6.17,212.23H62.11v14.44H6.17Z" transform="translate(-6.16 -4.29)"/><path class="cls-1" d="M6.17,212.23H62.11v5.67H6.17Z" transform="translate(-6.16 -4.29)"/><path class="cls-1" d="M52.83,240.65v.74h9.28v.19H53.36a4.86,4.86,0,0,0-.54,0v2.82a3.65,3.65,0,0,0,3.65,3.65H62.1v2.12H8.6l-.33-1.06L8,248c-.17-.62-.33-1.26-.48-1.89-.09-.43-.19-.86-.28-1.29-.15-.77-.29-1.54-.42-2.32,0-.38-.11-.75-.16-1.13a50.81,50.81,0,0,1-.47-5.66H62.07V237H56.45A3.64,3.64,0,0,0,52.83,240.65Z" transform="translate(-6.16 -4.29)"/><path class="cls-1" d="M62.11,235.73V237H56.45a3.65,3.65,0,0,0-3.65,3.65h0v.74H6.64a50.81,50.81,0,0,1-.47-5.66Z" transform="translate(-6.16 -4.29)"/><path class="cls-1" d="M75.7,264v9.62H23.84l-.29-.25c-.63-.59-1.25-1.17-1.85-1.77-.36-.36-.71-.73-1.07-1.1s-.65-.69-1-1-.65-.74-1-1.12l-1-1.14c-.61-.77-1.21-1.56-1.78-2.35-.32-.45-.63-.92-1-1.38a15.26,15.26,0,0,1-.85-1.31L14,262l-.67-1.14c-.33-.55-.64-1.1-1-1.67H70.71v1.17a3.82,3.82,0,0,0,.28,1.42,3.45,3.45,0,0,0,.55.9A3.66,3.66,0,0,0,74.36,264Z" transform="translate(-6.16 -4.29)"/><path class="cls-1" d="M75.7,264v.85H16c-.32-.45-.64-.92-1-1.38a15.08,15.08,0,0,1-.84-1.31l-.12-.17c-.22-.38-.46-.76-.67-1.14-.33-.55-.64-1.1-1-1.67H70.77v1.17a3.82,3.82,0,0,0,.28,1.42,3.45,3.45,0,0,0,.55.9A3.66,3.66,0,0,0,74.42,264Z" transform="translate(-6.16 -4.29)"/><path class="cls-1" d="M84.77,282.73v4.47H59.22a53,53,0,0,1-21.34-4.46Z" transform="translate(-6.16 -4.29)"/><path class="cls-1" d="M84.77,282.73v4.47H59.22a53,53,0,0,1-21.34-4.46Z" transform="translate(-6.16 -4.29)"/><path class="cls-1" d="M52.83,195.49v2.76a3.66,3.66,0,0,0,3.66,3.66h5.62v1.27H6.2c0-.75.06-1.5.11-2.24s.12-1.47.2-2.21a8.13,8.13,0,0,1,.14-1.09l.14-1a5.18,5.18,0,0,1,.17-1c.06-.31.12-.66.18-1v-.22c.13-.61.26-1.23.41-1.85l1-3.81H62.1v2.12H56.45a3.65,3.65,0,0,0-3.64,3.54Z" transform="translate(-6.16 -4.29)"/><path class="cls-1" d="M62.11,188.74v2.16H56.45a3.65,3.65,0,0,0-3.64,3.54H7.15c.13-.61.26-1.23.41-1.85l1-3.81Z" transform="translate(-6.16 -4.29)"/><path class="cls-1" d="M76.22,165.24v9.62H74.45a3.65,3.65,0,0,0-3.66,3.64h0v1.17H12.43c.28-.53.57-1.05.87-1.55s.52-.89.8-1.32c.12-.21.24-.4.38-.61.28-.45.58-.9.88-1.35s.69-1,1.05-1.46.53-.73.81-1.09h0c.32-.42.64-.82,1-1.23l.12-.14c.86-1,1.75-2,2.7-3,.42-.44.87-.88,1.32-1.32s1-.9,1.44-1.34Z" transform="translate(-6.16 -4.29)"/><path class="cls-1" d="M76.22,179.64H70.8v-.19h4.28A3.68,3.68,0,0,1,76.22,179.64Z" transform="translate(-6.16 -4.29)"/><path class="cls-1" d="M76.22,165.25v5.66H18.38a52.11,52.11,0,0,1,5.46-5.66Z" transform="translate(-6.16 -4.29)"/><path class="cls-1" d="M87.12,153.94v2.29H37.88a52.83,52.83,0,0,1,21.34-4.47H72A52.53,52.53,0,0,1,87.12,153.94Z" transform="translate(-6.16 -4.29)"/><path class="cls-1" d="M81.84,224v13h9V224Zm0,0v13h9V224Zm0,0v13h9V224Zm0,0v13h9V224ZM75,179.45H70.75v.19h5.42a3.67,3.67,0,0,0-1.09-.19ZM81.84,224v13h9V224Zm0,0v13h9V224ZM75,179.45H70.75v.19h5.42a3.67,3.67,0,0,0-1.09-.19Zm0,0H70.75v.19h5.42a3.67,3.67,0,0,0-1.09-.19ZM81.84,224v13h9V224Zm0,0v13h9V224ZM75,179.45H70.75v.19h5.42a3.67,3.67,0,0,0-1.09-.19Zm0,0H70.75v.19h5.42a3.67,3.67,0,0,0-1.09-.19ZM81.84,224v13h9V224Zm0,0v13h9V224ZM75,179.45H70.75v.19h5.42a3.67,3.67,0,0,0-1.09-.19Zm0,0H70.75v.19h5.42a3.67,3.67,0,0,0-1.09-.19ZM81.84,224v13h9V224Zm0,0v13h9V224ZM75,179.45H70.75v.19h5.42a3.67,3.67,0,0,0-1.09-.19Zm0,0H70.75v.19h5.42a3.67,3.67,0,0,0-1.09-.19ZM81.84,224v13h9V224Zm0,0v13h9V224ZM75,179.45H70.75v.19h5.42a3.67,3.67,0,0,0-1.09-.19Zm0,0H70.75v.19h5.42a3.67,3.67,0,0,0-1.09-.19ZM81.84,224v13h9V224Zm0,0v13h9V224ZM75,179.45H70.75v.19h5.42a3.67,3.67,0,0,0-1.09-.19Zm0,0H70.75v.19h5.42a3.67,3.67,0,0,0-1.09-.19ZM81.84,224v13h9V224Zm0,0v13h9V224ZM75,179.45H70.75v.19h5.42a3.67,3.67,0,0,0-1.09-.19Zm0,0H70.75v.19h5.42a3.67,3.67,0,0,0-1.09-.19ZM81.84,224v13h9V224Zm0,0v13h9V224ZM75,179.45H70.75v.19h5.42a3.67,3.67,0,0,0-1.09-.19Zm0,0H70.75v.19h5.42a3.67,3.67,0,0,0-1.09-.19ZM81.84,224v13h9V224Zm0,0v13h9V224ZM75,179.45H70.75v.19h5.42a3.67,3.67,0,0,0-1.09-.19Zm0,0H70.75v.19h5.42a3.67,3.67,0,0,0-1.09-.19ZM81.84,224v13h9V224Zm0,13h9V224h-9ZM71.33,179.45H70.8v.19h5.42a3.68,3.68,0,0,0-1.14-.19Zm22.59-27.74H79.63c-1,0-2,.08-3,.16h0a52.69,52.69,0,0,0-16.83,4.28,53.25,53.25,0,0,0-14.07,9.06h0a52.79,52.79,0,0,0-5.43,5.66q-1.59,1.9-3,3.94a53.15,53.15,0,0,0-2.92,4.87A52.62,52.62,0,0,0,29.1,194.4a51.63,51.63,0,0,0-1,8.76v32.55a48.87,48.87,0,0,0,.46,5.67,52.24,52.24,0,0,0,5.78,17.82,56.06,56.06,0,0,0,3.51,5.66,53.55,53.55,0,0,0,7.86,8.75A53.54,53.54,0,0,0,79.63,287.2H93.92a53,53,0,0,0,53.05-53v-29.4a53,53,0,0,0-53-53ZM90.8,264a3.63,3.63,0,0,1-2.92-3.57V248h-6v12.35A3.64,3.64,0,0,1,78.72,264a2.44,2.44,0,0,1-.54,0H74.44a3.64,3.64,0,0,1-2.82-1.33,3.45,3.45,0,0,1-.55-.9,3.82,3.82,0,0,1-.28-1.42V248H56.45a3.65,3.65,0,0,1-3.66-3.64h0v-2.77a4.86,4.86,0,0,1,.54,0h8.75v-.19H52.8v-.74A3.65,3.65,0,0,1,56.44,237h8.07V201.91H56.45a3.66,3.66,0,0,1-3.66-3.66h0v-3.89a3.65,3.65,0,0,1,3.66-3.46H70.76V178.55a3.64,3.64,0,0,1,3.65-3.65h3.75a3.7,3.7,0,0,1,1.44.29,3.66,3.66,0,0,1,2.21,3.36v6.87a4.86,4.86,0,0,0,6-.59v-6.28a3.61,3.61,0,0,1,1.47-2.92,3.69,3.69,0,0,1,1.44-.65,3.65,3.65,0,0,1,.74-.08h3.75a3.64,3.64,0,0,1,3.65,3.65V190.9h1.31a10.48,10.48,0,0,1,10.49,10.47v4.71a10.48,10.48,0,0,1-2,6.2l-2.92,4.28a10.45,10.45,0,0,1-8.67,4.58h6.18A12.87,12.87,0,0,1,116.14,234h0v5.77a12.76,12.76,0,0,1-.92,4.76,12.76,12.76,0,0,1-8.84,3.53H98.92v12.35A3.65,3.65,0,0,1,95.81,264H91.53a3.55,3.55,0,0,1-.73-.08Zm-9-27h9V224h-9ZM71.33,179.45H70.8v.19h5.42a3.68,3.68,0,0,0-1.14-.19Zm3.75,0H70.8v.19h5.42a3.68,3.68,0,0,0-1.14-.19ZM81.89,224v13h9V224Zm0,0v13h9V224Zm-6.81-44.59H70.8v.19h5.42a3.68,3.68,0,0,0-1.14-.19Zm0,0H70.8v.19h5.42a3.68,3.68,0,0,0-1.14-.19ZM81.89,224v13h9V224Zm0,0v13h9V224Zm-6.81-44.59H70.8v.19h5.42a3.68,3.68,0,0,0-1.14-.19Zm0,0H70.8v.19h5.42a3.68,3.68,0,0,0-1.14-.19ZM81.89,224v13h9V224Zm0,0v13h9V224Zm-6.81-44.59H70.8v.19h5.42a3.68,3.68,0,0,0-1.14-.19Zm0,0H70.8v.19h5.42a3.68,3.68,0,0,0-1.14-.19ZM81.89,224v13h9V224Zm0,0v13h9V224Zm-6.81-44.59H70.8v.19h5.42a3.68,3.68,0,0,0-1.14-.19Zm0,0H70.8v.19h5.42a3.68,3.68,0,0,0-1.14-.19ZM81.89,224v13h9V224Zm0,0v13h9V224Zm-6.81-44.59H70.8v.19h5.42a3.68,3.68,0,0,0-1.14-.19ZM81.89,224v13h9V224Zm-6.81-44.59H70.8v.19h5.42a3.68,3.68,0,0,0-1.14-.19Zm0,0H70.8v.19h5.42a3.68,3.68,0,0,0-1.14-.19ZM81.89,224v13h9V224Zm0,0v13h9V224Zm-6.81-44.59H70.8v.19h5.42a3.68,3.68,0,0,0-1.14-.19Zm0,0H70.8v.19h5.42a3.68,3.68,0,0,0-1.14-.19ZM81.89,224v13h9V224Zm0,0v13h9V224Zm-6.81-44.59H70.8v.19h5.42a3.68,3.68,0,0,0-1.14-.19ZM81.89,224v13h9V224Zm0,0v13h9V224Zm0,0v13h9V224Zm0,0v13h9V224Zm0,0v13h9V224Zm0,0v13h9V224Zm0-22.13v9.58h9v-9.58Zm0,22.13v13h9V224Zm0,0v13h9V224Zm9-12.55h-9v-9.58h9Zm0,0h-9v-9.58h9Zm0,0h-9v-9.58h9Zm0,0h-9v-9.58h9Zm0,0h-9v-9.58h9Zm0,0h-9v-9.58h9Zm0,0h-9v-9.58h9Zm0,0h-9v-9.58h9Zm0,0h-9v-9.58h9Zm0,0h-9v-9.58h9Zm0,0h-9v-9.58h9Zm0,0h-9v-9.58h9Zm0,0h-9v-9.58h9Zm0,0h-9v-9.58h9Zm0,0h-9v-9.58h9Zm0,0h-9v-9.58h9Zm0,0h-9v-9.58h9Zm0,0h-9v-9.58h9Zm0,0h-9v-9.58h9Zm0,0h-9v-9.58h9Zm0,0h-9v-9.58h9Zm0,0h-9v-9.58h9Zm0,0h-9v-9.58h9Zm0,0h-9v-9.58h9Zm0,0h-9v-9.58h9Zm0,0h-9v-9.58h9Zm0,0h-9v-9.58h9Zm0,0h-9v-9.58h9Zm0,0h-9v-9.58h9Zm0,0h-9v-9.58h9Zm0,0h-9v-9.58h9Zm0,0h-9v-9.58h9Zm0,0h-9v-9.58h9Zm0,0h-9v-9.58h9Zm0,0h-9v-9.58h9Zm0,0h-9v-9.58h9Zm0,0h-9v-9.58h9Zm0,0h-9v-9.58h9Zm0,0h-9v-9.58h9Zm0,0h-9v-9.58h9Zm0,0h-9v-9.58h9Zm0,0h-9v-9.58h9Zm0,0h-9v-9.58h9Zm0,0h-9v-9.58h9Zm0,0h-9v-9.58h9Zm0,0h-9v-9.58h9Zm0,0h-9v-9.58h9Z" transform="translate(-6.16 -4.29)"/><path class="cls-1" d="M93.36,157.63H79.66a48.14,48.14,0,0,0-24,7.56h0a47.72,47.72,0,0,0-7.23,5.66,48.51,48.51,0,0,0-6.68,7.84,9.13,9.13,0,0,0-.61,1,48,48,0,0,0-7.72,23.48c-.07,1-.1,1.94-.1,2.87v26.81c0,1,0,1.95.09,2.92a47.91,47.91,0,0,0,3.09,14.42,49.08,49.08,0,0,0,8.93,14.73,49,49,0,0,0,10.24,8.75,48.11,48.11,0,0,0,24.12,7.57H93.37a48.39,48.39,0,0,0,48.41-48.4V206.05a48.42,48.42,0,0,0-48.41-48.42Zm46.38,74.73a46.91,46.91,0,0,1-1.4,11.38v.15c-.14.52-.28,1.05-.43,1.56a.92.92,0,0,1-.1.32c-.16.58-.35,1.14-.54,1.69s-.43,1.22-.66,1.81h0c-.23.6-.47,1.19-.73,1.77h0c-.2.48-.41,1-.64,1.41l-.3.62c-.23.47-.48,1-.73,1.41-.36.67-.74,1.32-1.14,1.94-.26.44-.53.88-.8,1.31h0c-.28.42-.56.84-.85,1.25l-.46.64c-.29.41-.59.81-.89,1.2-.48.61-1,1.22-1.48,1.81-.31.37-.64.73-1,1.09s-.86,1-1.31,1.37l-.45.45c-.3.3-.6.59-.91.87l-1.42,1.27c-.45.41-1,.82-1.46,1.2a46.32,46.32,0,0,1-28.87,10H80.85a46.54,46.54,0,0,1-32.28-14,47,47,0,0,1-4.7-5.66,46.33,46.33,0,0,1-5-9.07,46.72,46.72,0,0,1-3.4-14.42c-.09-1.11-.13-2.23-.13-3.37V206.54a28.87,28.87,0,0,1,.13-3.36A45.7,45.7,0,0,1,37,194.42a45,45,0,0,1,1.94-5.66,46.09,46.09,0,0,1,4.58-8.46c.13-.21.28-.41.42-.61a47,47,0,0,1,16.46-14.41h0a46.11,46.11,0,0,1,19.35-5.23c.74,0,1.49-.06,2.24-.06H93.21a46.6,46.6,0,0,1,46.6,46.59h0Z" transform="translate(-6.16 -4.29)"/><path class="cls-1" d="M93.14,160H81.87c-.75,0-1.5,0-2.24.06a46.25,46.25,0,0,0-19.35,5.23h0a46.74,46.74,0,0,0-8.41,5.66,45.8,45.8,0,0,0-8,8.76,6.51,6.51,0,0,0-.43.6,45.45,45.45,0,0,0-4.57,8.46,43.47,43.47,0,0,0-1.95,5.66,46.49,46.49,0,0,0-1.48,8.76c-.09,1.11-.12,2.23-.12,3.36v25.82a31.26,31.26,0,0,0,.12,3.37,46.81,46.81,0,0,0,.76,5.67,44.57,44.57,0,0,0,2.64,8.75,46.33,46.33,0,0,0,5,9.07,48,48,0,0,0,4.7,5.66,46.94,46.94,0,0,0,32.27,14.09H93.12a46.32,46.32,0,0,0,28.87-10c.5-.39,1-.79,1.46-1.2s1-.84,1.42-1.27l.91-.87.46-.45c.44-.45.87-.9,1.3-1.37s.65-.72,1-1.09c.51-.59,1-1.2,1.48-1.81q.45-.59.9-1.2l.45-.64c.29-.41.58-.83.85-1.25h0l.81-1.31c.39-.64.77-1.29,1.13-1.94.25-.47.5-1,.73-1.41l.31-.62c.22-.46.43-1,.64-1.41h0c.25-.58.49-1.17.73-1.77h0c.22-.59.44-1.19.65-1.81s.38-1.11.54-1.69a1.31,1.31,0,0,1,.1-.32c.16-.52.29-1,.43-1.57v-.14a47,47,0,0,0,1.4-11.38V206.54A46.59,46.59,0,0,0,93.14,160Zm41.77,71.21a42.21,42.21,0,0,1-42.29,42.3H82.39a44.15,44.15,0,0,1-6.69-.53,42.39,42.39,0,0,1-31.1-22.77,41.11,41.11,0,0,1-4.23-14.42,43.25,43.25,0,0,1-.24-4.56V207.74a42.66,42.66,0,0,1,2.15-13.32,41.16,41.16,0,0,1,2.35-5.66,40.83,40.83,0,0,1,6.16-9.08A42.31,42.31,0,0,1,76.21,165.9c1.13-.16,2.26-.28,3.41-.36.92-.06,1.84-.09,2.77-.09H92.61a42.29,42.29,0,0,1,42.29,42.3Z" transform="translate(-6.16 -4.29)"/><path class="cls-1" d="M336.22,213.49a12.35,12.35,0,0,1-1.27-1.16,6.63,6.63,0,0,1-.57-.61l0-.06a6.76,6.76,0,0,1-.44-.61,9.86,9.86,0,0,1-1.57-5.89c-.05-6.9,5.68-11.68,12.42-12.74V189a3.44,3.44,0,0,1,2.57-3.47l-.27.08-.13,0-.13,0a1.08,1.08,0,0,0-.24.12l-.17.08-.16.1h0a0,0,0,0,0,0,0l0,0h0a3.44,3.44,0,0,0-.36.28,1,1,0,0,0-.21.19c0,.07-.12.14-.18.21a2.69,2.69,0,0,0-.38.59c0,.1-.09.18-.13.28l-.09.26a2.92,2.92,0,0,0-.1.4,3.94,3.94,0,0,0,0,.6v3.57l-.59.11h0c-.41.07-.81.17-1.21.27a18.08,18.08,0,0,0-2.94,1.08c-.28.13-.55.28-.82.42a11.55,11.55,0,0,0-1.53,1c-.18.12-.37.26-.54.4l-.3.25s0,0,0,0l-.32.26-.27.24-.21.21-.41.4-.09.1h0l-.35.4s0,0,0,0l-.09.11h0c-.09.12-.19.24-.28.37a1.27,1.27,0,0,0-.13.19.79.79,0,0,0-.12.15,3.17,3.17,0,0,0-.23.36l0,0-.06.08,0,0-.07.1-.22.35c-.1.18-.19.34-.28.52a.84.84,0,0,0-.08.19,3.41,3.41,0,0,0-.17.33c-.08.17-.14.35-.22.53s-.14.37-.2.56c-.12.37-.22.76-.31,1.15,0,.11-.05.22-.07.34s0,.07,0,.11a.53.53,0,0,1,0,.12v0c0,.16-.05.32-.07.48v0h0a10.65,10.65,0,0,0-.08,1.4,9.8,9.8,0,0,0,2.05,6.56A12.62,12.62,0,0,0,336.22,213.49Z" transform="translate(-6.16 -4.29)"/><path class="cls-1" d="M360.66,203.29h-.11a1.87,1.87,0,0,1-.34,0,5.08,5.08,0,0,1-2.39-.94,28.34,28.34,0,0,0-4.38-2.34,11.18,11.18,0,0,0-2.87-.69h0a9.28,9.28,0,0,0-1.06-.09c-.39,0-.8,0-1.21,0l-.33,0c-.24,0-.49,0-.73.08s-.48.07-.72.12a7.33,7.33,0,0,0-3.33,1.5c2.55-2.08,7.41-2,10.22-.87a29.17,29.17,0,0,1,4.38,2.33,5,5,0,0,0,2.81,1,2.61,2.61,0,0,0,1.79-.79A2.57,2.57,0,0,1,360.66,203.29Z" transform="translate(-6.16 -4.29)"/><path class="cls-1" d="M354.46,221a3.79,3.79,0,0,0-.31-.39c-.07-.08-.16-.16-.25-.25a2.23,2.23,0,0,0-.24-.19,3.51,3.51,0,0,1,1.33,2.66,4.61,4.61,0,0,1-1.35,3.35l0,0a4.47,4.47,0,0,1-.41.35c-.15.11-.32.22-.49.32a1.3,1.3,0,0,1-.26.14,2.28,2.28,0,0,1-.35.17,3,3,0,0,1-.46.19l-.34.12-.6.17-.32.06-.73.13a14.32,14.32,0,0,1-2,.13c-.46,0-.91,0-1.36-.06h0l-.53-.05-.89-.12-.65-.1c-.62-.13-1.21-.28-1.76-.43a24.33,24.33,0,0,1-5.22-2.37c-1.3-.71-2.39-1.14-3.4-.87a1.92,1.92,0,0,0-.31.11,1.25,1.25,0,0,0-.31.15h0l.11.13,0,0-.05-.05a2.91,2.91,0,0,1,2.79,0l.47.2.67.34.09.05c.38.24.77.45,1.17.66s.85.43,1.28.63l.66.28a22.32,22.32,0,0,0,2.11.8c4.38,1.29,12.46,1.55,12.58-4.4A3.54,3.54,0,0,0,354.46,221Z" transform="translate(-6.16 -4.29)"/><path class="cls-1" d="M347.92,185.37l-.15,0-.09,0a.78.78,0,0,1,.22,0h0Z" transform="translate(-6.16 -4.29)"/><path class="cls-1" d="M367.35,186.65l-.13-.09c.26.18.51.37.78.55C367.78,187,367.57,186.79,367.35,186.65Z" transform="translate(-6.16 -4.29)"/><path class="cls-1" d="M364.52,184.88h0l1,.55C365.15,185.23,364.84,185.06,364.52,184.88Z" transform="translate(-6.16 -4.29)"/><path class="cls-1" d="M369.13,188c-.3-.23-.59-.46-.89-.67.44.34.88.68,1.29,1C369.4,188.18,369.26,188.07,369.13,188Z" transform="translate(-6.16 -4.29)"/><path class="cls-1" d="M419.12,190.78a38.76,38.76,0,0,1-4.92-4.92A10.23,10.23,0,0,1,419.12,190.78Z" transform="translate(-6.16 -4.29)"/><path class="cls-1" d="M420.1,235.65v32h-158a10.25,10.25,0,0,1-10.26-10.25h0V184.89h32A40.86,40.86,0,0,1,262.26,199v29.18a40.89,40.89,0,0,1,29.07,29.07H405.94A40.67,40.67,0,0,1,420.1,235.65Z" transform="translate(-6.16 -4.29)"/><path class="cls-1" d="M420.1,280.28v2.4a10.25,10.25,0,0,1-10.26,10.25h-173a10.25,10.25,0,0,1-10.25-10.25h0V195.13a10.25,10.25,0,0,1,10.25-10.25h2.4V270a10.25,10.25,0,0,0,10.25,10.25H420.1Z" transform="translate(-6.16 -4.29)"/><path class="cls-1" d="M354.46,221a3.79,3.79,0,0,0-.31-.39c-.07-.08-.16-.16-.25-.25a2.23,2.23,0,0,0-.24-.19,3.51,3.51,0,0,1,1.33,2.66,4.61,4.61,0,0,1-1.35,3.35l0,0a4.47,4.47,0,0,1-.41.35c-.15.11-.32.22-.49.32a1.3,1.3,0,0,1-.26.14,2.28,2.28,0,0,1-.35.17,3,3,0,0,1-.46.19l-.34.12-.6.17-.32.06-.73.13a14.32,14.32,0,0,1-2,.13c-.46,0-.91,0-1.36-.06h0l-.53-.05-.89-.12-.65-.1c-.62-.13-1.21-.28-1.76-.43a24.33,24.33,0,0,1-5.22-2.37c-1.3-.71-2.39-1.14-3.4-.87a1.92,1.92,0,0,0-.31.11,1.25,1.25,0,0,0-.31.15h0l.11.13,0,0-.05-.05a2.91,2.91,0,0,1,2.79,0l.47.2.67.34.09.05c.38.24.77.45,1.17.66s.85.43,1.28.63l.66.28a22.32,22.32,0,0,0,2.11.8c4.38,1.29,12.46,1.55,12.58-4.4A3.54,3.54,0,0,0,354.46,221Z" transform="translate(-6.16 -4.29)"/><path class="cls-1" d="M365.46,185.43c-.31-.2-.62-.37-.94-.55a33.43,33.43,0,0,0-6.69-2.79h0c-.66-.19-1.32-.37-2-.51s-1.34-.28-2-.39a33,33,0,0,0-18.3,2.31c-.63.29-1.26.58-1.88.9l-.91.48h31.78Z" transform="translate(-6.16 -4.29)"/><path class="cls-1" d="M432.27,229l-.28.1-.63.23-.32.11-.29.12-.56.22h0l0,0c-.27.1-.53.21-.79.33l-1.23.54-.4.19c-.27.12-.53.27-.81.4l-.16.09-.64.32-.8.44c-.53.29-1,.6-1.54.91h0l-.38.26-.18.11-.19.12-.17.13-.55.37c-.38.26-.76.54-1.14.81l-1.06.81c-.87.68-1.72,1.4-2.52,2.16-.27.24-.53.5-.78.76l-.39.39h0l-.22.22c-.31.31-.62.63-.91,1h0l-.26.3-.08.08c-.26.28-.5.56-.74.84h0c-.35.42-.69.85-1,1.27s-.42.55-.61.82a.21.21,0,0,0,0,.06l0,0s0,0,0,0l0,0h0l0,0s0,0,0,0l-.06.07-.11.17s0,0,0,0v0c-.06.1-.13.18-.2.28h0l0,0s0,0,0,0c-.19.27-.37.55-.57.84l-.35.55c-.06.1-.13.18-.18.28s0,0,0,.05l-.21.33-.31.53c-.17.29-.35.58-.51.88a.41.41,0,0,1,0,.09l-.35.64c-.1.2-.21.39-.3.58l0,0-.24.45h0a0,0,0,0,1,0,0c-.18.39-.37.78-.54,1.17l0,.11a.63.63,0,0,0,0,.09.47.47,0,0,0-.05.1h0c-.21.49-.43,1-.63,1.48v0s0,0,0,0c-.18.45-.35.91-.52,1.38,0,.05,0,.09,0,.14s-.05.14-.07.21c-.17.45-.31.91-.46,1.38a2.58,2.58,0,0,1-.08.26c-.13.42-.25.85-.37,1.29H291.33c-.12-.43-.24-.86-.37-1.28a.06.06,0,0,0,0,0c-.13-.44-.27-.86-.41-1.29s-.31-.92-.49-1.36-.3-.79-.46-1.18-.37-.87-.56-1.28-.37-.79-.55-1.17c-.39-.81-.81-1.6-1.27-2.37h0c-.14-.26-.29-.5-.45-.74a.31.31,0,0,0-.05-.1.25.25,0,0,0,0-.07h0a.2.2,0,0,0,0-.08.18.18,0,0,0-.05-.07s0,0,0-.06h0s0,0,0,0l-.38-.59s0,0-.05-.06a3.4,3.4,0,0,0-.28-.45l-.06-.08c-.23-.35-.47-.7-.72-1l0,0c-.22-.3-.44-.6-.67-.89a.76.76,0,0,0-.08-.11l-.08-.12s0,0,0,0a.21.21,0,0,1,0-.06c-.24-.3-.49-.59-.71-.88h0l-.14-.16c-.21-.26-.44-.52-.67-.79a.69.69,0,0,1-.11-.13l-.83-.91h0c-.28-.31-.58-.6-.87-.9l-.05,0,0-.05c-.3-.3-.6-.58-.9-.87s-.63-.59-.95-.87l-.07-.06-1-.83c-.34-.29-.69-.56-1-.83l-.09-.07c-.33-.24-.64-.5-1-.75a40.8,40.8,0,0,0-13.4-6.32V199a40.76,40.76,0,0,0,17.87-10.06c.28-.26.55-.53.83-.82l.11-.11.11-.12c.3-.3.58-.61.88-.92l.07-.09.12-.14c.41-.45.81-.92,1.2-1.4l.11-.13.27-.33,0,0a40.68,40.68,0,0,0,6.81-12.65h-38.8v85.19c0,.19,0,.37,0,.55v0a1.49,1.49,0,0,0,0,.21,1.64,1.64,0,0,0,0,.23v.06c0,.16,0,.3.07.45V259a.35.35,0,0,1,0,.14s0,.05,0,.07,0,0,0,.05a0,0,0,0,1,0,0q0,.09,0,.15l.09.44.12.43a10.28,10.28,0,0,0,9.83,7.32H432.74V228.83l-.38.14Z" transform="translate(-6.16 -4.29)"/><path class="cls-1" d="M422.52,172.24H406.63c.23.69.47,1.38.73,2.06s.55,1.37.86,2c.14.34.31.68.48,1,.32.66.65,1.31,1,1.95.17.32.36.63.54.95a39.68,39.68,0,0,0,4,5.58,38.76,38.76,0,0,0,4.92,4.92,40.59,40.59,0,0,0,5.6,4c.32.18.63.37.95.54.64.36,1.29.69,1.95,1s1.34.63,2,.92,1.35.54,2,.79h0l1,.36V182.49A10.25,10.25,0,0,0,422.52,172.24Z" transform="translate(-6.16 -4.29)"/><path class="cls-1" d="M360.57,203.37a2.61,2.61,0,0,0,1.79-.79,2.57,2.57,0,0,1-1.7.71h-.11a1.87,1.87,0,0,1-.34,0,5.08,5.08,0,0,1-2.39-.94,28.34,28.34,0,0,0-4.38-2.34,11.18,11.18,0,0,0-2.87-.69h0a9.28,9.28,0,0,0-1.06-.09c-.39,0-.8,0-1.21,0l-.33,0c-.24,0-.49,0-.73.08s-.48.07-.72.12a7.33,7.33,0,0,0-3.33,1.5c2.55-2.08,7.41-2,10.22-.87a29.17,29.17,0,0,1,4.38,2.33A5,5,0,0,0,360.57,203.37Z" transform="translate(-6.16 -4.29)"/><path class="cls-1" d="M336.22,213.49a12.35,12.35,0,0,1-1.27-1.16,6.63,6.63,0,0,1-.57-.61l0-.06a6.76,6.76,0,0,1-.44-.61,9.86,9.86,0,0,1-1.57-5.89c-.05-6.9,5.68-11.68,12.42-12.74V189a3.44,3.44,0,0,1,2.57-3.47l-.27.08-.13,0-.13,0a1.08,1.08,0,0,0-.24.12l-.17.08-.16.1h0a0,0,0,0,0,0,0l0,0h0a3.44,3.44,0,0,0-.36.28,1,1,0,0,0-.21.19c0,.07-.12.14-.18.21a2.69,2.69,0,0,0-.38.59c0,.1-.09.18-.13.28l-.09.26a2.92,2.92,0,0,0-.1.4,3.94,3.94,0,0,0,0,.6v3.57l-.59.11h0c-.41.07-.81.17-1.21.27a18.08,18.08,0,0,0-2.94,1.08c-.28.13-.55.28-.82.42a11.55,11.55,0,0,0-1.53,1c-.18.12-.37.26-.54.4l-.3.25s0,0,0,0l-.32.26-.27.24-.21.21-.41.4-.09.1h0l-.35.4s0,0,0,0l-.09.11h0c-.09.12-.19.24-.28.37a1.27,1.27,0,0,0-.13.19.79.79,0,0,0-.12.15,3.17,3.17,0,0,0-.23.36l0,0-.06.08,0,0-.07.1-.22.35c-.1.18-.19.34-.28.52a.84.84,0,0,0-.08.19,3.41,3.41,0,0,0-.17.33c-.08.17-.14.35-.22.53s-.14.37-.2.56c-.12.37-.22.76-.31,1.15,0,.11-.05.22-.07.34s0,.07,0,.11a.53.53,0,0,1,0,.12v0c0,.16-.05.32-.07.48v0h0a10.65,10.65,0,0,0-.08,1.4,9.8,9.8,0,0,0,2.05,6.56A12.62,12.62,0,0,0,336.22,213.49Z" transform="translate(-6.16 -4.29)"/><path class="cls-1" d="M347.92,185.37l-.15,0-.09,0a.78.78,0,0,1,.22,0h0Z" transform="translate(-6.16 -4.29)"/><path class="cls-1" d="M367.35,186.65l-.13-.09c.26.18.51.37.78.55C367.78,187,367.57,186.79,367.35,186.65Z" transform="translate(-6.16 -4.29)"/><path class="cls-1" d="M369.13,188c-.3-.23-.59-.46-.89-.67.44.34.88.68,1.29,1C369.4,188.18,369.26,188.07,369.13,188Z" transform="translate(-6.16 -4.29)"/><path class="cls-1" d="M347.92,185.37l-.15,0-.09,0a.78.78,0,0,1,.22,0h0Z" transform="translate(-6.16 -4.29)"/><path class="cls-1" d="M367.35,186.65l-.13-.09c.26.18.51.37.78.55C367.78,187,367.57,186.79,367.35,186.65Z" transform="translate(-6.16 -4.29)"/><path class="cls-1" d="M369.13,188c-.3-.23-.59-.46-.89-.67.44.34.88.68,1.29,1C369.4,188.18,369.26,188.07,369.13,188Z" transform="translate(-6.16 -4.29)"/><path class="cls-1" d="M354.46,221a3.79,3.79,0,0,0-.31-.39c-.07-.08-.16-.16-.25-.25a2.23,2.23,0,0,0-.24-.19,3.51,3.51,0,0,1,1.33,2.66,4.61,4.61,0,0,1-1.35,3.35l0,0a4.47,4.47,0,0,1-.41.35c-.15.11-.32.22-.49.32a1.3,1.3,0,0,1-.26.14,2.28,2.28,0,0,1-.35.17,3,3,0,0,1-.46.19l-.34.12-.6.17-.32.06-.73.13a14.32,14.32,0,0,1-2,.13c-.46,0-.91,0-1.36-.06h0l-.53-.05-.89-.12-.65-.1c-.62-.13-1.21-.28-1.76-.43a24.33,24.33,0,0,1-5.22-2.37c-1.3-.71-2.39-1.14-3.4-.87a1.92,1.92,0,0,0-.31.11,1.25,1.25,0,0,0-.31.15h0l.11.13,0,0-.05-.05a2.91,2.91,0,0,1,2.79,0l.47.2.67.34.09.05c.38.24.77.45,1.17.66s.85.43,1.28.63l.66.28a22.32,22.32,0,0,0,2.11.8c4.38,1.29,12.46,1.55,12.58-4.4A3.54,3.54,0,0,0,354.46,221Z" transform="translate(-6.16 -4.29)"/><path class="cls-1" d="M336.22,213.49a12.35,12.35,0,0,1-1.27-1.16,6.63,6.63,0,0,1-.57-.61l0-.06a6.76,6.76,0,0,1-.44-.61,9.86,9.86,0,0,1-1.57-5.89c-.05-6.9,5.68-11.68,12.42-12.74V189a3.44,3.44,0,0,1,2.57-3.47l-.27.08-.13,0-.13,0a1.08,1.08,0,0,0-.24.12l-.17.08-.16.1h0a0,0,0,0,0,0,0l0,0h0a3.44,3.44,0,0,0-.36.28,1,1,0,0,0-.21.19c0,.07-.12.14-.18.21a2.69,2.69,0,0,0-.38.59c0,.1-.09.18-.13.28l-.09.26a2.92,2.92,0,0,0-.1.4,3.94,3.94,0,0,0,0,.6v3.57l-.59.11h0c-.41.07-.81.17-1.21.27a18.08,18.08,0,0,0-2.94,1.08c-.28.13-.55.28-.82.42a11.55,11.55,0,0,0-1.53,1c-.18.12-.37.26-.54.4l-.3.25s0,0,0,0l-.32.26-.27.24-.21.21-.41.4-.09.1h0l-.35.4s0,0,0,0l-.09.11h0c-.09.12-.19.24-.28.37a1.27,1.27,0,0,0-.13.19.79.79,0,0,0-.12.15,3.17,3.17,0,0,0-.23.36l0,0-.06.08,0,0-.07.1-.22.35c-.1.18-.19.34-.28.52a.84.84,0,0,0-.08.19,3.41,3.41,0,0,0-.17.33c-.08.17-.14.35-.22.53s-.14.37-.2.56c-.12.37-.22.76-.31,1.15,0,.11-.05.22-.07.34s0,.07,0,.11a.53.53,0,0,1,0,.12v0c0,.16-.05.32-.07.48v0h0a10.65,10.65,0,0,0-.08,1.4,9.8,9.8,0,0,0,2.05,6.56A12.62,12.62,0,0,0,336.22,213.49Z" transform="translate(-6.16 -4.29)"/><path class="cls-1" d="M444.93,166.8a9.92,9.92,0,0,0-.55-1.4,10.41,10.41,0,0,0-3.51-4.06h0a10.44,10.44,0,0,0-1.27-.72h0a9,9,0,0,0-.9-.38l-.42-.15a6.93,6.93,0,0,0-.75-.2,10.23,10.23,0,0,0-2.36-.28h-173a10.84,10.84,0,0,0-2.13.22c-.22.05-.44.09-.67.16a5.43,5.43,0,0,0-.53.17,8.89,8.89,0,0,0-1,.41c-.19.08-.37.18-.56.28a8.05,8.05,0,0,0-.83.51h0c-.28.2-.54.39-.78.6a9.06,9.06,0,0,0-.73.66,3.76,3.76,0,0,0-.34.35c-.11.13-.22.24-.32.37h0c-.21.25-.4.5-.6.78h0a14.51,14.51,0,0,0-.74,1.27,9.53,9.53,0,0,0-.38.93l-.17.48a10.22,10.22,0,0,0-.46,3h0v87.54c0,.19,0,.37,0,.55v0a1.49,1.49,0,0,0,0,.21,1.64,1.64,0,0,0,0,.23v.06c0,.16,0,.3.07.45V259c0,.05,0,.08,0,.12s0,.05,0,.07,0,0,0,.05a0,0,0,0,1,0,0q0,.09,0,.15v.06c0,.18.07.35.11.52s.09.3.14.45v0a.76.76,0,0,1,.06.16h0c0,.1.07.19.1.28a4.52,4.52,0,0,0,.18.47l.11.24a1.7,1.7,0,0,1,.09.24c.07.14.15.3.23.44.16.3.33.57.51.84a3.32,3.32,0,0,0,.3.38,4.31,4.31,0,0,0,.62.76c.1.12.21.25.34.38l.16.14.05.05,0,0,0,0,.05,0,.21.18.19.17.1.08a3.48,3.48,0,0,0,.28.24c.26.2.53.38.81.56l.6.33a10.23,10.23,0,0,0,4.72,1.16h173a10.09,10.09,0,0,0,6.52-2.35c.25-.21.5-.43.73-.66a10.54,10.54,0,0,0,1.77-2.37c.16-.29.29-.58.43-.88a10.33,10.33,0,0,0,.81-4h0V169.85A10.24,10.24,0,0,0,444.93,166.8Zm-12.16,62h0l-.38.13-.09,0-.28.1-.63.23-.32.11-.29.12-.56.22h0c-.27.1-.55.22-.82.35l-1.23.54-.4.19c-.27.12-.53.27-.81.4l-.16.09-.64.32-.8.44c-.26.16-.53.3-.78.47s-.5.3-.76.44h0l-.38.26-.18.11-.19.12-.17.13-.55.37c-.38.26-.76.54-1.14.81l-1.06.81c-.87.68-1.72,1.4-2.52,2.16-.27.24-.53.5-.78.76l-.39.39h0l-.22.22c-.31.31-.62.63-.91,1h0l-.26.3-.08.08c-.26.28-.5.56-.74.84h0c-.35.42-.69.85-1,1.27s-.42.55-.61.82a.21.21,0,0,0,0,.06l0,0s0,0,0,0l0,0h0l0,0s0,0,0,0l-.06.07-.11.17s0,0,0,0v0c-.06.1-.13.18-.2.28h0l0,0s0,0,0,0c-.19.27-.37.55-.57.84l-.35.55c-.06.1-.13.18-.18.28s0,0,0,.05l-.21.33-.31.53c-.17.29-.35.58-.51.88a.41.41,0,0,1,0,.09l-.35.64c-.1.2-.21.39-.3.58l0,0-.24.45h0a0,0,0,0,1,0,0c-.18.39-.37.78-.54,1.17l0,.11a.63.63,0,0,0,0,.09.47.47,0,0,0-.05.1h0c-.21.49-.43,1-.63,1.48v0s0,0,0,0c-.18.45-.35.91-.52,1.38,0,.05,0,.09,0,.14s-.05.14-.07.21c-.17.45-.31.91-.46,1.38a2.58,2.58,0,0,1-.08.26c-.13.42-.25.85-.37,1.29H291.33c-.12-.43-.24-.86-.37-1.28a.06.06,0,0,0,0,0c-.13-.44-.27-.86-.41-1.29s-.31-.92-.49-1.36-.3-.79-.46-1.18-.37-.87-.56-1.28-.37-.79-.55-1.17c-.39-.81-.81-1.6-1.27-2.37h0c-.14-.26-.29-.5-.45-.74a.31.31,0,0,0-.05-.1.25.25,0,0,0,0-.07h0a.2.2,0,0,0,0-.08.18.18,0,0,0-.05-.07s0,0,0-.06h0s0,0,0,0l-.38-.59s0,0-.05-.06a3.4,3.4,0,0,0-.28-.45l-.06-.08c-.23-.35-.47-.7-.72-1l0,0c-.22-.3-.44-.6-.67-.89a.76.76,0,0,0-.08-.11l-.08-.12s0,0,0,0a.21.21,0,0,1,0-.06c-.24-.3-.49-.59-.71-.88h0l-.14-.16c-.21-.26-.44-.52-.67-.79a.69.69,0,0,1-.11-.13l-.83-.91h0c-.28-.31-.58-.6-.87-.9l-.05,0,0-.05c-.3-.3-.6-.58-.9-.87s-.63-.59-.95-.87l-.07-.06-1-.83c-.34-.29-.69-.56-1-.83l-.09-.07c-.33-.24-.64-.5-1-.75a40.8,40.8,0,0,0-13.4-6.32V199a40.76,40.76,0,0,0,17.87-10.06c.28-.26.55-.53.83-.82l.11-.11.11-.12c.3-.3.58-.61.88-.92l.07-.09.12-.14c.41-.45.81-.92,1.2-1.4l.11-.13.27-.33,0,0a40.68,40.68,0,0,0,6.81-12.65h116s0,0,0,0a40.6,40.6,0,0,0,7.59,13.58,38.76,38.76,0,0,0,4.92,4.92,40.26,40.26,0,0,0,13.62,7.59Z" transform="translate(-6.16 -4.29)"/><path class="cls-1" d="M357.83,182.09h0c-.66-.19-1.32-.37-2-.51s-1.34-.28-2-.39a33,33,0,0,0-18.3,2.31c-.63.29-1.26.58-1.88.9l-.91.48h31.78l1,.55c-.31-.2-.62-.37-.94-.55A33.43,33.43,0,0,0,357.83,182.09Z" transform="translate(-6.16 -4.29)"/><path class="cls-1" d="M360.55,203.29a1.87,1.87,0,0,1-.34,0,5.08,5.08,0,0,1-2.39-.94,28.34,28.34,0,0,0-4.38-2.34,11.18,11.18,0,0,0-2.87-.69h0a9.28,9.28,0,0,0-1.06-.09c-.39,0-.8,0-1.21,0l-.33,0c-.24,0-.49,0-.73.08s-.48.07-.72.12a7.33,7.33,0,0,0-3.33,1.5c2.55-2.08,7.41-2,10.22-.87a29.17,29.17,0,0,1,4.38,2.33,5,5,0,0,0,2.81,1,2.61,2.61,0,0,0,1.79-.79,2.57,2.57,0,0,1-1.7.71Z" transform="translate(-6.16 -4.29)"/><path class="cls-1" d="M347.92,185.37l-.15,0-.09,0a.78.78,0,0,1,.22,0h0Z" transform="translate(-6.16 -4.29)"/><path class="cls-1" d="M367.35,186.65l-.13-.09c.26.18.51.37.78.55C367.78,187,367.57,186.79,367.35,186.65Z" transform="translate(-6.16 -4.29)"/><path class="cls-1" d="M369.13,188c-.3-.23-.59-.46-.89-.67.44.34.88.68,1.29,1C369.4,188.18,369.26,188.07,369.13,188Z" transform="translate(-6.16 -4.29)"/><path class="cls-1" d="M347.92,185.37l-.15,0-.09,0a.78.78,0,0,1,.22,0h0Z" transform="translate(-6.16 -4.29)"/><path class="cls-1" d="M367.35,186.65l-.13-.09c.26.18.51.37.78.55C367.78,187,367.57,186.79,367.35,186.65Z" transform="translate(-6.16 -4.29)"/><path class="cls-1" d="M369.13,188c-.3-.23-.59-.46-.89-.67.44.34.88.68,1.29,1C369.4,188.18,369.26,188.07,369.13,188Z" transform="translate(-6.16 -4.29)"/><path class="cls-1" d="M347.92,185.37l-.15,0-.09,0a.78.78,0,0,1,.22,0h0Z" transform="translate(-6.16 -4.29)"/><path class="cls-1" d="M367.35,186.65l-.13-.09c.26.18.51.37.78.55C367.78,187,367.57,186.79,367.35,186.65Z" transform="translate(-6.16 -4.29)"/><path class="cls-1" d="M369.13,188c-.3-.23-.59-.46-.89-.67.44.34.88.68,1.29,1C369.4,188.18,369.26,188.07,369.13,188Z" transform="translate(-6.16 -4.29)"/><path class="cls-1" d="M347.92,185.37l-.15,0-.09,0a.78.78,0,0,1,.22,0h0Z" transform="translate(-6.16 -4.29)"/><path class="cls-1" d="M367.35,186.65l-.13-.09c.26.18.51.37.78.55C367.78,187,367.57,186.79,367.35,186.65Z" transform="translate(-6.16 -4.29)"/><path class="cls-1" d="M369.13,188c-.3-.23-.59-.46-.89-.67.44.34.88.68,1.29,1C369.4,188.18,369.26,188.07,369.13,188Z" transform="translate(-6.16 -4.29)"/><path class="cls-1" d="M347.92,185.37l-.15,0-.09,0a.78.78,0,0,1,.22,0h0Z" transform="translate(-6.16 -4.29)"/><path class="cls-1" d="M367.35,186.65l-.13-.09c.26.18.51.37.78.55C367.78,187,367.57,186.79,367.35,186.65Z" transform="translate(-6.16 -4.29)"/><path class="cls-1" d="M369.13,188c-.3-.23-.59-.46-.89-.67.44.34.88.68,1.29,1C369.4,188.18,369.26,188.07,369.13,188Z" transform="translate(-6.16 -4.29)"/><path class="cls-1" d="M347.92,185.37l-.15,0-.09,0a.78.78,0,0,1,.22,0h0Z" transform="translate(-6.16 -4.29)"/><path class="cls-1" d="M367.35,186.65l-.13-.09c.26.18.51.37.78.55C367.78,187,367.57,186.79,367.35,186.65Z" transform="translate(-6.16 -4.29)"/><path class="cls-1" d="M369.13,188c-.3-.23-.59-.46-.89-.67.44.34.88.68,1.29,1C369.4,188.18,369.26,188.07,369.13,188Z" transform="translate(-6.16 -4.29)"/><path class="cls-1" d="M347.92,185.37l-.15,0-.09,0a.78.78,0,0,1,.22,0h0Z" transform="translate(-6.16 -4.29)"/><path class="cls-1" d="M367.35,186.65l-.13-.09c.26.18.51.37.78.55C367.78,187,367.57,186.79,367.35,186.65Z" transform="translate(-6.16 -4.29)"/><path class="cls-1" d="M369.13,188c-.3-.23-.59-.46-.89-.67.44.34.88.68,1.29,1C369.4,188.18,369.26,188.07,369.13,188Z" transform="translate(-6.16 -4.29)"/><path class="cls-1" d="M347.92,185.37l-.15,0-.09,0a.78.78,0,0,1,.22,0h0Z" transform="translate(-6.16 -4.29)"/><path class="cls-1" d="M367.35,186.65l-.13-.09c.26.18.51.37.78.55C367.78,187,367.57,186.79,367.35,186.65Z" transform="translate(-6.16 -4.29)"/><path class="cls-1" d="M369.13,188c-.3-.23-.59-.46-.89-.67.44.34.88.68,1.29,1C369.4,188.18,369.26,188.07,369.13,188Z" transform="translate(-6.16 -4.29)"/><path class="cls-1" d="M347.92,185.37l-.15,0-.09,0a.78.78,0,0,1,.22,0h0Z" transform="translate(-6.16 -4.29)"/><path class="cls-1" d="M367.35,186.65l-.13-.09c.26.18.51.37.78.55C367.78,187,367.57,186.79,367.35,186.65Z" transform="translate(-6.16 -4.29)"/><path class="cls-1" d="M369.13,188c-.3-.23-.59-.46-.89-.67.44.34.88.68,1.29,1C369.4,188.18,369.26,188.07,369.13,188Z" transform="translate(-6.16 -4.29)"/><path class="cls-1" d="M347.92,185.37l-.15,0-.09,0a.78.78,0,0,1,.22,0h0Z" transform="translate(-6.16 -4.29)"/><path class="cls-1" d="M367.35,186.65l-.13-.09c.26.18.51.37.78.55C367.78,187,367.57,186.79,367.35,186.65Z" transform="translate(-6.16 -4.29)"/><path class="cls-1" d="M369.13,188c-.3-.23-.59-.46-.89-.67.44.34.88.68,1.29,1C369.4,188.18,369.26,188.07,369.13,188Z" transform="translate(-6.16 -4.29)"/><path class="cls-1" d="M347.92,185.37l-.15,0-.09,0a.78.78,0,0,1,.22,0h0Z" transform="translate(-6.16 -4.29)"/><path class="cls-1" d="M367.35,186.65l-.13-.09c.26.18.51.37.78.55C367.78,187,367.57,186.79,367.35,186.65Z" transform="translate(-6.16 -4.29)"/><path class="cls-1" d="M369.13,188c-.3-.23-.59-.46-.89-.67.44.34.88.68,1.29,1C369.4,188.18,369.26,188.07,369.13,188Z" transform="translate(-6.16 -4.29)"/><path class="cls-1" d="M347.92,185.37l-.15,0-.09,0a.78.78,0,0,1,.22,0h0Z" transform="translate(-6.16 -4.29)"/><path class="cls-1" d="M367.35,186.65l-.13-.09c.26.18.51.37.78.55C367.78,187,367.57,186.79,367.35,186.65Z" transform="translate(-6.16 -4.29)"/><path class="cls-1" d="M369.13,188c-.3-.23-.59-.46-.89-.67.44.34.88.68,1.29,1C369.4,188.18,369.26,188.07,369.13,188Z" transform="translate(-6.16 -4.29)"/><path class="cls-1" d="M347.92,185.37l-.15,0-.09,0a.78.78,0,0,1,.22,0h0Z" transform="translate(-6.16 -4.29)"/><path class="cls-1" d="M367.35,186.65l-.13-.09c.26.18.51.37.78.55C367.78,187,367.57,186.79,367.35,186.65Z" transform="translate(-6.16 -4.29)"/><path class="cls-1" d="M369.13,188c-.3-.23-.59-.46-.89-.67.44.34.88.68,1.29,1C369.4,188.18,369.26,188.07,369.13,188Z" transform="translate(-6.16 -4.29)"/><path class="cls-1" d="M369.13,188c-.3-.23-.59-.46-.89-.67.44.34.88.68,1.29,1C369.4,188.18,369.26,188.07,369.13,188Z" transform="translate(-6.16 -4.29)"/><path class="cls-1" d="M367.35,186.65l-.13-.09c.26.18.51.37.78.55C367.78,187,367.57,186.79,367.35,186.65Z" transform="translate(-6.16 -4.29)"/><path class="cls-1" d="M347.92,185.37l-.15,0-.09,0a.78.78,0,0,1,.22,0h0Z" transform="translate(-6.16 -4.29)"/><path class="cls-1" d="M347.92,185.37l-.15,0-.09,0a.78.78,0,0,1,.22,0h0Z" transform="translate(-6.16 -4.29)"/><path class="cls-1" d="M367.35,186.65l-.13-.09c.26.18.51.37.78.55C367.78,187,367.57,186.79,367.35,186.65Z" transform="translate(-6.16 -4.29)"/><path class="cls-1" d="M369.13,188c-.3-.23-.59-.46-.89-.67.44.34.88.68,1.29,1C369.4,188.18,369.26,188.07,369.13,188Z" transform="translate(-6.16 -4.29)"/><path class="cls-1" d="M369.13,188c-.3-.23-.59-.46-.89-.67.44.34.88.68,1.29,1C369.4,188.18,369.26,188.07,369.13,188Z" transform="translate(-6.16 -4.29)"/><path class="cls-1" d="M367.35,186.65l-.13-.09c.26.18.51.37.78.55C367.78,187,367.57,186.79,367.35,186.65Z" transform="translate(-6.16 -4.29)"/><path class="cls-1" d="M347.92,185.37l-.15,0-.09,0a.78.78,0,0,1,.22,0h0Z" transform="translate(-6.16 -4.29)"/><path class="cls-1" d="M347.92,185.37l-.15,0-.09,0a.78.78,0,0,1,.22,0h0Z" transform="translate(-6.16 -4.29)"/><path class="cls-1" d="M367.35,186.65l-.13-.09c.26.18.51.37.78.55C367.78,187,367.57,186.79,367.35,186.65Z" transform="translate(-6.16 -4.29)"/><path class="cls-1" d="M369.13,188c-.3-.23-.59-.46-.89-.67.44.34.88.68,1.29,1C369.4,188.18,369.26,188.07,369.13,188Z" transform="translate(-6.16 -4.29)"/><path class="cls-1" d="M369.13,188c-.3-.23-.59-.46-.89-.67.44.34.88.68,1.29,1C369.4,188.18,369.26,188.07,369.13,188Z" transform="translate(-6.16 -4.29)"/><path class="cls-1" d="M367.35,186.65l-.13-.09c.26.18.51.37.78.55C367.78,187,367.57,186.79,367.35,186.65Z" transform="translate(-6.16 -4.29)"/><path class="cls-1" d="M347.92,185.37l-.15,0-.09,0a.78.78,0,0,1,.22,0h0Z" transform="translate(-6.16 -4.29)"/><path class="cls-1" d="M347.92,185.37l-.15,0-.09,0a.78.78,0,0,1,.22,0h0Z" transform="translate(-6.16 -4.29)"/><path class="cls-1" d="M367.35,186.65l-.13-.09c.26.18.51.37.78.55C367.78,187,367.57,186.79,367.35,186.65Z" transform="translate(-6.16 -4.29)"/><path class="cls-1" d="M369.13,188c-.3-.23-.59-.46-.89-.67.44.34.88.68,1.29,1C369.4,188.18,369.26,188.07,369.13,188Z" transform="translate(-6.16 -4.29)"/><path class="cls-1" d="M369.13,188c-.3-.23-.59-.46-.89-.67.44.34.88.68,1.29,1C369.4,188.18,369.26,188.07,369.13,188Z" transform="translate(-6.16 -4.29)"/><path class="cls-1" d="M367.22,186.56c.26.18.51.37.78.55-.22-.16-.43-.32-.65-.46Z" transform="translate(-6.16 -4.29)"/><path class="cls-1" d="M347.92,185.37l-.15,0-.09,0a.78.78,0,0,1,.22,0h0Z" transform="translate(-6.16 -4.29)"/><path class="cls-1" d="M369.13,188c-.3-.23-.59-.46-.89-.67.44.34.88.68,1.29,1C369.4,188.18,369.26,188.07,369.13,188Z" transform="translate(-6.16 -4.29)"/><path class="cls-1" d="M367.35,186.65l-.13-.09c.26.18.51.37.78.55C367.78,187,367.57,186.79,367.35,186.65Z" transform="translate(-6.16 -4.29)"/><path class="cls-1" d="M347.92,185.37l-.15,0-.09,0a.78.78,0,0,1,.22,0h0Z" transform="translate(-6.16 -4.29)"/><path class="cls-1" d="M347.92,185.37l-.15,0-.09,0a.78.78,0,0,1,.22,0h0Z" transform="translate(-6.16 -4.29)"/><path class="cls-1" d="M367.35,186.65l-.13-.09c.26.18.51.37.78.55C367.78,187,367.57,186.79,367.35,186.65Z" transform="translate(-6.16 -4.29)"/><path class="cls-1" d="M369.13,188c-.3-.23-.59-.46-.89-.67.44.34.88.68,1.29,1C369.4,188.18,369.26,188.07,369.13,188Z" transform="translate(-6.16 -4.29)"/><path class="cls-1" d="M369.13,188c-.3-.23-.59-.46-.89-.67.44.34.88.68,1.29,1C369.4,188.18,369.26,188.07,369.13,188Z" transform="translate(-6.16 -4.29)"/><path class="cls-1" d="M367.35,186.65l-.13-.09c.26.18.51.37.78.55C367.78,187,367.57,186.79,367.35,186.65Z" transform="translate(-6.16 -4.29)"/><path class="cls-1" d="M347.92,185.37l-.15,0-.09,0a.78.78,0,0,1,.22,0h0Z" transform="translate(-6.16 -4.29)"/><path class="cls-1" d="M347.92,185.37l-.15,0-.09,0a.78.78,0,0,1,.22,0h0Z" transform="translate(-6.16 -4.29)"/><path class="cls-1" d="M367.35,186.65l-.13-.09c.26.18.51.37.78.55C367.78,187,367.57,186.79,367.35,186.65Z" transform="translate(-6.16 -4.29)"/><path class="cls-1" d="M369.13,188c-.3-.23-.59-.46-.89-.67.44.34.88.68,1.29,1C369.4,188.18,369.26,188.07,369.13,188Z" transform="translate(-6.16 -4.29)"/><path class="cls-1" d="M369.13,188c-.3-.23-.59-.46-.89-.67.44.34.88.68,1.29,1C369.4,188.18,369.26,188.07,369.13,188Z" transform="translate(-6.16 -4.29)"/><path class="cls-1" d="M367.35,186.65l-.13-.09c.26.18.51.37.78.55C367.78,187,367.57,186.79,367.35,186.65Z" transform="translate(-6.16 -4.29)"/><path class="cls-1" d="M347.92,185.37l-.15,0-.09,0a.78.78,0,0,1,.22,0h0Z" transform="translate(-6.16 -4.29)"/><path class="cls-1" d="M347.92,185.37l-.15,0-.09,0a.78.78,0,0,1,.22,0h0Z" transform="translate(-6.16 -4.29)"/><path class="cls-1" d="M367.35,186.65l-.13-.09c.26.18.51.37.78.55C367.78,187,367.57,186.79,367.35,186.65Z" transform="translate(-6.16 -4.29)"/><path class="cls-1" d="M369.13,188c-.3-.23-.59-.46-.89-.67.44.34.88.68,1.29,1C369.4,188.18,369.26,188.07,369.13,188Z" transform="translate(-6.16 -4.29)"/><path class="cls-1" d="M369.13,188c-.3-.23-.59-.46-.89-.67.44.34.88.68,1.29,1C369.4,188.18,369.26,188.07,369.13,188Z" transform="translate(-6.16 -4.29)"/><path class="cls-1" d="M367.35,186.65l-.13-.09c.26.18.51.37.78.55C367.78,187,367.57,186.79,367.35,186.65Z" transform="translate(-6.16 -4.29)"/><path class="cls-1" d="M347.92,185.37l-.15,0-.09,0a.78.78,0,0,1,.22,0h0Z" transform="translate(-6.16 -4.29)"/><path class="cls-1" d="M347.92,185.37l-.15,0-.09,0a.78.78,0,0,1,.22,0h0Z" transform="translate(-6.16 -4.29)"/><path class="cls-1" d="M367.35,186.65l-.13-.09c.26.18.51.37.78.55C367.78,187,367.57,186.79,367.35,186.65Z" transform="translate(-6.16 -4.29)"/><path class="cls-1" d="M369.13,188c-.3-.23-.59-.46-.89-.67.44.34.88.68,1.29,1C369.4,188.18,369.26,188.07,369.13,188Z" transform="translate(-6.16 -4.29)"/><path class="cls-1" d="M347.92,185.37l-.15,0-.09,0a.78.78,0,0,1,.22,0h0Z" transform="translate(-6.16 -4.29)"/><path class="cls-1" d="M367.35,186.65l-.13-.09c.26.18.51.37.78.55C367.78,187,367.57,186.79,367.35,186.65Z" transform="translate(-6.16 -4.29)"/><path class="cls-1" d="M369.13,188c-.3-.23-.59-.46-.89-.67.44.34.88.68,1.29,1C369.4,188.18,369.26,188.07,369.13,188Z" transform="translate(-6.16 -4.29)"/><path class="cls-1" d="M347.92,185.37l-.15,0-.09,0a.78.78,0,0,1,.22,0h0Z" transform="translate(-6.16 -4.29)"/><path class="cls-1" d="M367.35,186.65l-.13-.09c.26.18.51.37.78.55C367.78,187,367.57,186.79,367.35,186.65Z" transform="translate(-6.16 -4.29)"/><path class="cls-1" d="M369.13,188c-.3-.23-.59-.46-.89-.67.44.34.88.68,1.29,1C369.4,188.18,369.26,188.07,369.13,188Z" transform="translate(-6.16 -4.29)"/><path class="cls-1" d="M347.92,185.37l-.15,0-.09,0a.78.78,0,0,1,.22,0h0Z" transform="translate(-6.16 -4.29)"/><path class="cls-1" d="M367.35,186.65l-.13-.09c.26.18.51.37.78.55C367.78,187,367.57,186.79,367.35,186.65Z" transform="translate(-6.16 -4.29)"/><path class="cls-1" d="M369.13,188c-.3-.23-.59-.46-.89-.67.44.34.88.68,1.29,1C369.4,188.18,369.26,188.07,369.13,188Z" transform="translate(-6.16 -4.29)"/><path class="cls-1" d="M347.92,185.37l-.15,0-.09,0a.78.78,0,0,1,.22,0h0Z" transform="translate(-6.16 -4.29)"/><path class="cls-1" d="M367.35,186.65l-.13-.09c.26.18.51.37.78.55C367.78,187,367.57,186.79,367.35,186.65Z" transform="translate(-6.16 -4.29)"/><path class="cls-1" d="M369.13,188c-.3-.23-.59-.46-.89-.67.44.34.88.68,1.29,1C369.4,188.18,369.26,188.07,369.13,188Z" transform="translate(-6.16 -4.29)"/><path class="cls-1" d="M347.92,185.37l-.15,0-.09,0a.78.78,0,0,1,.22,0h0Z" transform="translate(-6.16 -4.29)"/><path class="cls-1" d="M367.35,186.65l-.13-.09c.26.18.51.37.78.55C367.78,187,367.57,186.79,367.35,186.65Z" transform="translate(-6.16 -4.29)"/><path class="cls-1" d="M369.13,188c-.3-.23-.59-.46-.89-.67.44.34.88.68,1.29,1C369.4,188.18,369.26,188.07,369.13,188Z" transform="translate(-6.16 -4.29)"/><path class="cls-1" d="M347.92,185.37l-.15,0-.09,0a.78.78,0,0,1,.22,0h0Z" transform="translate(-6.16 -4.29)"/><path class="cls-1" d="M367.35,186.65l-.13-.09c.26.18.51.37.78.55C367.78,187,367.57,186.79,367.35,186.65Z" transform="translate(-6.16 -4.29)"/><path class="cls-1" d="M369.13,188c-.3-.23-.59-.46-.89-.67.44.34.88.68,1.29,1C369.4,188.18,369.26,188.07,369.13,188Z" transform="translate(-6.16 -4.29)"/><path class="cls-1" d="M347.92,185.37l-.15,0-.09,0a.78.78,0,0,1,.22,0h0Z" transform="translate(-6.16 -4.29)"/><path class="cls-1" d="M367.35,186.65l-.13-.09c.26.18.51.37.78.55C367.78,187,367.57,186.79,367.35,186.65Z" transform="translate(-6.16 -4.29)"/><path class="cls-1" d="M369.13,188c-.3-.23-.59-.46-.89-.67.44.34.88.68,1.29,1C369.4,188.18,369.26,188.07,369.13,188Z" transform="translate(-6.16 -4.29)"/><path class="cls-1" d="M347.92,185.37l-.15,0-.09,0a.78.78,0,0,1,.22,0h0Z" transform="translate(-6.16 -4.29)"/><path class="cls-1" d="M367.35,186.65l-.13-.09c.26.18.51.37.78.55C367.78,187,367.57,186.79,367.35,186.65Z" transform="translate(-6.16 -4.29)"/><path class="cls-1" d="M369.13,188c-.3-.23-.59-.46-.89-.67.44.34.88.68,1.29,1C369.4,188.18,369.26,188.07,369.13,188Z" transform="translate(-6.16 -4.29)"/><path class="cls-1" d="M347.92,185.37l-.15,0-.09,0a.78.78,0,0,1,.22,0h0Z" transform="translate(-6.16 -4.29)"/><path class="cls-1" d="M367.35,186.65l-.13-.09c.26.18.51.37.78.55C367.78,187,367.57,186.79,367.35,186.65Z" transform="translate(-6.16 -4.29)"/><path class="cls-1" d="M369.13,188c-.3-.23-.59-.46-.89-.67.44.34.88.68,1.29,1C369.4,188.18,369.26,188.07,369.13,188Z" transform="translate(-6.16 -4.29)"/><path class="cls-1" d="M347.92,185.37l-.15,0-.09,0a.78.78,0,0,1,.22,0h0Z" transform="translate(-6.16 -4.29)"/><path class="cls-1" d="M367.35,186.65l-.13-.09c.26.18.51.37.78.55C367.78,187,367.57,186.79,367.35,186.65Z" transform="translate(-6.16 -4.29)"/><path class="cls-1" d="M369.13,188c-.3-.23-.59-.46-.89-.67.44.34.88.68,1.29,1C369.4,188.18,369.26,188.07,369.13,188Z" transform="translate(-6.16 -4.29)"/><path class="cls-1" d="M347.92,185.37l-.15,0-.09,0a.78.78,0,0,1,.22,0h0Z" transform="translate(-6.16 -4.29)"/><path class="cls-1" d="M367.35,186.65l-.13-.09c.26.18.51.37.78.55C367.78,187,367.57,186.79,367.35,186.65Z" transform="translate(-6.16 -4.29)"/><path class="cls-1" d="M369.13,188c-.3-.23-.59-.46-.89-.67.44.34.88.68,1.29,1C369.4,188.18,369.26,188.07,369.13,188Z" transform="translate(-6.16 -4.29)"/><path class="cls-1" d="M347.92,185.37l-.15,0-.09,0a.78.78,0,0,1,.22,0h0Z" transform="translate(-6.16 -4.29)"/><path class="cls-1" d="M367.35,186.65l-.13-.09c.26.18.51.37.78.55C367.78,187,367.57,186.79,367.35,186.65Z" transform="translate(-6.16 -4.29)"/><path class="cls-1" d="M369.13,188c-.3-.23-.59-.46-.89-.67.44.34.88.68,1.29,1C369.4,188.18,369.26,188.07,369.13,188Z" transform="translate(-6.16 -4.29)"/><path class="cls-1" d="M347.92,185.37l-.15,0-.09,0a.78.78,0,0,1,.22,0h0Z" transform="translate(-6.16 -4.29)"/><path class="cls-1" d="M367.35,186.65l-.13-.09c.26.18.51.37.78.55C367.78,187,367.57,186.79,367.35,186.65Z" transform="translate(-6.16 -4.29)"/><path class="cls-1" d="M369.13,188c-.3-.23-.59-.46-.89-.67.44.34.88.68,1.29,1C369.4,188.18,369.26,188.07,369.13,188Z" transform="translate(-6.16 -4.29)"/><path class="cls-1" d="M335.38,197.09l-.38.43s0,0,0,0l.35-.4a.94.94,0,0,1,.1-.1Z" transform="translate(-6.16 -4.29)"/><path class="cls-1" d="M334.49,198.19c-.12.17-.24.33-.35.51a3.17,3.17,0,0,1,.23-.36,3,3,0,0,1,.25-.34c.09-.13.19-.25.28-.37l.1-.11-.09.11C334.77,197.81,334.62,198,334.49,198.19Z" transform="translate(-6.16 -4.29)"/><path class="cls-1" d="M336.22,213.49a12.62,12.62,0,0,1-1.93-1.83,9.8,9.8,0,0,1-2.05-6.56,10.65,10.65,0,0,1,.08-1.4h0v0c0-.16,0-.32.07-.48v0a.53.53,0,0,0,0-.12s0-.08,0-.11.05-.23.07-.34c.09-.39.19-.78.31-1.15.06-.19.13-.38.2-.56s.14-.36.22-.53.16-.35.25-.52.18-.34.28-.52L334,199l.07-.1a10.83,10.83,0,0,0-.65,1.16,11.43,11.43,0,0,0-1.12,5.07,9.75,9.75,0,0,0,1.63,6,6.76,6.76,0,0,0,.44.61c.2.24.41.46.61.67A12.35,12.35,0,0,0,336.22,213.49Z" transform="translate(-6.16 -4.29)"/><path class="cls-1" d="M339.07,194.25a15.1,15.1,0,0,0-1.53,1A11.55,11.55,0,0,1,339.07,194.25Z" transform="translate(-6.16 -4.29)"/><path class="cls-1" d="M347.77,185.39l-.09,0h-.11Z" transform="translate(-6.16 -4.29)"/><path class="cls-1" d="M345.8,186.26a3.17,3.17,0,0,1,.75-.5,3.44,3.44,0,0,0-1.86,2.88,1.6,1.6,0,0,0,0,.31v3.4h0v-3.57a3.94,3.94,0,0,1,0-.6,2.92,2.92,0,0,1,.1-.4l.09-.26a2.39,2.39,0,0,1,.13-.28,2.69,2.69,0,0,1,.38-.59c.06-.07.13-.14.18-.21A1,1,0,0,1,345.8,186.26Z" transform="translate(-6.16 -4.29)"/><path class="cls-1" d="M348,185.37h-.24l.15,0Z" transform="translate(-6.16 -4.29)"/><path class="cls-1" d="M348.6,185.37h0Z" transform="translate(-6.16 -4.29)"/><path class="cls-1" d="M338.61,215l-.27-.13-.06,0A3.29,3.29,0,0,1,338.61,215Z" transform="translate(-6.16 -4.29)"/><path class="cls-1" d="M352.6,219.46a1.28,1.28,0,0,1,.3.17h0a9.74,9.74,0,0,0-1.38-.62l-.06,0c-.49-.19-1-.34-1.56-.5-1.1-.31-2.25-.58-3.27-.92-2.54-.75-4.72-1.26-6.68-2,.46.17.92.34,1.39.48.79.25,1.62.48,2.49.71s1.78.47,2.74.75c1.58.54,3.46.9,5,1.52l.66.28Z" transform="translate(-6.16 -4.29)"/><path class="cls-1" d="M353.26,219.84l-.36-.21,0,0Z" transform="translate(-6.16 -4.29)"/><path class="cls-1" d="M353.66,220.15l-.07-.05,0,0Z" transform="translate(-6.16 -4.29)"/><path class="cls-1" d="M353.64,226.16a4.61,4.61,0,0,0,1.35-3.35,3.51,3.51,0,0,0-1.33-2.66,2.23,2.23,0,0,1,.24.19c.09.09.18.17.25.25a3.79,3.79,0,0,1,.31.39,3.72,3.72,0,0,1,.56,1.82A4.52,4.52,0,0,1,353.64,226.16Z" transform="translate(-6.16 -4.29)"/><path class="cls-1" d="M351.29,240.56l-.07.1-.08.1-.17.17a2.6,2.6,0,0,1-.36.3,3.32,3.32,0,0,1-.37.23s0,0,0,0A3.5,3.5,0,0,0,351.29,240.56Z" transform="translate(-6.16 -4.29)"/><path class="cls-1" d="M351.47,240.31a.8.8,0,0,1-.15.21l0,0A2.7,2.7,0,0,0,351.47,240.31Z" transform="translate(-6.16 -4.29)"/><path class="cls-1" d="M352,238.85a1.5,1.5,0,0,1,0,.22s0-.08,0-.12A.34.34,0,0,0,352,238.85Z" transform="translate(-6.16 -4.29)"/><path class="cls-1" d="M352,238.85a.66.66,0,0,0,0-.14A.61.61,0,0,1,352,238.85Z" transform="translate(-6.16 -4.29)"/><path class="cls-1" d="M361,230.58h0v0" transform="translate(-6.16 -4.29)"/><path class="cls-1" d="M352,238.36c0,.12,0,.24,0,.35a3.53,3.53,0,0,0,0-.46" transform="translate(-6.16 -4.29)"/><path class="cls-1" d="M362.73,202.17a4.06,4.06,0,0,0,.89-2.57,3.14,3.14,0,0,0-.14-1.19,1.89,1.89,0,0,0-.11-.36,3.55,3.55,0,0,0-1.42-1.67,22.29,22.29,0,0,0-10.1-4.06V189a3.35,3.35,0,0,0-2-3.27,2.68,2.68,0,0,0-.47-.18,3.5,3.5,0,0,0-.63-.12,3.37,3.37,0,0,1,3.14,3.15,2.94,2.94,0,0,1,0,.42v3.29A22.32,22.32,0,0,1,362,196.3a3.51,3.51,0,0,1,1.68,3.22A4.07,4.07,0,0,1,362.73,202.17Z" transform="translate(-6.16 -4.29)"/><path class="cls-1" d="M363.57,226.49a12.94,12.94,0,0,0,.65-3,2.22,2.22,0,0,1,0,.37,9.12,9.12,0,0,1-.31,1.64,2.45,2.45,0,0,1-.08.29c0,.17-.1.34-.15.5A1.8,1.8,0,0,1,363.57,226.49Z" transform="translate(-6.16 -4.29)"/><path class="cls-1" d="M364.28,222.85a.17.17,0,0,1,0,.07,12.12,12.12,0,0,0-.13-2.42,5.24,5.24,0,0,0-.15-.79l-.12-.51c-.06-.2-.1-.41-.17-.6s-.13-.36-.2-.54a5,5,0,0,0-.34-.74,7.48,7.48,0,0,0-.88-1.33,12,12,0,0,0-4.78-3.54,61.24,61.24,0,0,0-7.14-2.18c-3.17-1-7.22-1.38-8.45-4.09a3,3,0,0,1-.22-.55,5.08,5.08,0,0,1-.17-1.09,4.53,4.53,0,0,1,.7-2.53,4.66,4.66,0,0,0-.64,2.46c.19,4.22,5.11,4.59,8.84,5.72a61.83,61.83,0,0,1,7.14,2.18,12.05,12.05,0,0,1,4.78,3.53,7.59,7.59,0,0,1,.46.65,8.24,8.24,0,0,1,.74,1.45,3,3,0,0,1,.13.36l.06.16v0a.73.73,0,0,1,.05.2.55.55,0,0,1,.06.18l0,.09a3.76,3.76,0,0,1,.13.48,8.85,8.85,0,0,1,.18,1,5.14,5.14,0,0,1,.06.55A11.45,11.45,0,0,1,364.28,222.85Z" transform="translate(-6.16 -4.29)"/><path class="cls-1" d="M362.59,228.59s0-.05,0-.08S362.6,228.56,362.59,228.59Z" transform="translate(-6.16 -4.29)"/><path class="cls-1" d="M362.22,229.15s0,0,0,0l-.06.08c-.13.16-.25.34-.39.5.16-.19.3-.38.44-.58Z" transform="translate(-6.16 -4.29)"/><path class="cls-1" d="M364.49,184.88H332.71l.91-.48c.62-.32,1.25-.61,1.88-.9a33,33,0,0,1,18.3-2.31c.69.11,1.35.24,2,.39s1.33.32,2,.51h0A34.38,34.38,0,0,1,364.49,184.88Z" transform="translate(-6.16 -4.29)"/><path class="cls-1" d="M370.77,189.38l.18.17c-.2-.19-.41-.37-.62-.55Z" transform="translate(-6.16 -4.29)"/><path class="cls-1" d="M374.46,193.37l.63.82c-.14-.17-.26-.35-.41-.52S374.53,193.46,374.46,193.37Z" transform="translate(-6.16 -4.29)"/><path class="cls-1" d="M375.58,194.9l-.47-.68,0,0,0,0h0C375.29,194.45,375.44,194.68,375.58,194.9Z" transform="translate(-6.16 -4.29)"/><path class="cls-1" d="M356.23,245.51l-.25.07-.49.13h0Z" transform="translate(-6.16 -4.29)"/><path class="cls-1" d="M370.66,237.91l.29-.26a20.5,20.5,0,0,1-1.67,1.44c.27-.22.55-.44.81-.68Z" transform="translate(-6.16 -4.29)"/><path class="cls-1" d="M371,237.65c.43-.39.85-.8,1.25-1.22-.32.32-.65.65-1,1Z" transform="translate(-6.16 -4.29)"/><path class="cls-1" d="M379.17,201.63c-.12-.35-.26-.69-.41-1l.09.2c.15.33.28.66.41,1,.06.15.11.29.16.44C379.34,202,379.26,201.83,379.17,201.63Z" transform="translate(-6.16 -4.29)"/><path class="cls-1" d="M372.41,236.2c.36-.39.71-.79,1.06-1.19-.11.13-.22.27-.34.4S372.66,235.94,372.41,236.2Z" transform="translate(-6.16 -4.29)"/><path class="cls-1" d="M376,231.7c.18-.27.35-.53.52-.81a2.82,2.82,0,0,1-.18.29C376.21,231.35,376.1,231.53,376,231.7Z" transform="translate(-6.16 -4.29)"/><path class="cls-1" d="M377.6,229l.07-.15Z" transform="translate(-6.16 -4.29)"/><path class="cls-1" d="M374.38,233.91c.25-.31.49-.64.73-1-.05.07-.09.14-.15.21C374.78,233.42,374.58,233.67,374.38,233.91Z" transform="translate(-6.16 -4.29)"/><path class="cls-1" d="M381.46,213.68c0,.94,0,1.87-.13,2.81,0,.37-.07.74-.11,1.11a32.57,32.57,0,0,1-3.55,11.24c.31-.58.59-1.16.86-1.76.16-.33.29-.66.43-1s.26-.63.37-1,.19-.51.28-.76.24-.71.35-1.08.26-.84.37-1.27.21-.84.31-1.27a1.18,1.18,0,0,0,0-.2c.1-.41.18-.84.25-1.27s.15-.88.21-1.31.13-1.1.17-1.67c0-.33.06-.67.07-1,0-.12,0-.22,0-.33,0-.46,0-.91,0-1.37a32.63,32.63,0,0,0-1.17-8.68c-.08-.34-.18-.68-.28-1,.12.32.21.65.3,1A32.54,32.54,0,0,1,381.46,213.68Z" transform="translate(-6.16 -4.29)"/><path class="cls-1" d="M376.64,230.66c.34-.55.65-1.11,1-1.67-.35.64-.71,1.28-1.1,1.9A1.76,1.76,0,0,0,376.64,230.66Z" transform="translate(-6.16 -4.29)"/><path class="cls-1" d="M374.12,234.24l.26-.33c-.3.38-.6.74-.91,1.1C373.69,234.75,373.91,234.5,374.12,234.24Z" transform="translate(-6.16 -4.29)"/><path class="cls-1" d="M375.76,232c.08-.11.15-.23.22-.34-.28.42-.57.84-.87,1.25C375.34,232.65,375.55,232.35,375.76,232Z" transform="translate(-6.16 -4.29)"/><path class="cls-1" d="M372.35,236.25l.06-.05c-.08.07-.14.16-.21.23A1.19,1.19,0,0,0,372.35,236.25Z" transform="translate(-6.16 -4.29)"/><path class="cls-1" d="M445.39,169.85V257.4a10.26,10.26,0,0,1-10.25,10.26H397.4c-1-.3-1.94-.62-2.85-1l-.67-.24-2.71-1a132.7,132.7,0,0,1-18-8.23h32.81a40.68,40.68,0,0,1,14.16-21.6,40.11,40.11,0,0,1,12.64-6.81V198.37a40.43,40.43,0,0,1-13.62-7.59,38.76,38.76,0,0,1-4.92-4.92,40.53,40.53,0,0,1-7.6-13.62H306c-.2-.75-.4-1.5-.59-2.26q-1.31-5.14-2.19-10.39H435.13a10.25,10.25,0,0,1,10.26,10.25Z" transform="translate(-6.16 -4.29)"/><path class="cls-1" d="M283.86,184.85l0,0h0l0,0a40.52,40.52,0,0,0,6.81-12.64v0A40.68,40.68,0,0,1,283.86,184.85Zm0,0,0,0h0l0,0a40.52,40.52,0,0,0,6.81-12.64v0A40.68,40.68,0,0,1,283.86,184.85Zm0,0,0,0h0l0,0a40.52,40.52,0,0,0,6.81-12.64v0A40.68,40.68,0,0,1,283.86,184.85Zm0,0,0,0h0l0,0a40.52,40.52,0,0,0,6.81-12.64v0A40.68,40.68,0,0,1,283.86,184.85Zm161.07-18a9.92,9.92,0,0,0-.55-1.4,10.41,10.41,0,0,0-3.51-4.06h0a10.44,10.44,0,0,0-1.27-.72h0a9,9,0,0,0-.9-.38l-.42-.15a6.93,6.93,0,0,0-.75-.2,9.8,9.8,0,0,0-2.37-.29h-173a10,10,0,0,0-2.13.23c-.22.05-.44.09-.67.16a5.43,5.43,0,0,0-.53.17,8.89,8.89,0,0,0-1,.41c-.19.08-.37.18-.56.28a8.05,8.05,0,0,0-.83.51h0a6.71,6.71,0,0,0-.78.6,9.06,9.06,0,0,0-.73.66,3.76,3.76,0,0,0-.34.35c-.11.13-.22.24-.32.37h0c-.21.25-.4.5-.6.78h0a9.37,9.37,0,0,0-.74,1.27,9.53,9.53,0,0,0-.38.93l-.17.48a10.22,10.22,0,0,0-.46,3h0v87.54c0,.19,0,.37,0,.55v0a1.49,1.49,0,0,0,0,.21,1.64,1.64,0,0,0,0,.23v.06c0,.16,0,.3.07.45V259c0,.05,0,.08,0,.12s0,.05,0,.07,0,0,0,.05a0,0,0,0,1,0,0q0,.09,0,.15v.06c0,.18.07.35.11.52s.09.3.14.45v0a.76.76,0,0,1,.06.16h0c0,.1.07.19.1.28a4.52,4.52,0,0,0,.18.47l.11.24a1.7,1.7,0,0,1,.09.24c.07.14.15.3.23.44.16.3.33.57.51.84a3.32,3.32,0,0,0,.3.38,4.31,4.31,0,0,0,.62.76c.1.12.21.25.34.38l.16.14.05.05,0,0,0,0,.05,0,.21.18.19.17.1.08a3.48,3.48,0,0,0,.28.24c.26.2.53.38.81.56l.6.33.28.11a3.82,3.82,0,0,0,.46.21c.23.09.47.19.72.27l.06,0,.4.13.54.13.17,0c.34.07.69.13,1,.17a9.24,9.24,0,0,0,1.05.06h173a10.18,10.18,0,0,0,6.52-2.33c.25-.21.5-.43.73-.66a10.54,10.54,0,0,0,1.77-2.37c.16-.29.29-.58.43-.88a10.33,10.33,0,0,0,.81-4h0V169.85A10.24,10.24,0,0,0,444.93,166.8ZM435,228.18c-.76.2-1.52.42-2.26.67l-.75.25-.63.23-.32.11-.29.12-.56.22h0l0,0c-.27.1-.53.21-.79.33l-1.23.54-1.21.59-.16.09q-1.12.57-2.22,1.23c-.39.23-.77.46-1.15.71l-.18.11-.36.25-.55.37c-.38.26-.76.54-1.14.81l-1.06.83a42.87,42.87,0,0,0-3.69,3.29c-.39.39-.77.79-1.14,1.19h0l-.26.3-.08.08c-.26.28-.5.56-.74.84h0c-.35.42-.69.85-1,1.27s-.42.55-.61.82a.21.21,0,0,0,0,.06l0,0s0,0,0,0l0,0h0l0,0a.28.28,0,0,1-.07.09l-.11.16,0,0s0,0,0,0v0c-.06.1-.13.18-.2.28h0l0,0s0,0,0,0c-.19.27-.37.55-.57.84l-.35.55c-.06.1-.13.18-.18.28s0,0,0,.05l-.21.33-.31.53c-.17.29-.35.58-.51.88a.41.41,0,0,1,0,.09l-.35.64c-.1.2-.21.39-.3.58l0,0-.24.45h0a0,0,0,0,1,0,0c-.18.39-.37.78-.54,1.17l0,.11a.63.63,0,0,0,0,.09.47.47,0,0,0-.05.1h0c-.21.49-.43,1-.63,1.5,0,0,0,0,0,0-.18.45-.35.91-.52,1.38,0,.05,0,.09,0,.14s-.05.14-.07.21c-.17.45-.31.91-.46,1.38a2.58,2.58,0,0,1-.08.26c0,.09-.05.18-.07.26a.36.36,0,0,0,0,.1c-.1.31-.19.61-.28.93H291.33c-.12-.43-.24-.86-.37-1.28a.06.06,0,0,0,0,0c-.13-.44-.27-.86-.41-1.29s-.31-.92-.49-1.36-.3-.79-.46-1.18-.37-.87-.56-1.28-.37-.79-.55-1.17-.41-.8-.63-1.2-.42-.78-.64-1.17h0c-.14-.26-.29-.5-.45-.74a.31.31,0,0,0-.05-.1.25.25,0,0,0,0-.07h0a.2.2,0,0,0,0-.08.18.18,0,0,0-.05-.07l0-.06s0,0,0,0l-.38-.59s0,0-.05-.06a3.4,3.4,0,0,0-.28-.45l-.06-.08c-.23-.35-.47-.7-.72-1l0,0c-.22-.3-.44-.6-.67-.89a.76.76,0,0,0-.08-.11l-.08-.12s0,0,0,0a.21.21,0,0,1,0-.06c-.24-.3-.49-.59-.71-.88h0l-.14-.16c-.21-.26-.44-.52-.67-.79a.69.69,0,0,1-.11-.13l-.83-.91h0c-.28-.31-.58-.6-.87-.9l-.05,0,0-.05c-.3-.3-.6-.58-.9-.87s-.63-.59-.95-.87l-.07-.06-1-.83c-.34-.29-.69-.56-1-.83l-.09-.07-1.16-.85-.92-.64-1.09-.7-.06,0c-.37-.23-.75-.45-1.13-.67s-.78-.44-1.18-.66-.78-.41-1.19-.61-.81-.39-1.22-.57-.83-.37-1.24-.54l-1.27-.5a39.65,39.65,0,0,0-3.91-1.27V199a40.88,40.88,0,0,0,12.54-5.71c.62-.43,1.25-.89,1.86-1.34l.89-.71.89-.74.92-.82h0c.26-.24.51-.51.76-.76s.55-.53.83-.82l.11-.11.11-.12c.3-.3.58-.61.88-.92l.07-.09.12-.14c.41-.45.81-.92,1.2-1.4l.11-.13.28-.33,0,0a40.52,40.52,0,0,0,6.81-12.64v0h0c.24-.74.46-1.49.67-2.25h114.6q.31,1.14.66,2.25v0c.23.7.48,1.4.75,2.08s.55,1.37.86,2c.14.34.31.68.48,1,.32.66.65,1.31,1,1.95.17.32.36.63.54.95a39.68,39.68,0,0,0,4,5.58,38.76,38.76,0,0,0,4.92,4.92,40.59,40.59,0,0,0,5.6,4c.32.18.63.37.95.54.64.36,1.29.69,1.95,1s1.34.63,2,.92,1.35.54,2,.79h0l1,.34h0c.73.24,1.49.45,2.24.66ZM283.86,184.85l0,0h0l0,0a40.52,40.52,0,0,0,6.81-12.64v0A40.68,40.68,0,0,1,283.86,184.85Zm0,0,0,0h0l0,0a40.52,40.52,0,0,0,6.81-12.64v0A40.68,40.68,0,0,1,283.86,184.85Zm0,0,0,0h0l0,0a40.52,40.52,0,0,0,6.81-12.64v0A40.68,40.68,0,0,1,283.86,184.85Zm0,0,0,0h0l0,0a40.52,40.52,0,0,0,6.81-12.64v0A40.68,40.68,0,0,1,283.86,184.85Z" transform="translate(-6.16 -4.29)"/><path class="cls-1" d="M336.22,213.49a12.35,12.35,0,0,1-1.27-1.16,6.63,6.63,0,0,1-.57-.61l0-.06a6.76,6.76,0,0,1-.44-.61,9.86,9.86,0,0,1-1.57-5.89c-.05-6.9,5.68-11.68,12.42-12.74V189a3.44,3.44,0,0,1,2.57-3.47l-.27.08-.13,0-.13,0a1.08,1.08,0,0,0-.24.12l-.17.08-.16.1h0a0,0,0,0,0,0,0l0,0h0a3.44,3.44,0,0,0-.36.28,1,1,0,0,0-.21.19c0,.07-.12.14-.18.21a2.69,2.69,0,0,0-.38.59c0,.1-.09.18-.13.28l-.09.26a2.92,2.92,0,0,0-.1.4,3.94,3.94,0,0,0,0,.6v3.57l-.59.11h0c-.41.07-.81.17-1.21.27a18.08,18.08,0,0,0-2.94,1.08c-.28.13-.55.28-.82.42a11.55,11.55,0,0,0-1.53,1c-.18.12-.37.26-.54.4l-.3.25s0,0,0,0l-.32.26-.27.24-.21.21-.41.4-.09.1h0l-.35.4s0,0,0,0l-.09.11h0c-.09.12-.19.24-.28.37a1.27,1.27,0,0,0-.13.19.79.79,0,0,0-.12.15,3.17,3.17,0,0,0-.23.36l0,0-.06.08,0,0-.07.1-.22.35c-.1.18-.19.34-.28.52a.84.84,0,0,0-.08.19,3.41,3.41,0,0,0-.17.33c-.08.17-.14.35-.22.53s-.14.37-.2.56c-.12.37-.22.76-.31,1.15,0,.11-.05.22-.07.34s0,.07,0,.11a.53.53,0,0,1,0,.12v0c0,.16-.05.32-.07.48v0h0a10.65,10.65,0,0,0-.08,1.4,9.8,9.8,0,0,0,2.05,6.56A12.62,12.62,0,0,0,336.22,213.49Z" transform="translate(-6.16 -4.29)"/><path class="cls-1" d="M364.52,184.88a33.43,33.43,0,0,0-6.69-2.79h0c-.66-.19-1.32-.37-2-.51s-1.34-.28-2-.39a33,33,0,0,0-18.3,2.31c-.63.29-1.26.58-1.88.9l-.91.48h31.78l1,.55C365.15,185.23,364.84,185.06,364.52,184.88Z" transform="translate(-6.16 -4.29)"/><path class="cls-1" d="M360.55,203.29a1.87,1.87,0,0,1-.34,0,5.08,5.08,0,0,1-2.39-.94,28.34,28.34,0,0,0-4.38-2.34,11.18,11.18,0,0,0-2.87-.69h0a9.28,9.28,0,0,0-1.06-.09c-.39,0-.8,0-1.21,0l-.33,0c-.24,0-.49,0-.73.08s-.48.07-.72.12a7.33,7.33,0,0,0-3.33,1.5c2.55-2.08,7.41-2,10.22-.87a29.17,29.17,0,0,1,4.38,2.33,5,5,0,0,0,2.81,1,2.61,2.61,0,0,0,1.79-.79,2.57,2.57,0,0,1-1.7.71Z" transform="translate(-6.16 -4.29)"/><path class="cls-1" d="M354.46,221a3.79,3.79,0,0,0-.31-.39c-.07-.08-.16-.16-.25-.25a2.23,2.23,0,0,0-.24-.19,3.51,3.51,0,0,1,1.33,2.66,4.61,4.61,0,0,1-1.35,3.35l0,0a4.47,4.47,0,0,1-.41.35c-.15.11-.32.22-.49.32a1.3,1.3,0,0,1-.26.14,2.28,2.28,0,0,1-.35.17,3,3,0,0,1-.46.19l-.34.12-.6.17-.32.06-.73.13a14.32,14.32,0,0,1-2,.13c-.46,0-.91,0-1.36-.06h0l-.53-.05-.89-.12-.65-.1c-.62-.13-1.21-.28-1.76-.43a24.33,24.33,0,0,1-5.22-2.37c-1.3-.71-2.39-1.14-3.4-.87a1.92,1.92,0,0,0-.31.11,1.25,1.25,0,0,0-.31.15h0l.11.13,0,0-.05-.05a2.91,2.91,0,0,1,2.79,0l.47.2.67.34.09.05c.38.24.77.45,1.17.66s.85.43,1.28.63l.66.28a22.32,22.32,0,0,0,2.11.8c4.38,1.29,12.46,1.55,12.58-4.4A3.54,3.54,0,0,0,354.46,221Z" transform="translate(-6.16 -4.29)"/><path class="cls-1" d="M347.92,185.37l-.15,0-.09,0a.78.78,0,0,1,.22,0h0Z" transform="translate(-6.16 -4.29)"/><path class="cls-1" d="M367.35,186.65l-.13-.09c.26.18.51.37.78.55C367.78,187,367.57,186.79,367.35,186.65Z" transform="translate(-6.16 -4.29)"/><path class="cls-1" d="M369.13,188c-.3-.23-.59-.46-.89-.67.44.34.88.68,1.29,1C369.4,188.18,369.26,188.07,369.13,188Z" transform="translate(-6.16 -4.29)"/><path class="cls-1" d="M342.44,227.2a24.33,24.33,0,0,1-5.22-2.37c-1.3-.71-2.39-1.14-3.4-.87a3.93,3.93,0,0,1,2.7.55l.67.34.09.05c.38.24.77.45,1.17.66s.85.43,1.28.63l.66.28c.66.28,1.33.52,2,.74a16.27,16.27,0,0,0,1.79.42C343.58,227.5,343,227.35,342.44,227.2Z" transform="translate(-6.16 -4.29)"/><path class="cls-1" d="M365.46,185.43c-.31-.2-.62-.37-.94-.55a33.43,33.43,0,0,0-6.69-2.79h0c-.66-.19-1.32-.37-2-.51s-1.34-.28-2-.39a33,33,0,0,0-18.3,2.31c-.63.29-1.26.58-1.88.9l-.91.48h31.78Z" transform="translate(-6.16 -4.29)"/><path class="cls-1" d="M378.76,226.56l-.23.52c-.13.3-.27.59-.42.89s-.28.59-.43.87l-.08.15-.47.84a.75.75,0,0,1-.07.12c-.13.23-.27.48-.42.71a1.09,1.09,0,0,1-.14.23.6.6,0,0,1-.09.15l-.09.14c-.11.19-.24.38-.37.56l0,0,0,.07c0,.07-.09.12-.13.19-.21.3-.42.61-.64.91a.7.7,0,0,1-.08.1l-.08.11-.1.12-.06.09-.13.17-.29.37-.26.33a1,1,0,0,1-.19.22l-.13.16a4,4,0,0,1-.33.39c-.1.14-.22.26-.34.4l-.18.2c-.18.2-.36.4-.55.59,0,0,0,0,0,.05a1.19,1.19,0,0,1-.15.18c-.32.33-.65.66-1,1-.18.18-.36.34-.55.51l-.57.5c-.26.24-.54.46-.81.68l-.11.09c-.29.24-.59.47-.89.69l-.09.07c-.28.21-.56.42-.85.61l-.27.19-.26.17c-.18.13-.37.26-.56.37l-.88.54c-.16.11-.34.2-.52.3a2.37,2.37,0,0,1-.35.19,2.14,2.14,0,0,1-.3.17.27.27,0,0,1-.1.06l-.79.41-.07,0-1,.46a28.33,28.33,0,0,1-3.24,1.28c-.54.18-1.08.35-1.64.5h-.05c-.36.1-.72.19-1.09.27l-.76.19h-.07l.09.07a32.79,32.79,0,0,0,23.44-19.58.49.49,0,0,0,0-.11c-.05.13-.11.25-.17.38Z" transform="translate(-6.16 -4.29)"/><path class="cls-1" d="M352.9,219.63a1.28,1.28,0,0,0-.3-.17l-.36-.18-.66-.28c-1.59-.61-3.48-1-5.07-1.5-.95-.28-1.86-.53-2.71-.77s-1.7-.46-2.49-.71c-.47-.14-.93-.31-1.39-.48,2,.76,4.14,1.27,6.68,2,1,.34,2.17.61,3.27.92.54.16,1.07.31,1.56.5l.06,0a7.91,7.91,0,0,1,1.38.62Z" transform="translate(-6.16 -4.29)"/><path class="cls-1" d="M380.28,204.89c-.09-.33-.18-.66-.3-1-.16-.56-.35-1.12-.56-1.67-.05-.15-.1-.29-.16-.44-.13-.34-.26-.67-.41-1l-.09-.2c-.05-.13-.11-.26-.17-.4l-.09-.16c.24.52.46,1.06.67,1.59a33.35,33.35,0,0,1,1.09,3.29,32.63,32.63,0,0,1,1.17,8.68c0,.46,0,.91,0,1.37,0,.11,0,.21,0,.33,0,.34,0,.67-.07,1,0,.57-.09,1.12-.17,1.67s-.13.88-.21,1.31-.15.86-.25,1.27a1.18,1.18,0,0,1,0,.2c-.1.43-.19.85-.31,1.27s-.23.85-.37,1.27-.22.73-.35,1.08-.17.5-.28.76l-.18.47-.09.27c.14-.35.28-.7.41-1.06a.19.19,0,0,1,0-.09l.29-.84a1.67,1.67,0,0,0,0-.18c.06-.19.13-.37.18-.56s.18-.6.27-.91c0-.14.08-.27.11-.4s.14-.55.2-.82l0-.14c.06-.28.13-.55.18-.82s.13-.64.19-1c.08-.49.16-1,.22-1.49s.08-.74.11-1.11c.09-.94.13-1.87.13-2.81A32.54,32.54,0,0,0,380.28,204.89Z" transform="translate(-6.16 -4.29)"/><path class="cls-1" d="M361,230.6v0a6.38,6.38,0,0,0,.77-.79c.16-.19.3-.38.44-.58l0,0c.13-.18.25-.37.37-.56a.3.3,0,0,0,0-.08,13.09,13.09,0,0,0,.73-1.45c.07-.17.14-.36.2-.54,0,0,0,0,0,0a1.8,1.8,0,0,0,.08-.21c.05-.16.11-.33.15-.5a2.45,2.45,0,0,0,.08-.29,9.12,9.12,0,0,0,.31-1.64,2.22,2.22,0,0,0,0-.37c0-.19,0-.38,0-.56a.17.17,0,0,0,0-.07,11.45,11.45,0,0,0,0-1.76,5.14,5.14,0,0,0-.06-.55,8.85,8.85,0,0,0-.18-1c-.07-.25-.14-.51-.22-.75a.73.73,0,0,0-.05-.2v0l-.06-.16a3,3,0,0,0-.13-.36,8.24,8.24,0,0,0-.74-1.45,7.59,7.59,0,0,0-.46-.65,12.05,12.05,0,0,0-4.78-3.53,61.83,61.83,0,0,0-7.14-2.18c-3.73-1.13-8.65-1.5-8.84-5.72a4.66,4.66,0,0,1,.64-2.46,3.48,3.48,0,0,1,.28-.39l.19-.23a1,1,0,0,1,.2-.21l.27-.25c2.55-2.08,7.41-2,10.22-.87a29.17,29.17,0,0,1,4.38,2.33,5,5,0,0,0,2.81,1,2.61,2.61,0,0,0,1.79-.79,3.6,3.6,0,0,0,.37-.41,4.07,4.07,0,0,0,.95-2.65A3.51,3.51,0,0,0,362,196.3a22.32,22.32,0,0,0-10.09-4.06V189a2.94,2.94,0,0,0,0-.42,3.37,3.37,0,0,0-3.14-3.15,3.5,3.5,0,0,1,.63.12,2.68,2.68,0,0,1,.47.18,3.45,3.45,0,0,1,1.95,2.85,2.94,2.94,0,0,1,0,.42v3.29h0a22.4,22.4,0,0,1,10.07,4.06,3.59,3.59,0,0,1,1.45,1.75,1.89,1.89,0,0,1,.11.36,3.18,3.18,0,0,1,.11,1.11c.06,1.68-1.24,3.7-2.93,3.77h-.11a1.87,1.87,0,0,1-.34,0,5,5,0,0,1-2.48-.94,28.34,28.34,0,0,0-4.38-2.34,11.78,11.78,0,0,0-2.78-.69h0c-.34,0-.7-.07-1.06-.09s-.8,0-1.21,0l-.33,0c-.24,0-.49,0-.73.08s-.48.07-.72.12c-2.72.51-5,2-5,5a4.61,4.61,0,0,0,.2,1.16,3,3,0,0,0,.22.55c1.28,2.64,5.28,3,8.42,4a61.24,61.24,0,0,1,7.14,2.18,12.05,12.05,0,0,1,4.78,3.53,7.47,7.47,0,0,1,.91,1.42,5,5,0,0,1,.34.74c.07.18.14.36.2.54s.11.4.17.6l.12.51a5.24,5.24,0,0,1,.15.79c.5,3.59-.63,7.7-3.21,10" transform="translate(-6.16 -4.29)"/><path class="cls-1" d="M352,238.17a5.06,5.06,0,0,1,0,.78.34.34,0,0,0,0-.1.61.61,0,0,1,0-.14c0-.11,0-.23,0-.35" transform="translate(-6.16 -4.29)"/><path class="cls-1" d="M344.07,192.47l.59-.1h0Z" transform="translate(-6.16 -4.29)"/><path class="cls-1" d="M367.35,186.65l-.13-.09c.26.18.51.37.78.55C367.78,187,367.57,186.79,367.35,186.65Z" transform="translate(-6.16 -4.29)"/><path class="cls-1" d="M369.13,188c-.3-.23-.59-.46-.89-.67.44.34.88.68,1.29,1C369.4,188.18,369.26,188.07,369.13,188Z" transform="translate(-6.16 -4.29)"/><path class="cls-1" d="M374.46,193.37l-.19-.23a1.3,1.3,0,0,1-.19-.22l.6.75C374.61,193.56,374.53,193.46,374.46,193.37Z" transform="translate(-6.16 -4.29)"/><path class="cls-1" d="M375.13,194.23h0l0,.05A.08.08,0,0,0,375.13,194.23Z" transform="translate(-6.16 -4.29)"/><path class="cls-1" d="M375.28,194.46l-.06-.08s0,0,0,0h0a.06.06,0,0,1,0,0c.14.17.27.36.39.54C375.49,194.76,375.39,194.6,375.28,194.46Z" transform="translate(-6.16 -4.29)"/><path class="cls-1" d="M380.26,204.92a33.35,33.35,0,0,0-1.09-3.29c-.21-.53-.43-1.07-.67-1.59,0,0,0,0,0,0s-.06-.14-.08-.2h0l-.46-1v0c-.16-.32-.33-.63-.5-.94l-.14-.25c-.06-.11-.11-.21-.17-.3l-.11-.19a.21.21,0,0,1,0-.07l-.09-.14c-.05-.09-.11-.18-.17-.27a7.18,7.18,0,0,0-.39-.63c-.18-.3-.38-.58-.57-.87l-.18-.26c-.12-.18-.25-.37-.39-.54a.06.06,0,0,0,0,0l0,0s0,0,0,0l0-.05,0,0-.21-.26-.08-.12s0,0-.05-.05l-.07-.09-.6-.75c-.28-.34-.55-.68-.83-1-.55-.62-1.1-1.21-1.68-1.77,0,0,0,0,0,0l-.61-.58-.18-.17-.13-.11a4,4,0,0,0-.31-.27c-.06-.06-.12-.11-.17-.17l-.2-.17h0l-.41-.35c-.41-.34-.85-.68-1.29-1h0l-.23-.18c-.27-.18-.52-.37-.78-.55l-.81-.53c-.31-.2-.62-.4-.94-.59h0l-1-.55H332.71a32.82,32.82,0,0,0,15.89,61.55,31.74,31.74,0,0,0,6.8-.72h.07l.76-.19c.37-.08.73-.17,1.09-.27h.05c.56-.15,1.1-.32,1.64-.5a28.33,28.33,0,0,0,3.24-1.28l1-.46.07,0,.79-.41a.27.27,0,0,0,.1-.06,2.14,2.14,0,0,0,.3-.17,2.37,2.37,0,0,0,.35-.19c.18-.1.36-.19.52-.3l.88-.54c.19-.11.38-.24.56-.37l.26-.17.27-.19c.29-.19.57-.4.85-.61l.09-.07c.3-.22.6-.45.89-.69l.11-.09c.27-.22.55-.44.81-.68l.57-.5c.19-.17.37-.33.55-.51.34-.32.67-.65,1-1a1.19,1.19,0,0,0,.15-.18s0,0,0-.05c.19-.19.37-.39.55-.59l.18-.2c.12-.14.24-.26.34-.4a4,4,0,0,0,.33-.39l.13-.16a1,1,0,0,0,.19-.22c.2-.22.37-.47.55-.7l.13-.17.06-.09.1-.12.08-.11a.7.7,0,0,0,.08-.1c.22-.3.43-.61.64-.91,0-.07.09-.12.13-.19l0-.07,0,0c.13-.18.26-.37.37-.56l.09-.14a.6.6,0,0,0,.09-.15,1.09,1.09,0,0,0,.14-.23c.15-.23.29-.48.42-.71a.75.75,0,0,0,.07-.12l.47-.84.08-.15c.15-.28.29-.57.43-.87s.29-.59.42-.89l.23-.52,0-.09c.05-.13.1-.25.16-.38a4,4,0,0,0,.19-.48l.18-.47c.11-.26.19-.51.28-.76s.24-.71.35-1.08.26-.84.37-1.27.21-.84.31-1.27a1.18,1.18,0,0,0,0-.2c.1-.41.18-.84.25-1.27s.15-.87.21-1.31.13-1.1.17-1.67c0-.34.06-.67.07-1,0-.12,0-.22,0-.33,0-.46,0-.91,0-1.37A32.63,32.63,0,0,0,380.26,204.92Zm-16,17.93a.17.17,0,0,1,0,.07c0,.18,0,.37,0,.56a2.22,2.22,0,0,1,0,.37,9.12,9.12,0,0,1-.31,1.64,2.45,2.45,0,0,1-.08.29,2.88,2.88,0,0,1-.15.5,1.8,1.8,0,0,1-.08.21s0,0,0,0a5,5,0,0,1-.2.54,9.37,9.37,0,0,1-.73,1.45.3.3,0,0,1,0,.08c-.12.19-.24.38-.37.56,0,0,0,0,0,0l-.06.08c-.13.16-.25.34-.39.5a6.38,6.38,0,0,1-.77.79v0a16.08,16.08,0,0,1-7.64,4.05,1.65,1.65,0,0,0-1.29,1.61v2.1a3.14,3.14,0,0,1-.72,2.16.45.45,0,0,1-.1.14l-.08.1-.17.17a1.55,1.55,0,0,1-.36.3,3.32,3.32,0,0,1-.37.23l0,0h0a3.7,3.7,0,0,1-1.73.37,3.42,3.42,0,0,1-3.58-3.26v-1.84c.08-1.9-1-1.93-2-1.95a23.73,23.73,0,0,1-9.73-3.89c-2.12-1.14-2.22-4.11-.8-5.83a3.41,3.41,0,0,1,.85-.76h0l0,0h0l-.11-.13h0a1.25,1.25,0,0,1,.31-.15,1.92,1.92,0,0,1,.31-.11c1-.27,2.1.16,3.4.87a24.33,24.33,0,0,0,5.22,2.37c.55.15,1.14.3,1.76.43l.65.1.89.12.53.05h0c.45,0,.9.06,1.36.06a14.32,14.32,0,0,0,2-.13l.73-.13.32-.06.6-.17.34-.12a3,3,0,0,0,.46-.19,2.28,2.28,0,0,0,.35-.17,1.3,1.3,0,0,0,.26-.14c.17-.1.34-.21.49-.32l.41-.35,0,0a4.61,4.61,0,0,0,1.35-3.35,3.51,3.51,0,0,0-1.33-2.66l0,0c-.11-.08-.21-.17-.33-.25s0,0,0,0l-.32-.19,0,0h0a7.91,7.91,0,0,0-1.38-.62l-.06,0c-.49-.19-1-.34-1.56-.5-1.1-.31-2.25-.58-3.27-.92-2.54-.75-4.72-1.26-6.68-2a12.65,12.65,0,0,1-1.31-.57l-.27-.13-.06,0h0c-.23-.12-.47-.26-.69-.39a13,13,0,0,1-.76-.49,4.29,4.29,0,0,1-.5-.37.16.16,0,0,1-.08-.06,12.62,12.62,0,0,1-1.93-1.83,9.8,9.8,0,0,1-2.05-6.56,10.65,10.65,0,0,1,.08-1.4h0v0c0-.16,0-.32.07-.48v0a.53.53,0,0,0,0-.12s0-.08,0-.11.05-.23.07-.34c.09-.39.19-.78.31-1.15.06-.19.13-.38.2-.56s.14-.36.22-.53a3.41,3.41,0,0,1,.17-.33.84.84,0,0,1,.08-.19c.09-.18.18-.34.28-.52L334,199a4.93,4.93,0,0,1,.4-.61.79.79,0,0,1,.12-.15,1.27,1.27,0,0,1,.13-.19c.09-.13.19-.25.28-.37h0l.09-.11s0,0,0,0l.35-.4h0l.09-.1.41-.4.21-.21.27-.24.32-.26s0,0,0,0l.3-.25c.17-.14.36-.28.54-.4a11.55,11.55,0,0,1,1.53-1c.27-.14.54-.29.82-.42a18.08,18.08,0,0,1,2.94-1.08c.4-.1.8-.2,1.21-.27h0l.59-.11v-3.57a3.94,3.94,0,0,1,0-.6,2.92,2.92,0,0,1,.1-.4l.09-.26c0-.1.08-.18.13-.28a2.69,2.69,0,0,1,.38-.59c.06-.07.12-.15.18-.21a1,1,0,0,1,.21-.19,2.33,2.33,0,0,1,.36-.28h0l0,0a0,0,0,0,1,0,0h0l.16-.1a2.58,2.58,0,0,1,.41-.2l.13,0a1.68,1.68,0,0,1,.4-.11l.06,0a.15.15,0,0,1,.1,0h.2l.09,0,.15,0h.85a3.37,3.37,0,0,1,3.14,3.15,2.94,2.94,0,0,1,0,.42v3.29A22.32,22.32,0,0,1,362,196.3a3.51,3.51,0,0,1,1.68,3.22,4.07,4.07,0,0,1-.95,2.65,3.6,3.6,0,0,1-.37.41,2.61,2.61,0,0,1-1.79.79,5,5,0,0,1-2.81-1,29.17,29.17,0,0,0-4.38-2.33c-2.81-1.13-7.67-1.21-10.22.87l-.27.25a1,1,0,0,0-.2.21l-.19.23a3.48,3.48,0,0,0-.28.39,4.66,4.66,0,0,0-.64,2.46c.19,4.22,5.11,4.59,8.84,5.72a61.83,61.83,0,0,1,7.14,2.18,12.05,12.05,0,0,1,4.78,3.53,7.59,7.59,0,0,1,.46.65,8.24,8.24,0,0,1,.74,1.45,3,3,0,0,1,.13.36.44.44,0,0,1,.06.16v0a.73.73,0,0,1,.05.2.55.55,0,0,1,.06.18l0,.09a3.76,3.76,0,0,1,.13.48,8.85,8.85,0,0,1,.18,1,5.14,5.14,0,0,1,.06.55A11.45,11.45,0,0,1,364.28,222.85Z" transform="translate(-6.16 -4.29)"/><path class="cls-1" d="M353.3,219.87l.29.23,0,0C353.52,220,353.42,220,353.3,219.87Z" transform="translate(-6.16 -4.29)"/><path class="cls-1" d="M353.3,219.87l.29.23,0,0C353.52,220,353.42,220,353.3,219.87Z" transform="translate(-6.16 -4.29)"/><path class="cls-1" d="M353.3,219.87l.29.23,0,0C353.52,220,353.42,220,353.3,219.87Z" transform="translate(-6.16 -4.29)"/><path class="cls-1" d="M353.3,219.87l.29.23,0,0C353.52,220,353.42,220,353.3,219.87Z" transform="translate(-6.16 -4.29)"/><path class="cls-1" d="M347.57,185.42l.2,0-.09,0h-.11Z" transform="translate(-6.16 -4.29)"/><path class="cls-1" d="M356.23,245.51c.37-.08.73-.17,1.09-.27-.44.13-.89.25-1.34.34l-.51.12Z" transform="translate(-6.16 -4.29)"/><path class="cls-1" d="M362.18,229.2h0l-.06.08A.35.35,0,0,0,362.18,229.2Z" transform="translate(-6.16 -4.29)"/><path class="cls-1" d="M374.46,193.37c.07.09.15.19.22.3l-.6-.75c-.28-.34-.55-.68-.83-1,.35.4.7.81,1,1.23Z" transform="translate(-6.16 -4.29)"/><path class="cls-1" d="M375.11,194.22a.5.5,0,0,1,.08.14c-.17-.23-.34-.47-.51-.69.15.17.27.35.41.52Z" transform="translate(-6.16 -4.29)"/><path class="cls-1" d="M376.89,196.93l.4.7c-.18-.33-.36-.64-.57-1C376.78,196.75,376.84,196.84,376.89,196.93Z" transform="translate(-6.16 -4.29)"/><path class="cls-1" d="M378.76,200.6c.15.34.29.68.41,1-.21-.53-.43-1.07-.67-1.59a2.18,2.18,0,0,1-.09-.23C378.53,200.07,378.65,200.34,378.76,200.6Z" transform="translate(-6.16 -4.29)"/><path class="cls-1" d="M380.26,204.92a33.35,33.35,0,0,0-1.09-3.29c.09.2.17.4.25.61.2.55.39,1.11.56,1.67C380.08,204.24,380.18,204.58,380.26,204.92Z" transform="translate(-6.16 -4.29)"/><path class="cls-1" d="M445.39,169.85V257.4a10.26,10.26,0,0,1-10.25,10.26H397.4c-1-.3-1.94-.62-2.85-1l-.67-.24-2.71-1a137.47,137.47,0,0,1-18-8.23h32.74a40.68,40.68,0,0,1,14.16-21.6,40.11,40.11,0,0,1,12.64-6.81c.74-.26,1.5-.47,2.26-.67V199c-.76-.2-1.52-.41-2.26-.67a40.41,40.41,0,0,1-13.62-7.58,39.51,39.51,0,0,1-4.92-4.93,40.49,40.49,0,0,1-7.6-13.61c-.24-.75-.46-1.5-.67-2.27H305.47q-1.29-5.16-2.21-10.39H435.13a10.25,10.25,0,0,1,10.26,10.25Z" transform="translate(-6.16 -4.29)"/></svg>