<svg id="Icons" xmlns="http://www.w3.org/2000/svg" viewBox="0 0 378.59 432.09"><defs><style>.cls-1,.cls-3,.cls-4{fill:none;stroke:#fff;stroke-miterlimit:10;}.cls-1{stroke-width:12px;}.cls-2{fill:#fff;}.cls-3{stroke-width:20px;}.cls-4{stroke-width:17px;}</style></defs><path class="cls-1" d="M367.21,407c-.16,6.43-.06,12.88-.06,19.32H255.35q.06-8.19.13-16.39c-.36-6.19-.36-6.19,5.84-5.84l16.31-.17.21-16.35-.09-6,5.93.13,27.61-.25-.08.21,25.38,0,8.15-.11c0,2.73,0,5.47-.06,8.2q.09,7.05.2,14.11c6.44,0,12.89.16,19.33,0C366.72,403.83,367.26,404.64,367.21,407Z" transform="translate(-34.03 -0.23)"/><path class="cls-2" d="M412.62,245.94V380.85l-67.88,0-8.15.1H311.21l.08-.21-27.61.24-5.93-.13c-21,0-41.95-.07-62.94,0-3.05,0-4.27-.46-4.26-4q.19-63.5.08-127c0-2.1-.45-4.06,3-4,32.53.14,65.05.12,97.57.15q0,11.06,0,22.11l0,.28-49.2,0-14.19,0c-4.19,0-8.38,0-12.58-.15-1.76,0-2.39.59-2.34,2.35.12,4.19.1,8.38.14,12.58l0,14.18,0,52.9c-.39,8.49-.39,8.49,8.1,8.11l52.89,0,17.2,0-.06.26c1.85,0,3.7-.12,5.55-.12q22.2-.09,44.4-.15,7.1,0,14.18,0c4.2,0,8.4,0,12.59.13,1.76.05,2.39-.57,2.34-2.33-.13-4.2-.11-8.4-.14-12.59l0-14.18,0-52.91c.4-8.5.4-8.5-8.1-8.09l-52.9,0-17.9-.3c0-7.37,0-14.74,0-22.11Z" transform="translate(-34.03 -0.23)"/><path class="cls-2" d="M189.93,350.53,158.47,382c-3.88,3.88-3.88,3.87-7.51-.3l-8.26-8.26c-.29-.22-.58-.44-.88-.65-2.84-1.94-3.24-3.73-.23-6.13,2.78-2.22,5.15-5,8.53-8.27H110c-1.11,0-2.22.12-3.34.11-8.13,0-8.13,0-7.72-8.21q0-26.46,0-52.91,0-7.08,0-14.18c0-4.2,0-8.42-.16-12.62-.06-1.78.49-2.4,2.29-2.31,3,.16,6,.11,8.91.15.87-.05,1.73-.12,2.6-.12,8.93,0,8.93,0,8.48,9q0,26.44,0,52.9c.33,5.78.33,5.78,6.1,6.1h22.93c-3.61-3.57-6.39-6.49-9.36-9.21-1.62-1.48-1.91-2.41-.12-4.08,4.26-4,8.33-8.18,12.41-12.36,1.12-1.15,1.87-1.66,3.26-.23,8.15,8.35,16.39,16.61,24.59,24.9l8.27,8.26a3.56,3.56,0,0,1,.61.4C193.24,347.22,193.24,347.22,189.93,350.53Z" transform="translate(-34.03 -0.23)"/><path class="cls-2" d="M242.41,135l31.47-31.47c3.88-3.88,3.88-3.87,7.51.3l8.25,8.26c.29.21.58.44.88.65,2.84,1.94,3.25,3.73.23,6.13-2.77,2.22-5.14,5-8.53,8.27h40.13c1.11,0,2.22-.12,3.33-.11,8.13,0,8.13,0,7.72,8.21v67.09c.05,4.2,0,8.42.16,12.62.06,1.78-.48,2.4-2.29,2.31-3-.16-5.94-.11-8.91-.15-.86,0-1.73.12-2.59.12-8.94,0-8.94,0-8.49-9q0-26.44,0-52.9c-.33-5.78-.33-5.78-6.1-6.1H282.27c3.61,3.57,6.39,6.49,9.36,9.21,1.61,1.48,1.9,2.41.11,4.08-4.26,4-8.32,8.18-12.4,12.36-1.12,1.15-1.87,1.66-3.27.23-8.14-8.35-16.38-16.61-24.58-24.9L243.22,142a4.28,4.28,0,0,1-.61-.4C239.11,138.35,239.11,138.35,242.41,135Z" transform="translate(-34.03 -0.23)"/><path class="cls-3" d="M166.13,216.2l-44.95,6.52a80.86,80.86,0,0,1-23.25,0L53,216.2A9,9,0,0,1,44,207.25v-179a9,9,0,0,1,8.95-9l35.5-7a108.65,108.65,0,0,1,42.14,0l35.51,7a9,9,0,0,1,8.94,9v179A9,9,0,0,1,166.13,216.2Z" transform="translate(-34.03 -0.23)"/><path class="cls-3" d="M44,84.16s63.21,17.9,131,0" transform="translate(-34.03 -0.23)"/><path class="cls-3" d="M44,129.65s63.21,17.89,131,0" transform="translate(-34.03 -0.23)"/><path class="cls-3" d="M44,175.88s63.21,17.89,131,0" transform="translate(-34.03 -0.23)"/><path class="cls-4" d="M175.67,31.63c0,5-29.68,9.09-66.29,9.09s-66.3-4.07-66.3-9.09" transform="translate(-34.03 -0.23)"/></svg>