<?xml version="1.0" encoding="utf-8"?>
<!-- Generator: Adobe Illustrator 24.2.1, SVG Export Plug-In . SVG Version: 6.00 Build 0)  -->
<svg version="1.1" id="Layer_1" xmlns="http://www.w3.org/2000/svg" xmlns:xlink="http://www.w3.org/1999/xlink" x="0px" y="0px"
	 viewBox="0 0 512 512" style="enable-background:new 0 0 512 512;" xml:space="preserve">
<style type="text/css">
	.st0{fill:#FFFFFF;}
</style>
<path class="st0" d="M482,308.9V203.1c17.1-3.7,30-18.9,30-37.1c0-30.1-33.4-48-58.4-32L378,58.4c16-25-2-58.4-32-58.4
	c-37.1,0-52.3,48-21.6,69.3l-33.9,82L233,93.6l59.9-24.9c4.1-1.7,6-6.4,4.3-10.5s-6.4-6-10.5-4.3l-66,27.4l-22.8-22.8
	C214.1,33.6,196.2,0,166,0c-30.1,0-48,33.4-32,58.4L58.4,134c-25-16-58.4,2-58.4,32c0,23.7,21.5,41.6,44.9,37.4L66.7,256l-21.9,52.6
	C21.6,304.4,0,322.3,0,346c0,30.1,33.4,48,58.4,32l75.6,75.6c-16,25,2,58.4,32,58.4c18.2,0,33.5-12.9,37.1-30h105.7
	c3.7,17.1,18.9,30,37.1,30c21,0,38-17,38-38s-17-38-38-38c-18.2,0-33.5,12.9-37.1,30H206.1l236.7-98.4
	c21.4,30.8,69.2,15.1,69.2-21.6C512,327.8,499.1,312.5,482,308.9z M436.6,172.8l-22.1,9.1L368.7,71.7l73.5,73.5
	C437,153.1,434.8,162.9,436.6,172.8L436.6,172.8z M442.7,187.6c5.4,7.8,13.7,13.5,23.3,15.6v102.8l-45.4-109.2L442.7,187.6z
	 M451.1,311.8l-90.4-90.4l45.1-18.6L451.1,311.8z M496,166c0,12.1-9.9,22-22,22s-22-9.9-22-22s9.9-22,22-22S496,153.9,496,166z
	 M346,16c12.1,0,22,9.9,22,22s-9.9,22-22,22s-22-9.9-22-22S333.9,16,346,16z M339.2,75.4c4.5,0.8,9,0.8,13.6,0L399.7,188l-51.2,21.1
	l-45.6-45.6L339.2,75.4z M332.5,215.8l-61.7,25.5l25.5-61.7L332.5,215.8z M159.1,75.4c9.7,1.8,19.4-0.2,27.5-5.5L204.7,88
	l-61.5,25.6L159.1,75.4z M122.3,122.3l-50.6,21l71.7-71.7L122.3,122.3z M166,16c12.1,0,22,9.9,22,22s-9.9,22-22,22s-22-9.9-22-22
	S153.9,16,166,16z M16,166c0-12.1,9.9-22,22-22s22,9.9,22,22s-9.9,22-22,22S16,178.1,16,166z M59.6,197.2
	c12.2-8.5,18.5-23.2,15.7-38.1l38.2-15.9l-38.2,91.9L59.6,197.2z M75.4,276.8l16,38.5l-22.1,9.1c-2.6-3.8-5.9-7-9.6-9.6L75.4,276.8z
	 M75.4,339.2l22.1-9.1l45.8,110.2l-73.6-73.5C75,358.9,77.2,349.2,75.4,339.2z M16,346c0-12.1,9.9-22,22-22s22,9.9,22,22
	s-9.9,22-22,22S16,358.1,16,346z M166,496c-12.1,0-22-9.9-22-22s9.9-22,22-22s22,9.9,22,22S178.1,496,166,496z M346,452
	c12.1,0,22,9.9,22,22s-9.9,22-22,22s-22-9.9-22-22S333.9,452,346,452z M197.2,452.4c-8.4-12.1-23.2-18.5-38.1-15.7L112.3,324
	l31.2-12.9c4.1-1.7,6-6.4,4.3-10.4c-1.7-4.1-6.4-6-10.4-4.3l-31.2,12.9L84.1,256l50.5-121.5l82.4-34.3l67,67l-34.1,82.6l-54.4,22.5
	c-4.1,1.7-6,6.4-4.3,10.4c1.7,4.1,6.4,6,10.4,4.3l39.7-16.4L184.2,409c-2.2,5.3,1.7,11.1,7.4,11.1c3.1,0,6.1-1.9,7.4-4.9l63.1-153
	l82.6-34.1l97.4,97.4c-5.2,8-7.2,17.8-5.5,27.5L197.2,452.4z M474,368c-12.1,0-22-9.9-22-22s9.9-22,22-22s22,9.9,22,22
	S486.1,368,474,368z"/>
<path class="st0" d="M166.5,284.3c-4.4,1.8-6.1,6.5-4.5,10.5c1.7,4.1,6.4,6,10.4,4.4c4.4-1.8,6.1-6.5,4.5-10.5
	C175.2,284.6,170.5,282.6,166.5,284.3z"/>
</svg>
