<svg id="Layer_1" data-name="Layer 1" xmlns="http://www.w3.org/2000/svg" viewBox="0 0 512 400"><defs><style>.cls-1{fill:#fff;}</style></defs><path class="cls-1" d="M437.06,363.39v30H398.88a200,200,0,0,1-285.64,0H75.06v-30h51.22l4.46,4.86a170,170,0,0,0,250.64,0l4.46-4.86Z" transform="translate(-0.06 -53.39)"/><path class="cls-1" d="M437.06,113.39v30H385.84l-4.46-4.86a170,170,0,0,0-250.64,0l-4.46,4.86H60.06v46h-30v-76h83.18a200,200,0,0,1,285.64,0Z" transform="translate(-0.06 -53.39)"/><path class="cls-1" d="M183.06,221.31h17.71v64.51H183.06Z" transform="translate(-0.06 -53.39)"/><path class="cls-1" d="M248.33,266.42a11.18,11.18,0,0,1-2.72,2.45,10.76,10.76,0,0,1-3.14,1.37,13.22,13.22,0,0,1-3.18.41,10.73,10.73,0,0,1-5.49-1.41,13.12,13.12,0,0,1-4.09-3.77,17.49,17.49,0,0,1-2.55-5.46,24,24,0,0,1-.86-6.45,25.64,25.64,0,0,1,.73-6,17,17,0,0,1,2.31-5.45,13.08,13.08,0,0,1,4-3.91,10.79,10.79,0,0,1,5.77-1.49,15.65,15.65,0,0,1,3.18.36,10.64,10.64,0,0,1,3.27,1.27,11.42,11.42,0,0,1,2.86,2.45,12,12,0,0,1,2.14,3.91L264.09,235a24,24,0,0,0-9.53-10.22A28.88,28.88,0,0,0,239.47,221a29.69,29.69,0,0,0-13.13,2.81,31.33,31.33,0,0,0-15.94,17.63A33.52,33.52,0,0,0,208.31,253a34.15,34.15,0,0,0,2.27,12.17,35.71,35.71,0,0,0,6.32,10.72,31.09,31.09,0,0,0,9.67,7.59,26.83,26.83,0,0,0,12.36,2.86,33.34,33.34,0,0,0,15.35-3.9,26.32,26.32,0,0,0,6.31-4.73,18.48,18.48,0,0,0,4.14-6.36l-14.45-8.63A11.39,11.39,0,0,1,248.33,266.42Z" transform="translate(-0.06 -53.39)"/><path class="cls-1" d="M467.06,423.39c-25.24,0-45-19.33-45-44A46.23,46.23,0,0,1,435,347.31a44.07,44.07,0,0,1,32.06-13.92,45,45,0,0,1,0,90Z" transform="translate(-0.06 -53.39)"/><path class="cls-1" d="M467.06,173.39c-25.24,0-45-19.33-45-44A46.23,46.23,0,0,1,435,97.31a44.07,44.07,0,0,1,32.06-13.92,45,45,0,0,1,0,90Z" transform="translate(-0.06 -53.39)"/><path class="cls-1" d="M45.06,423.39c-25.24,0-45-19.33-45-44A46.23,46.23,0,0,1,13,347.31a44.07,44.07,0,0,1,32.06-13.92,45,45,0,0,1,0,90Z" transform="translate(-0.06 -53.39)"/><path class="cls-1" d="M45.06,264.39c-25.24,0-45-19.33-45-44A46.23,46.23,0,0,1,13,188.31a44.07,44.07,0,0,1,32.06-13.92,45,45,0,0,1,0,90Z" transform="translate(-0.06 -53.39)"/><path class="cls-1" d="M256.06,113.39c-77.2,0-140,62.8-140,140s62.8,140,140,140,140-62.8,140-140S333.26,113.39,256.06,113.39Zm0,250a110,110,0,1,1,110-110A110.13,110.13,0,0,1,256.06,363.39Z" transform="translate(-0.06 -53.39)"/><path class="cls-1" d="M326.88,241.75a33.9,33.9,0,0,0-6.23-10.54,31.1,31.1,0,0,0-9.72-7.45A28,28,0,0,0,298.34,221a28.79,28.79,0,0,0-12.48,2.68,31.83,31.83,0,0,0-9.86,7.18,32.36,32.36,0,0,0-6.5,10.4,33.18,33.18,0,0,0-2.32,12.27,34.58,34.58,0,0,0,8.5,22.66,31.32,31.32,0,0,0,9.72,7.41A28,28,0,0,0,298,286.36a28.73,28.73,0,0,0,12.53-2.72,31.19,31.19,0,0,0,9.81-7.23,33.42,33.42,0,0,0,6.41-10.35,33.06,33.06,0,0,0,2.32-12.23A34.74,34.74,0,0,0,326.88,241.75Zm-16.59,18a18.15,18.15,0,0,1-2.31,5.5,12.35,12.35,0,0,1-4,3.91,12.06,12.06,0,0,1-11.54,0,13,13,0,0,1-4.09-3.82A16.36,16.36,0,0,1,286,260a25.39,25.39,0,0,1-.78-6.32,25,25,0,0,1,.78-6.22,17.52,17.52,0,0,1,2.36-5.45,12.38,12.38,0,0,1,4-3.86,10.91,10.91,0,0,1,5.76-1.46,11.32,11.32,0,0,1,5.73,1.41,12.23,12.23,0,0,1,4,3.73,17.44,17.44,0,0,1,2.41,5.35,24.56,24.56,0,0,1,.82,6.32A25.46,25.46,0,0,1,310.29,259.74Z" transform="translate(-0.06 -53.39)"/><path class="cls-1" d="M256.06,225.78v15l8-5.72A23.64,23.64,0,0,0,256.06,225.78Z" transform="translate(-0.06 -53.39)"/><path class="cls-1" d="M256.06,281.41a26.78,26.78,0,0,0,4.54-3.68,18.45,18.45,0,0,0,4.13-6.36l-8.67-5.18Z" transform="translate(-0.06 -53.39)"/></svg>