<?xml version="1.0" encoding="utf-8"?>
<!-- Generator: Adobe Illustrator 24.2.1, SVG Export Plug-In . SVG Version: 6.00 Build 0)  -->
<svg version="1.1" id="Layer_1" xmlns="http://www.w3.org/2000/svg" xmlns:xlink="http://www.w3.org/1999/xlink" x="0px" y="0px"
	 viewBox="0 0 512 512" style="enable-background:new 0 0 512 512;" xml:space="preserve">
<style type="text/css">
	.st0{fill:#FFFFFF;}
	.st1{fill:none;}
	.st2{fill:#DBDBDB;}
	.st3{fill:#535460;}
</style>
<g>
	<g>
		<path class="st0" d="M382.2,236.8c-60.4,0-109.5-49.1-109.5-109.5c0-60.4,49.1-109.5,109.5-109.5s109.5,49.1,109.5,109.5
			C491.8,187.6,442.6,236.8,382.2,236.8z M382.2,36.5c-50,0-90.8,40.7-90.8,90.8s40.7,90.8,90.8,90.8s90.8-40.7,90.8-90.8
			S432.3,36.5,382.2,36.5z"/>
	</g>
	<g>
		<path class="st0" d="M234.4,77.4c-20.7-20.7-48.2-32-77.4-32c-60.4,0-109.5,49.1-109.5,109.5c0,10.1,1.4,19.9,4,29.3
			c8.7,31.2,30.8,56.9,59.7,70.2h91.6c29-13.4,51.2-39.1,59.8-70.4c2.6-9.3,3.9-19,3.9-29.1C266.5,125.7,255.1,98.1,234.4,77.4z
			 M157,245.7c-39.9,0-73.8-25.8-86-61.6c-3.1-9.1-4.8-18.9-4.8-29.1c0-50,40.7-90.8,90.8-90.8c24.2,0,47,9.4,64.1,26.6
			c17.2,17.1,26.6,39.9,26.6,64.2c0,10.2-1.7,20-4.8,29.1C230.8,219.9,196.9,245.7,157,245.7z"/>
	</g>
	<path class="st0" d="M73.4,275.7h379.3v194.5c0,8.1-6.6,14.8-14.8,14.8H88.1c-8.2,0-14.8-6.6-14.8-14.8V275.7z"/>
	<path class="st0" d="M486.3,198.8v40.8c0,8.2-6.6,14.8-14.8,14.8H53.3c-8.2,0-14.8-6.6-14.8-14.8v-40.8c0-7.5,5.6-13.7,12.9-14.6
		c0.6-0.1,1.3-0.1,1.9-0.1h418.2C479.7,184.1,486.3,190.7,486.3,198.8z"/>
	<path class="st1" d="M486.3,198.8v40.8c0,8.2-6.6,14.8-14.8,14.8H53.3c-8.2,0-14.8-6.6-14.8-14.8v-40.8c0-7.5,5.6-13.7,12.9-14.6
		c0.6-0.1,1.3-0.1,1.9-0.1h418.2C479.7,184.1,486.3,190.7,486.3,198.8z"/>
	<path class="st0" d="M344.1,295.2H181.9c-28.1,0-50.9,22.8-50.9,50.9v37.4c0,28.1,22.8,50.9,50.9,50.9h162.2
		c28.1,0,50.9-22.8,50.9-50.9v-37.4C395,318,372.2,295.2,344.1,295.2L344.1,295.2z"/>
	<path class="st2" d="M395,346.2v37.4c0,28.1-22.8,50.9-50.9,50.9H181.9c-21.9,0-40.6-13.8-47.8-33.2c12.1,4.5,6.2,3.2,179.9,3.2
		c28.1,0,50.9-22.8,50.9-50.9c0-38.5,1-43.8-3.2-55.1C381.2,305.6,395,324.3,395,346.2L395,346.2z"/>
	<path class="st2" d="M452.6,356.7v113.4c0,8.2-6.6,14.8-14.8,14.8H88.1c-8.2,0-14.8-6.6-14.8-14.8v-13.8h300.8
		c13.4,0,26.2-5.2,35.8-14.5l3.7-3.6c10-9.7,15.6-23,15.6-36.9C429.3,377.4,444,365.4,452.6,356.7L452.6,356.7z"/>
	<g>
		<path class="st3" d="M179,289.6c-4.1,0-7.4,3.3-7.4,7.4v62.4c0,4.1,3.3,7.4,7.4,7.4c4.1,0,7.4-3.3,7.4-7.4V297
			C186.4,292.9,183.1,289.6,179,289.6z"/>
		<path class="st3" d="M256.8,308.2c3.1,2.6,7.8,2.2,10.4-1c2.6-3.1,2.2-7.8-1-10.4c-20.2-16.7-51.4-2.4-51.4,24.2v14.4
			c0,26.3,30.4,40.7,50.7,24.7c3.2-2.5,3.8-7.2,1.3-10.4c-2.5-3.2-7.2-3.8-10.4-1.3c-10.7,8.4-26.9,0.9-26.9-13.1V321
			C229.6,306.9,246.1,299.3,256.8,308.2L256.8,308.2z"/>
		<path class="st3" d="M323,289.6c-17.3,0-31.4,14.1-31.4,31.4v14.4c0,17.3,14.1,31.4,31.4,31.4c17.3,0,31.4-14.1,31.4-31.4V321
			C354.4,303.7,340.3,289.6,323,289.6z M339.6,335.4c0,9.2-7.5,16.6-16.6,16.6c-9.2,0-16.6-7.5-16.6-16.6V321
			c0-9.2,7.5-16.6,16.6-16.6c9.2,0,16.6,7.5,16.6,16.6V335.4z"/>
	</g>
	<path class="st0" d="M399.2,92.8v-5.7c0-4.1-3.3-7.4-7.4-7.4c-4.1,0-7.4,3.3-7.4,7.4v4.1h-5.9v-4.1c0-4.1-3.3-7.4-7.4-7.4
		c-4.1,0-7.4,3.3-7.4,7.4v4.1h-6.4c-4.1,0-7.4,3.3-7.4,7.4c0,4.1,3.3,7.4,7.4,7.4h1.8v44.3h-1.8c-4.1,0-7.4,3.3-7.4,7.4
		s3.3,7.4,7.4,7.4h6.4v4.1c0,4.1,3.3,7.4,7.4,7.4c4.1,0,7.4-3.3,7.4-7.4v-4.1h5.9v4.1c0,4.1,3.3,7.4,7.4,7.4c4.1,0,7.4-3.3,7.4-7.4
		v-5.7c14.2-5.7,18.5-24,7.9-35.4C417.6,116.9,413.6,98.6,399.2,92.8z M396.2,148.2c-2.8,2.8-4.3,2.1-22.3,2.1v-14.4h17.2
		C397.5,135.9,400.7,143.7,396.2,148.2z M391.1,106c6.4,0,9.6,7.8,5.1,12.3c-2.8,2.8-4.2,2.1-22.3,2.1V106L391.1,106z"/>
	<g>
		<path class="st3" d="M195.4,376c1.4-0.3,3.6-0.5,5.9-0.5c3.2,0,5.3,0.6,6.8,1.8c1.3,1,2.1,2.4,2.1,4.4c0,2.4-1.6,4.5-4.2,5.5v0.1
			c2.4,0.6,5.1,2.5,5.1,6.2c0,2.1-0.8,3.8-2.1,5c-1.7,1.6-4.5,2.3-8.6,2.3c-2.2,0-3.9-0.1-5-0.3V376z M198.6,386.2h2.9
			c3.4,0,5.4-1.8,5.4-4.2c0-2.9-2.2-4.1-5.5-4.1c-1.5,0-2.3,0.1-2.8,0.2V386.2z M198.6,398.1c0.6,0.1,1.5,0.1,2.7,0.1
			c3.3,0,6.4-1.2,6.4-4.8c0-3.4-2.9-4.8-6.4-4.8h-2.7V398.1z"/>
		<path class="st3" d="M236.7,387.9c0,8.6-5.2,13.1-11.5,13.1c-6.6,0-11.2-5.1-11.2-12.6c0-7.9,4.9-13.1,11.5-13.1
			C232.3,375.3,236.7,380.5,236.7,387.9z M217.4,388.3c0,5.3,2.9,10.1,7.9,10.1c5.1,0,8-4.7,8-10.3c0-4.9-2.6-10.1-7.9-10.1
			C220,377.9,217.4,382.8,217.4,388.3z"/>
		<path class="st3" d="M244.1,375.7v14.7c0,5.6,2.5,7.9,5.8,7.9c3.7,0,6.1-2.4,6.1-7.9v-14.7h3.2v14.5c0,7.6-4,10.8-9.4,10.8
			c-5.1,0-8.9-2.9-8.9-10.6v-14.6H244.1z"/>
		<path class="st3" d="M264.7,400.5v-24.9h3.5l8,12.6c1.8,2.9,3.3,5.5,4.5,8.1l0.1,0c-0.3-3.3-0.4-6.3-0.4-10.2v-10.4h3v24.9h-3.2
			l-7.9-12.6c-1.7-2.8-3.4-5.6-4.6-8.3l-0.1,0c0.2,3.1,0.3,6.1,0.3,10.3v10.6H264.7z"/>
		<path class="st3" d="M293.7,378.4h-7.6v-2.7h18.4v2.7H297v22.1h-3.2V378.4z"/>
		<path class="st3" d="M313.9,400.5V390l-7.9-14.3h3.7l3.5,6.9c1,1.9,1.7,3.4,2.5,5.1h0.1c0.7-1.6,1.5-3.2,2.5-5.1l3.6-6.9h3.7
			l-8.3,14.3v10.6H313.9z"/>
	</g>
</g>
</svg>
