<?xml version="1.0" encoding="utf-8"?>
<!-- Generator: Adobe Illustrator 24.2.1, SVG Export Plug-In . SVG Version: 6.00 Build 0)  -->
<svg version="1.1" id="Layer_1" xmlns="http://www.w3.org/2000/svg" xmlns:xlink="http://www.w3.org/1999/xlink" x="0px" y="0px"
	 viewBox="0 0 479 479" style="enable-background:new 0 0 479 479;" xml:space="preserve">
<style type="text/css">
	.st0{fill:#FFFFFF;}
</style>
<g>
	<path class="st0" d="M167.7,253.5c0,8.3-6.7,15-15,15s-15-6.7-15-15s6.7-15,15-15S167.7,245.2,167.7,253.5z"/>
	<path class="st0" d="M347.2,253.5c0,8.3-6.7,15-15,15c-8.3,0-15-6.7-15-15s6.7-15,15-15C340.5,238.5,347.2,245.2,347.2,253.5z"/>
	<path class="st0" d="M347.2,89h-22.8c-3.9-42.4-39.4-74.8-81.9-74.8s-78,32.4-81.9,74.8h-22.8c-33,0-59.8,26.8-59.8,59.8
		s26.8,59.8,59.8,59.8h82.3v-15h-82.3c-24.8,0-44.9-20.1-44.9-44.9s20.1-44.9,44.9-44.9h37.4v-7.5c0-37.2,30.1-67.3,67.3-67.3
		s67.3,30.1,67.3,67.3v7.5h37.4c24.8,0,44.9,20.1,44.9,44.9s-20.1,44.9-44.9,44.9h-82.3v15h82.3c33,0,59.8-26.8,59.8-59.8
		S380.2,89,347.2,89z"/>
	<path class="st0" d="M354.7,290.9h-15v-16.3c9.8-3.5,16-13.3,14.8-23.6s-9.4-18.5-19.7-19.7c-10.4-1.2-20.2,5-23.6,14.8H250v-94.1
		l17.1,17.1l10.6-10.6l-35.2-35.2l-35.2,35.2l10.6,10.6l17.1-17.1V246h-61.2c-3.5-9.8-13.3-16-23.6-14.8
		c-10.4,1.2-18.5,9.4-19.7,19.7c-1.2,10.4,5,20.2,14.8,23.6v23.8h-44.9c-12.4,0-22.4,10-22.4,22.4v89.7c0,12.4,10,22.4,22.4,22.4
		h44.9v15h-22.4v15h59.8v-15h-22.4v-15h44.9c12.4,0,22.4-10,22.4-22.4v-89.7c0-12.4-10-22.4-22.4-22.4h-44.9v-23.8
		c6.3-2.3,11.3-7.2,13.6-13.6h137.3c2.3,6.3,7.2,11.3,13.6,13.6v16.3h-44.9c-12.4,0-22.4,10-22.4,22.4v127.1
		c0,12.4,10,22.4,22.4,22.4h74.8c12.4,0,22.4-10,22.4-22.4V313.3C377.1,300.9,367,290.9,354.7,290.9z M205.1,418H100.4
		c-4.1,0-7.5-3.3-7.5-7.5v-15h119.6v15C212.6,414.6,209.2,418,205.1,418z M212.6,320.8v59.8H93v-59.8c0-4.1,3.3-7.5,7.5-7.5h104.7
		C209.2,313.3,212.6,316.6,212.6,320.8z M332.2,246c4.1,0,7.5,3.3,7.5,7.5s-3.3,7.5-7.5,7.5s-7.5-3.3-7.5-7.5
		C324.8,249.3,328.1,246,332.2,246z M152.8,261c-4.1,0-7.5-3.3-7.5-7.5s3.3-7.5,7.5-7.5c4.1,0,7.5,3.3,7.5,7.5
		C160.2,257.6,156.9,260.9,152.8,261z M279.9,305.8h74.8c4.1,0,7.5,3.3,7.5,7.5v97.2h-89.7v-97.2
		C272.4,309.2,275.8,305.8,279.9,305.8z M354.7,447.9h-74.8c-4.1,0-7.5-3.3-7.5-7.5v-15h89.7v15
		C362.1,444.5,358.8,447.9,354.7,447.9z"/>
</g>
</svg>
