<?xml version="1.0" encoding="utf-8"?>
<!-- Generator: Adobe Illustrator 24.2.1, SVG Export Plug-In . SVG Version: 6.00 Build 0)  -->
<svg version="1.1" id="Layer_1" xmlns="http://www.w3.org/2000/svg" xmlns:xlink="http://www.w3.org/1999/xlink" x="0px" y="0px"
	 viewBox="0 0 478 478" style="enable-background:new 0 0 478 478;" xml:space="preserve">
<style type="text/css">
	.st0{fill:#FFFFFF;}
	.st1{fill:#E0E0E0;}
	.st2{fill:#DDDBDC;}
</style>
<g>
	<path class="st0" d="M475.6,138c0.3,0.1,0.6,0.1,1,0.2c0,38.8,0,77.6,0,116.5c-28.9,13.9-57.8,27.8-86.7,41.6c-2,1-3.9,2.6-6.5,2
		c0-38.8,0-77.6,0.1-116.3c6.7-3.2,13.4-6.5,20.1-9.7C427.5,160.8,451.5,149.4,475.6,138z"/>
	<path class="st0" d="M-0.5,138.2c0.4-0.1,0.7-0.1,1.1-0.2c30.7,14.7,61.4,29.3,92,44c0,38.8,0,77.6,0,116.4
		c-1.8,0.4-3.3-0.6-4.8-1.3C60.2,283.8,32.7,270.6,5,257.6c-1.9-0.9-3.1-3.2-5.6-3C-0.5,215.8-0.5,177-0.5,138.2z"/>
	<path class="st1" d="M92.6,298.3c0-38.8,0-77.6,0-116.4c8.8-4.2,17.5-8.5,26.3-12.7c21.9-10.4,43.9-20.8,65.8-31.2
		c1.5,1.2,1,2.8,1,4.3c0,14.4,0,28.9,0,43.3c-0.8-0.1-1.5-0.2-2.3-0.4c-8.4-2.2-16.7-4.4-25.1-6.5c-4.1-1-7.7,1.2-8.7,4.9
		c-0.9,3.4,1.1,6.9,4.9,8.4c1.3,0.5,2.7,0.7,4,1.1c9.1,2.5,18.2,5,27.2,7.4c0,14-0.1,28-0.1,42c-1.4-0.3-2.7-0.4-4.1-0.8
		c-8-2-15.9-4.1-23.9-6c-3.9-0.9-6.8,0.9-7.9,4.7c-1.2,3.8,0.6,6.6,4.1,8.3c1.1,0.5,2.3,0.8,3.5,1.1c8.1,2.2,16.1,4.4,24.2,6.6
		c-20.6,9.9-41.2,19.8-61.7,29.7c-7.5,3.6-15.1,7.2-22.6,10.8C95.9,297.7,94.4,298.8,92.6,298.3z"/>
	<path class="st1" d="M383.4,182c0,38.8,0,77.6-0.1,116.3c-1.5,0.4-2.7-0.4-4-0.9c-28-13.3-55.9-26.7-83.9-40.1
		c-0.3-0.1-0.4-0.4-0.6-0.6c1-0.4,1.9-0.9,3-1.2c7.9-2.2,15.8-4.2,23.7-6.6c3.9-1.2,5.8-4.9,4.6-8.4c-1.3-3.7-4-5.4-7.9-4.7
		c-1.8,0.3-3.6,0.8-5.4,1.2c-7.5,1.8-15,3.7-22.5,5.5c0-13.9-0.1-27.9-0.1-41.8c9.9-2.8,19.9-5.4,29.8-8.3c4.9-1.4,7.3-4.9,6.3-8.7
		c-1.1-4.1-4.9-5.9-10-4.6c-8.7,2.2-17.3,4.4-26,6.6c0-14.3-0.1-28.6-0.1-42.8c0-1.7-0.2-3.4,1.1-4.8
		C322,152.6,352.7,167.3,383.4,182z"/>
	<path class="st1" d="M274,314.4c9.9,1.5,12.2,4.2,12.2,14.4c0,16.6,0,33.2,0,49.8c0,9.5-3.4,13-12.8,13c-23.6,0-47.2,0-70.8,0
		c-9.3,0-12.6-3.3-12.7-12.6c-0.1-16.6,0-33.2-0.1-49.8c0-10.9,1.8-13.1,12.3-14.6c4.8,0.7,9.5,0.5,14.3,0.2
		c14.4,0.4,28.7,0.4,43.1-0.3C264.4,314.4,269.2,314.4,274,314.4z M259.4,347.1c-0.1-10.7-6.9-19.3-16-21.7
		c-9.6-2.5-19.3,1.7-24.1,10.5c-4.7,8.6-3.6,19.4,4.2,25.4c5.3,4.1,8.8,7.7,8.1,14.8c-0.3,3.5,2.8,5.4,6.3,5.4
		c3.8,0,6.2-1.9,6.7-5.7c0.2-1.7,0.3-3.4,0.2-5.1c-0.3-3,0.7-4.7,3.5-6.2C255.7,360.6,259.1,354.1,259.4,347.1z"/>
	<path class="st0" d="M321.5,248.9c-7.8,2.4-15.8,4.4-23.7,6.6c-1,0.3-2,0.8-3,1.2c-8.3,1-16.2,3.9-24.3,5.9
		c-9.3,2.3-12.3,0.1-12.3-9.5c0-4.8-0.2-9.6,0.1-14.4c0.2-2.9-0.9-4-3.6-3.8c-3,0.1-6.1,0.2-9.1,0.3c-2.2-0.1-4.5-0.2-6.7-0.3
		c-2.8,0.1-5.6,0.2-8.4,0.3c-12.9-0.5-12.8-0.5-12.9,12.3c0,3.1,0.1,6.2-0.1,9.3c-0.4,5.1-3.9,7.7-9,6.5c-9-2.1-17.9-4.5-26.9-6.7
		c-8.1-2.2-16.1-4.4-24.2-6.6c-1.2-0.3-2.4-0.6-3.5-1.1c-3.5-1.7-5.3-4.4-4.1-8.3c1.1-3.8,4-5.6,7.9-4.7c8,1.9,15.9,4,23.9,6
		c1.3,0.3,2.7,0.5,4.1,0.8c3.4,1,6.8,2,10.2,2.9c7.8,2.1,7.7,2.1,7.8-6.1c0-2.9-0.2-4.4-3.7-4.7c-2.9-0.3-4.8-2.6-5-5.8
		c-0.2-3.4,1.1-6.5,4.3-6.8c4.9-0.5,4.6-3.3,4.4-6.7c-0.1-2.5-0.1-5,0-7.4c0.1-2-0.4-3.2-2.6-3.6c-5.1-1.1-10.2-2.4-15.3-3.7
		c-9.1-2.5-18.2-5-27.2-7.4c-1.3-0.4-2.7-0.6-4-1.1c-3.8-1.4-5.8-4.9-4.9-8.4c1-3.7,4.5-5.9,8.7-4.9c8.4,2.1,16.7,4.3,25.1,6.5
		c0.7,0.2,1.5,0.2,2.3,0.4c8.2,2.2,16.4,4.5,24.6,6.7c5.9,1.6,7.3,3.3,7.3,9.5c0,5.3,0.2,10.6-0.1,15.8c-0.1,2.9,0.7,3.7,3.6,3.7
		c9.9-0.1,19.9,0,29.8,0.1c2.2,0,4.4,0,6.5,0c1.6-5.9,0.5-11.9,0.6-17.8c0.2-8.4,0.8-9.3,8.9-11.5c7.7-2.1,15.4-4.3,23.2-6.4
		c8.6-2.2,17.3-4.4,26-6.6c5.1-1.3,8.9,0.5,10,4.6c1,3.8-1.3,7.3-6.3,8.7c-9.9,2.9-19.9,5.5-29.8,8.3c-2.1,0.4-4.2,0.8-6.3,1.3
		c-12.5,3.3-12.5,3.4-11.7,16.5c0.1,1.8,0.4,2.7,2.5,2.9c3.8,0.5,6.3,2.7,6.3,6.7c0,4.2-2.5,6.5-6.6,6.9c-1.6,0.1-2.2,0.7-2.1,2.3
		c0.4,3.3-0.9,6.7,0.8,9.8c0.1,0.2,1.2,0.1,1.8-0.1c5.1-1.7,10.6-2.2,15.5-4.5c7.5-1.8,15-3.7,22.5-5.5c1.8-0.4,3.6-0.9,5.4-1.2
		c3.9-0.6,6.7,1,7.9,4.7C327.4,244,325.5,247.7,321.5,248.9z"/>
	<path class="st2" d="M230.6,235.2c2.8-0.1,5.6-0.2,8.4-0.3c2.2,0.1,4.5,0.2,6.7,0.3c-0.9,7.6-0.1,15.1-0.4,22.7
		c-0.1,2.1,1.2,2.9,3,3.5c15.1,4.5,26.1,18.8,25.4,35.8c-0.3,5.7,0.2,11.4,0.4,17.1c-4.8,0-9.6,0-14.4,0c-0.1-6.8,0.1-13.6-0.2-20.4
		c-0.5-11.3-10-19.9-21.6-19.8c-11.3,0.1-20.9,8.7-21.3,19.7c-0.3,7,0,13.9,0,20.9c-4.8,0.3-9.5,0.6-14.3-0.2c0.1-6.7,0-13.3,0.2-20
		c0.4-15.2,9.5-27.8,23.9-32.6c3.5-1.2,4.6-2.8,4.4-6.3C230.5,248.8,230.6,242,230.6,235.2z"/>
	<path class="st2" d="M383.4,182c-30.7-14.7-61.4-29.4-92.1-44.1c1.2-1.8,3.1-2.6,4.9-3.4c27.4-13.1,54.8-26.1,82.1-39.3
		c3.5-1.7,6.5-1.8,10.1-0.1c27.4,13.2,55,26.3,82.5,39.4c1.8,0.9,3.7,1.6,4.7,3.5c-24,11.4-48.1,22.8-72.1,34.3
		C396.8,175.5,390.1,178.7,383.4,182z"/>
	<path class="st2" d="M184.7,138c-21.9,10.4-43.9,20.8-65.8,31.2c-8.8,4.2-17.6,8.5-26.3,12.7c-30.7-14.7-61.4-29.3-92-44
		c1.1-1.9,3-2.6,4.8-3.5c27.4-13.1,54.8-26.1,82.1-39.4C91,93.4,94,93.3,97.5,95c27.4,13.3,54.9,26.3,82.4,39.5
		C181.8,135.4,183.7,136.1,184.7,138z"/>
</g>
</svg>
