<svg id="Layer_1" data-name="Layer 1" xmlns="http://www.w3.org/2000/svg" viewBox="0 0 451.07 390.6"><defs><style>.cls-1{fill:#fff;}</style></defs><path class="cls-1" d="M221.59,258.45q0-80.31,0-160.63c0-9.44-.37-9.83-9.71-9.84q-71.64-.06-143.28-.06c-8.75,0-9,.26-9,9q0,49.79,0,99.59c0,7.95.36,8.3,8.41,8.3q53,0,106,0c10.79,0,12.78,2,12.84,12.69,0,7.71.11,15.42,0,23.13-.15,8-2.64,10.51-10.41,10.51q-76.45,0-152.92-.06c-7.57,0-10-2.51-10-10.08q0-94.14.06-188.26c0-7.21,3.32-10.48,10.53-11,1.71-.12,3.43-.07,5.14-.07l224.24,0c12.7,0,14.38,1.7,14.38,14.52q.06,159,.1,318c0,10.47,0,10.48,10.65,10.47q64.89,0,129.78,0c8.45,0,8.63-.19,8.64-8.65q0-49.16,0-98.31c0-8.32-.28-8.59-8.73-8.59q-52,0-104.09,0c-11.6,0-13.28-1.76-13.29-13.52,0-8.13.11-16.27,0-24.41-.07-6.17,3.2-9,9-9.46,1.91-.16,3.85-.1,5.78-.1q71.64,0,143.28,0c13.43,0,15.58,2.17,15.58,15.69l0,180.55c0,11.89-2.48,14.46-14.19,14.46q-107.94,0-215.87,0c-11.07,0-13-2-13-13.19q0-80.31,0-160.63Z" transform="translate(-13.46 -41.7)"/></svg>