<svg id="Capa_1" data-name="Capa 1" xmlns="http://www.w3.org/2000/svg" viewBox="0 0 512 512"><defs><style>.cls-1{fill:#fff;}</style></defs><path class="cls-1" d="M256.05,511.92q-125.91,0-251.83.08C1,512,0,511.69,0,508Q.18,255.92,0,3.81C0,.66.77,0,3.87,0Q255.95.14,508,0c2.85,0,4,.29,4,3.69q-.17,252.36,0,504.72c0,3.7-1.44,3.54-4.12,3.54Q382,511.88,256.05,511.92ZM127,15.23c-10.87,0-9.74-2.59-9.17,8.78a111.07,111.07,0,0,0,0,19c-.63,23.67-.5,47.35-.07,71a119.49,119.49,0,0,0,0,20c-.1,9.64-.07,19.27-.38,28.89-.1,3.27.83,4.36,4.11,4.09,10.36-.83,20.51-.37,29.44,6a60.33,60.33,0,0,0,11.31,6.27c12.22,6.83,24.4,13.72,36.68,20.45,3.06,1.68,5.44,3.68,6.12,7.24,0,3-.11,6-.12,9,0,6.94,0,6.94,7,6.23,2.81.1,5.62.29,8.44.29,14.57,0,15.07.52,15.07,15.28,0,16,0,16,16.44,14.41,7.24.13,14.48.19,21.72.44,3.1.11,2.91-1.79,2.92-3.86,0-6.93.11-13.85.17-20.78a8.51,8.51,0,0,1,5.21-5.22c4.48-.08,9-.23,13.44-.24,11.56,0,11.82,0,11.46-11.46-.19-5.77,1.91-9.26,7-11.88,8.51-4.41,16.76-9.31,25.12-14,9.61-5.18,19.28-10.25,28.8-15.59A20.2,20.2,0,0,1,378.13,167c17.93.06,35.85-.08,53.77-.15,6.33.07,12.66,0,19,.27,2.93.12,3.66-.92,3.6-3.68-.16-8.33-.05-16.66-.07-25q-.11-34.22-.24-68.43a108.63,108.63,0,0,0,0-20c.09-10.62.12-21.25.31-31.88.05-2.38-.68-3.17-3.11-3.1-6.47.2-12.95.16-19.42.22h-16c-3-.64-6-1.8-6.79-5-.86-3.47-2.88-2.9-5.19-2.38-3.31-.1-6.62-.23-9.93-.29-1.13,0-2.48-.14-2.86,1.34-1.49,5.92-6,6.17-10.92,6.17-18.09,0-36.18.09-54.27.14H127ZM168.2,296.58c-4.34-4.55-4.57-7.08-1.11-12.46,6.15-2.93,12.71-1.4,19.09-1.58,3-.08,4-.88,3.92-4-.18-11.93-.32-23.87,0-35.79.14-4.53-1.27-5.46-5.52-5.42-5.84.06-11.9,1.35-17.52-1.51q-4.74-5.87,0-11.73c5.69-2.77,11.79-1.08,17.68-1.64,1.76-.17,4.94,1.21,5-1.42.07-3.43,2.46-7.84-2-10.35-6.52-3.63-13.14-7.06-19.71-10.57l-22.81-12.89V267q0,9.51,0,19c-.06,3.81,0,7.63-.2,11.44a3.7,3.7,0,0,0,2.34,3.88c6.17,3.2,12.28,6.52,18.41,9.8L190,324.84c0-8.65-.16-16.13.07-23.6.11-3.21-1.08-3.85-4-3.86C180.13,297.35,174.1,298.16,168.2,296.58Zm241.73-114.4c-8.32-.05-16.64,0-24.95-.21-2.4-.05-3.13.69-3.08,3.09.18,8.31.15,16.63.21,24.94q0,9.51,0,19c-.05,20.81.08,41.63-.31,62.44-.1,5.19,1.63,6.36,6.12,5.35l19,0h67c6.65,0,13.31,0,19.95.18,2.44.07,3.07-.75,3.06-3.11q-.09-54.42,0-108.83c0-2.39-.67-3.17-3.08-3.1-6.64.19-13.3.16-19.95.21l-45,0Zm-359.85,0c-10.65-.05-21.29,0-31.93-.2-2.39,0-3.13.7-3.09,3.09.16,10.64.15,21.29.2,31.93v19q-.07,24.47-.16,48.91c0,12.62,0,12.62,13,11.89l19,0,70.95,0c12.54.71,12.54.71,11.82-11.83q0-35.48,0-71,0-9.51,0-19c.06-3.33,0-6.66.22-10,.17-2.45-.77-3.08-3.12-3.06-19.29.14-38.59.16-57.88.22ZM117.85,384a119.49,119.49,0,0,0,0,20q-.77,35,0,69.88a111.86,111.86,0,0,0,0,19c-1,3-.12,4.4,3.21,4,1.81-.19,3.66,0,5.48,0,4.69-.22,8.65.76,10.2,5.92.24.81.52,1.58,1.58,1.57,4.81,0,9.63,0,14.45,0,1.37,0,1.34-1.27,1.65-2.13,1.49-4.05,4.6-5.34,8.63-5.34,8.3,0,16.6-.1,24.91-.16l19,0,71,0,19,0,70.95,0,19,0h45c6.49.06,13,0,19.47.22,2.49.08,3.08-.84,3.06-3.16-.15-21.31-.2-42.62-.28-63.93a108.63,108.63,0,0,0,0-20q.67-34,0-68c-.4-1.43-1-.79-1.52-.11-6.38,4.31-13.68,2.93-20.68,3.36l-5,0-70.95,0-19,0c-6.79-.05-13.58-.09-20.36-.16-7-.08-9.56-2.69-9.62-9.66-.07-9.44-.1-18.88-.16-28.32.47-9.53.47-9.54-8.89-9.5-1.31,0-2.62.2-3.93.31-2.15-.1-4.29-.28-6.44-.3-8.85-.08-11-2.15-11.07-10.8,0-5.33-.08-10.65,0-16,.05-2.26-.59-3.33-3.07-3.26-6.47.18-13,.18-19.44.25-5.24-.88-10.52-.16-15.77-.41-2.12-.11-3,.8-2.91,2.91.26,5.26-.47,10.54.41,15.78-.8,9.86-1.63,10.7-11.66,11.8-5.41-.12-10.83-.18-16.24-.38-2.08-.08-2.93.61-2.86,2.8.17,5.25.16,10.52.22,15.78-.06,6.61-.07,13.22-.18,19.84-.1,6.31-2.81,9-9.12,9.12-6.61.11-13.23.12-19.84.17H157c-12.16-.05-24.31-.07-36.46-.17-1.91,0-3.08.17-3,2.61C117.72,359.7,117.76,371.85,117.85,384ZM57.92,341.94c-.11,10.95-.34,21.89-.32,32.84,0,23.07.17,46.14.27,69.2a90.82,90.82,0,0,0,0,19c-.1,10.26-.14,20.52-.31,30.79,0,2.29.64,3.25,3.09,3.19,6.45-.19,12.91-.16,19.36-.21l20,0c1.38.12,3.12.67,2.24-1.89q.1-73.33.26-146.65c0-2.72-1.07-3.39-3.55-3.31-6.31.18-12.62.17-18.94.23-7-.44-14.28.85-20.67-3.35C58.84,341.17,58.3,340.61,57.92,341.94ZM57.87,84.09a90.92,90.92,0,0,0,0,19c-.1,7.46-.18,14.91-.3,22.37,0,3.2,0,7.22-3.35,8.21-5.12,1.52-4.13,5-4.17,8.49,0,2.49-.05,5,0,7.46,0,1.09-.47,2.67,1,3,6.22,1.47,6.68,6.22,6.46,11.23-.13,2.83,1.21,3.24,3.57,3.18,6.3-.17,12.6-.17,18.9-.24,5.83.07,11.67-.13,17.48.29,4.27.32,5.22-1.17,5.18-5.27-.22-27.32-.18-54.64-.2-82,0-20-.12-40,.09-60,0-4-1.23-5.13-5.07-4.9-5.81.34-11.65.18-17.48.24-6.31-.06-12.62,0-18.93-.21-2.45-.06-3.56.53-3.54,3.27C57.75,40.23,57.79,62.16,57.87,84.09ZM367,187.22c-13.62,7.5-26.27,14.77-39.24,21.42-4.74,2.43-6.36,5.3-5.88,10.43.27,3,1.21,3.61,3.85,3.49,3.83-.17,7.66-.08,11.49,0,6.88.08,10.17,2.59,10.08,7.61-.08,4.83-3.28,7.25-9.85,7.34-4,.06-8,.13-12,0-2.47-.1-3.53.51-3.5,3.28q.22,19.23,0,38.47c0,2.77,1,3.37,3.49,3.28,3.83-.14,7.66,0,11.49,0,7,.08,10.26,2.42,10.33,7.37s-3.21,7.52-10.1,7.6c-4,0-8,0-12,0-1.2,0-3.09-.56-3.11,1.46-.12,8.35-.05,16.7-.05,25.81,14.92-8.22,28.85-15.94,42.86-23.55,1.8-1,2.12-2.22,2.12-4C367,260.9,367,224.6,367,187.22ZM474.22,312.47a12.07,12.07,0,0,0-1.93-.44L379,312a7.43,7.43,0,0,0-3.85.72c-10,5.5-20,11-31,17,1.8.14,2.38.23,2.95.23h92.84a7.53,7.53,0,0,0,3.86-.68C453.68,323.76,463.67,318.28,474.22,312.47ZM38.82,312l-.18,1c9.75,5.35,19.52,10.66,29.24,16.08,1.74,1,3.5.88,5.31.88q44.91,0,89.82,0c1.12,0,2.61.82,3.54-.93-8.79-4.84-17.57-9.55-26.23-14.49a19,19,0,0,0-9.88-2.59c-28.94.11-57.88.06-86.83.06ZM205,259.8c0,6,.29,12-.1,18-.27,4.12,1.23,4.91,5,4.85,10.77-.2,10.7,0,10.71-10.69,0-2.83-.26-4.62-3.74-5s-5.44-3.36-5.51-6.74c-.08-3.6,1.76-6.61,5.61-7.16,3-.43,3.65-1.74,3.67-4.58,0-11.06.14-11.06-10.84-11a9.39,9.39,0,0,1-1.5,0c-2.64-.37-3.43.76-3.36,3.36C205.11,247.14,205,253.47,205,259.8Zm102,.05c0-5.49-.34-11,.1-16.45.38-4.7-.85-6.25-5.83-6-9.78.45-9.71.13-9.81,10.06,0,3.11.09,5.22,4.1,5.72,3.5.44,5.24,3.59,5.15,7s-1.86,6.33-5.44,6.8c-3.34.44-3.83,2-3.83,4.93,0,10.66-.06,10.66,10.63,10.62a9.38,9.38,0,0,1,1.5,0c3,.47,3.55-1.05,3.48-3.71C306.87,272.48,307,266.16,307,259.85Z" transform="translate(0 0)"/><path class="cls-1" d="M100,496.79a2.17,2.17,0,0,1,2.24-1.89C103.16,497.46,101.42,496.91,100,496.79Z" transform="translate(0 0)"/><path class="cls-1" d="M454.12,341.91l-1.52-.11C453.16,341.12,453.72,340.48,454.12,341.91Z" transform="translate(0 0)"/><path class="cls-1" d="M59.38,341.82l-1.46.12C58.3,340.61,58.84,341.17,59.38,341.82Z" transform="translate(0 0)"/><path class="cls-1" d="M362.94,411.77l19,0,12.93.15c5.95.09,9.25,2.67,9.37,7.29.13,4.86-3.25,7.65-9.44,7.7-10.29.09-20.57.12-30.85.18l-19,0-70.95,0-19,0-71,0c-5.64-.75-11.45.81-17-1.17-3-2.65-4.34-6-2.64-9.69,1.64-3.58,5-4.43,8.73-4.34,3.29.08,6.59-.09,9.89-.15l19,0,71,0,19,0Z" transform="translate(0 0)"/><path class="cls-1" d="M313,371.78l19,0q30.28.07,60.58.16c2.31,0,4.62.16,6.94.25,3.55,2.18,5.73,5.13,4.39,9.45s-4.9,5.37-9,5.31c-3.31-.05-6.62.08-9.92.14H205c-10.63-.06-21.26-.09-31.89-.17-6-.05-9.27-2.64-9.4-7.27-.14-4.86,3.24-7.67,9.45-7.71q24.92-.14,49.83-.19l19,0Z" transform="translate(0 0)"/><path class="cls-1" d="M201,140.21l-19,0c-3.48-.06-7,0-10.44-.19-4.78-.25-7.76-3.08-7.87-7.26-.11-4.39,3-7.54,8-7.65,9.44-.2,18.89-.17,28.34-.23l19,0,71,0,19,0,70.95,0,19,.26c3.95,2,6.36,5,5,9.58s-5.24,5.42-9.51,5.36c-4.48-.06-9,.09-13.43.15l-19,0-70.95,0-19,0Z" transform="translate(0 0)"/><path class="cls-1" d="M163.8,90.78c.77-2.77,2.95-4.24,5.22-5.62,3.14,0,6.28-.1,9.43-.11L240,84.87l19,0,70.95,0,19,0q22.44.07,44.88.16a18.45,18.45,0,0,1,4.94.39,6.91,6.91,0,0,1,5.44,7.36,6.82,6.82,0,0,1-5.48,6.84,21.36,21.36,0,0,1-5.44.38q-31.17.12-62.33.19l-19,0-71,0-19,0q-24.43-.08-48.87-.17C166.23,100,164,97.68,163.8,90.78Z" transform="translate(0 0)"/><path class="cls-1" d="M280,44.88l19,0,70.95,0,19,0c2.49.05,5,0,7.45.18,4.77.29,7.76,3.09,7.86,7.27.11,4.38-2.95,7.53-7.95,7.65-8.44.2-16.9.16-25.35.22H191l-19,0c-6.18-1.14-8.69-3.71-8.22-8.44q.64-6.57,9.35-6.7c5.62-.07,11.24-.12,16.87-.18l19,0Z" transform="translate(0 0)"/><path class="cls-1" d="M324,467.11l-19,0-71,0-19,0c-14.13,0-28.25-.13-42.38-.14-3.81,0-7-1.11-8.44-4.85-2.08-5.26,1.64-10,8-10.12,10.31-.13,20.61,0,30.92-.05,10,0,19.94-.11,29.91-.17l19,0,70.95,0,19,0c17.56,0,35.13.16,52.69.1,4.19,0,7.45,1.17,9.42,5,.29,7.29-1.58,9.36-9.15,10.16Z" transform="translate(0 0)"/></svg>