<?xml version="1.0" encoding="utf-8"?>
<!-- Generator: Adobe Illustrator 24.2.1, SVG Export Plug-In . SVG Version: 6.00 Build 0)  -->
<svg version="1.1" id="FilledOutline" xmlns="http://www.w3.org/2000/svg" xmlns:xlink="http://www.w3.org/1999/xlink" x="0px"
	 y="0px" viewBox="0 0 512 512" style="enable-background:new 0 0 512 512;" xml:space="preserve">
<style type="text/css">
	.st0{fill:#FFFFFF;}
</style>
<g>
	<path class="st0" d="M473.7,381.5v-15l19.6-17.7c2.5-2.3,3.3-5.9,2-9l-10.8-26c-1.3-3.1-4.4-5.1-7.8-4.9l-26.4,1.3l-10.6-10.6
		l1.4-26.4c0.2-3.4-1.8-6.5-4.9-7.8l-26-10.7c-3.1-1.3-6.7-0.5-9,2l-17.7,19.6h-15l-17.7-19.6c-2.3-2.5-5.9-3.3-9-2l-26,10.7
		c-3.1,1.3-5.1,4.4-4.9,7.8l1.4,26.4l-10.6,10.6l-26.4-1.4c-3.4-0.2-6.5,1.8-7.8,4.9l-10.8,26c-1.3,3.1-0.5,6.7,2,9l19.6,17.7v15
		l-19.6,17.7c-2.5,2.3-3.3,5.9-2,9l10.8,26c1.3,3.1,4.4,5.1,7.8,4.9l26.4-1.4l10.6,10.6l-1.4,26.4c-0.2,3.4,1.8,6.5,4.9,7.8l26,10.8
		c3.1,1.3,6.7,0.5,9-2l17.7-19.6h15l17.7,19.6c2.3,2.5,5.9,3.3,9,2l26-10.8c3.1-1.3,5.1-4.4,4.9-7.8l-1.4-26.4l10.6-10.6l26.4,1.4
		c3.4,0.2,6.5-1.8,7.8-4.9l10.8-26c1.3-3.1,0.5-6.7-2-9L473.7,381.5z M472,422.9l-24.4-1.2c-2.3-0.1-4.5,0.7-6.1,2.3L426,439.6
		c-1.6,1.6-2.4,3.8-2.3,6.1l1.2,24.4l-15.5,6.4L393,458.3c-1.5-1.7-3.7-2.6-5.9-2.6h-22.1c-2.3,0-4.4,1-5.9,2.6l-16.3,18.1
		l-15.5-6.4l1.2-24.4c0.1-2.3-0.7-4.5-2.3-6.1L310.4,424c-1.6-1.6-3.8-2.4-6.1-2.3l-24.4,1.2l-6.4-15.5l18.1-16.3
		c1.7-1.5,2.6-3.7,2.6-5.9v-22.1c0-2.3-1-4.4-2.6-5.9l-18.1-16.3l6.4-15.5l24.4,1.2c2.3,0.1,4.5-0.7,6.1-2.3l15.6-15.6
		c1.6-1.6,2.4-3.8,2.3-6.1l-1.2-24.4l15.5-6.4l16.3,18.1c1.5,1.7,3.7,2.6,5.9,2.6h22.1c2.3,0,4.4-1,5.9-2.6l16.3-18.1l15.5,6.4
		l-1.2,24.4c-0.1,2.3,0.7,4.5,2.3,6.1l15.6,15.6c1.6,1.6,3.8,2.4,6.1,2.3l24.4-1.2l6.4,15.5L460.4,357c-1.7,1.5-2.6,3.7-2.6,5.9
		v22.1c0,2.3,1,4.4,2.6,5.9l18.1,16.3L472,422.9z"/>
	<path class="st0" d="M376,318c-30.9,0-56,25.1-56,56s25.1,56,56,56s56-25.1,56-56C432,343.1,406.9,318,376,318z M376,414
		c-22.1,0-40-17.9-40-40s17.9-40,40-40s40,17.9,40,40C416,396.1,398.1,414,376,414z"/>
	<path class="st0" d="M98.8,223.4L83,220.6c-2,11-3,22.2-3,33.4h16C96,243.8,96.9,233.5,98.8,223.4z"/>
	<path class="st0" d="M205.5,428.5c13.6,4.5,27.6,7.5,41.8,8.8l1.4-15.9c-13-1.2-25.8-3.9-38.2-8L205.5,428.5z"/>
	<path class="st0" d="M431.8,246.4l16-0.7c-0.8-17.1-3.9-34-9.3-50.2l-15.2,5.1C428.3,215.3,431.1,230.8,431.8,246.4z"/>
	<path class="st0" d="M264,86c15.5,0,30.9,2.1,45.8,6.3l4.4-15.4c-32.8-9.2-67.5-9.2-100.4,0l4.4,15.4C233.1,88.1,248.5,86,264,86z"
		/>
	<path class="st0" d="M336,182h128c4.4,0,8-3.6,8-8V94c0-1.2-0.3-2.5-0.9-3.6h0l-16-32c-1.4-2.7-4.1-4.4-7.2-4.4h-96
		c-3,0-5.8,1.7-7.2,4.4l-16,32h0c-0.6,1.1-0.9,2.3-0.9,3.6v80C328,178.4,331.6,182,336,182z M456,166H344v-64h24v24c0,4.4,3.6,8,8,8
		h48c4.4,0,8-3.6,8-8v-24h24V166z M416,102v16h-32v-16H416z M386.2,86l4-16h19.5l4,16H386.2z M451.1,86h-20.8l-4-16h16.8L451.1,86z
		 M356.9,70h16.8l-4,16h-20.8L356.9,70z"/>
	<path class="st0" d="M72,206v-16H40V30h80v32h16V22c0-4.4-3.6-8-8-8H32c-4.4,0-8,3.6-8,8v176c0,4.4,3.6,8,8,8H72z"/>
	<path class="st0" d="M56,46h16v16H56V46z"/>
	<path class="st0" d="M88,46h16v16H88V46z"/>
	<path class="st0" d="M56,78h16v16H56V78z"/>
	<path class="st0" d="M56,110h16v16H56V110z"/>
	<path class="st0" d="M56,142h16v16H56V142z"/>
	<path class="st0" d="M192,78H96c-4.4,0-8,3.6-8,8v112c0,4.4,3.6,8,8,8h96c4.4,0,8-3.6,8-8V86C200,81.6,196.4,78,192,78z M184,190
		h-80V94h80V190z"/>
	<path class="st0" d="M120,142h16v16h-16V142z"/>
	<path class="st0" d="M152,142h16v16h-16V142z"/>
	<path class="st0" d="M120,110h16v16h-16V110z"/>
	<path class="st0" d="M152,110h16v16h-16V110z"/>
	<path class="st0" d="M152,342h-4.3c17.7-19.7,16-50.1-3.7-67.8c-19.7-17.7-50.1-16-67.8,3.7c-16.3,18.2-16.3,45.9,0,64.1H72
		c-22.1,0-40,17.9-40,40v72c0,13.2,10.8,24,24,24v16h16v-16c13.2,0,24-10.8,24-24v-16c0-2.1-0.8-4.2-2.3-5.7L80,418.7V398H64v24
		c0,2.1,0.8,4.2,2.3,5.7L80,441.3V454c0,4.4-3.6,8-8,8H56c-4.4,0-8-3.6-8-8v-72c0-13.2,10.8-24,24-24h80c13.2,0,24,10.8,24,24v72
		c0,4.4-3.6,8-8,8h-16c-4.4,0-8-3.6-8-8v-12.7l13.7-13.7c1.5-1.5,2.3-3.5,2.3-5.7v-24h-16v20.7l-13.7,13.7c-1.5,1.5-2.3,3.5-2.3,5.7
		v16c0,13.2,10.8,24,24,24v16h16v-16c13.2,0,24-10.8,24-24v-72C192,359.9,174.1,342,152,342z M80,310c0-17.7,14.3-32,32-32
		s32,14.3,32,32s-14.3,32-32,32C94.3,342,80,327.7,80,310z"/>
	<path class="st0" d="M124,220.1c-2.7,11.1-4,22.5-4,33.9h16c0-10.1,1.2-20.3,3.6-30.1L124,220.1z"/>
	<path class="st0" d="M204.7,385.3c13.4,6.1,27.7,10,42.4,11.8l1.9-15.9c-13-1.5-25.7-5-37.6-10.4L204.7,385.3z"/>
	<path class="st0" d="M391.8,246.5l16-0.9c-1-17.6-5.2-34.8-12.5-50.8l-14.6,6.6C387.1,215.5,390.9,230.9,391.8,246.5z"/>
	<path class="st0" d="M264,126c15.4,0,30.7,2.8,45.2,8.2l5.6-15c-32.8-12.3-68.9-12.3-101.6,0l5.6,15C233.3,128.8,248.6,126,264,126
		L264,126z"/>
</g>
</svg>
